<svg width="25" height="25" viewBox="0 0 25 25" fill="none" xmlns="http://www.w3.org/2000/svg">
<g filter="url(#filter0_d_475_976)">
<path d="M8.50005 15.3076H9.30005H8.50005ZM8.50005 15.4689H9.30005H8.50005ZM8.50005 15.6302H9.30005H8.50005ZM8.50005 15.7916H9.30005H8.50005ZM8.50005 15.9529H9.30005H8.50005ZM9.30005 16.1143H10.1H9.30005ZM9.30005 16.2756H10.1H9.30005ZM9.30005 16.437H10.1H9.30005ZM9.30005 16.5983H10.1H9.30005ZM9.30005 16.7597H10.1H9.30005ZM5.30005 16.921H6.10005H5.30005ZM10.9 16.921H11.7H10.9ZM14.1 16.921H14.9H14.1ZM5.30005 17.0823H6.10005H5.30005ZM10.9 17.0823H11.7H10.9ZM14.1 17.0823H14.9H14.1ZM5.30005 17.2437H6.10005H5.30005ZM10.9 17.2437H11.7H10.9ZM14.1 17.2437H14.9H14.1ZM5.30005 17.405H6.10005H5.30005ZM10.9 17.405H11.7H10.9ZM14.1 17.405H14.9H14.1ZM5.30005 17.5664H6.10005H5.30005ZM10.9 17.5664H11.7H10.9ZM14.1 17.5664H14.9H14.1ZM6.10005 17.7277H6.90005H6.10005ZM6.10005 17.8891H6.90005H6.10005ZM6.10005 18.0504H6.90005H6.10005ZM6.10005 18.2118H6.90005H6.10005ZM6.10005 18.3731H6.90005H6.10005ZM6.90005 18.5344H7.70005H6.90005ZM6.90005 18.6958H7.70005H6.90005ZM6.90005 18.8571H7.70005H6.90005ZM6.90005 19.0185H7.70005H6.90005ZM6.90005 19.1798H7.70005H6.90005ZM8.50005 19.3412H9.30005H8.50005ZM16.5 19.3412H17.3H16.5ZM8.50005 19.5025H9.30005H8.50005ZM16.5 19.5025H17.3H16.5ZM8.50005 19.6639H9.30005H8.50005ZM16.5 19.6639H17.3H16.5ZM8.50005 19.8252H9.30005H8.50005ZM16.5 19.8252H17.3H16.5ZM8.50005 19.9865H9.30005H8.50005ZM16.5 19.9865H17.3H16.5ZM10.1 20.1479H10.9H10.1ZM14.9 20.1479H15.7H14.9ZM10.1 20.3092H10.9H10.1ZM14.9 20.3092H15.7H14.9ZM10.1 20.4706H10.9H10.1ZM14.9 20.4706H15.7H14.9ZM10.1 20.6319H10.9H10.1ZM14.9 20.6319H15.7H14.9ZM10.1 20.7933H10.9H10.1ZM14.9 20.7933H15.7H14.9Z" fill="black"/>
<path d="M8.50005 15.3076H9.30005M8.50005 15.4689H9.30005M8.50005 15.6302H9.30005M8.50005 15.7916H9.30005M8.50005 15.9529H9.30005M9.30005 16.1143H10.1M9.30005 16.2756H10.1M9.30005 16.437H10.1M9.30005 16.5983H10.1M9.30005 16.7597H10.1M5.30005 16.921H6.10005M10.9 16.921H11.7M14.1 16.921H14.9M5.30005 17.0823H6.10005M10.9 17.0823H11.7M14.1 17.0823H14.9M5.30005 17.2437H6.10005M10.9 17.2437H11.7M14.1 17.2437H14.9M5.30005 17.405H6.10005M10.9 17.405H11.7M14.1 17.405H14.9M5.30005 17.5664H6.10005M10.9 17.5664H11.7M14.1 17.5664H14.9M6.10005 17.7277H6.90005M6.10005 17.8891H6.90005M6.10005 18.0504H6.90005M6.10005 18.2118H6.90005M6.10005 18.3731H6.90005M6.90005 18.5344H7.70005M6.90005 18.6958H7.70005M6.90005 18.8571H7.70005M6.90005 19.0185H7.70005M6.90005 19.1798H7.70005M8.50005 19.3412H9.30005M16.5 19.3412H17.3M8.50005 19.5025H9.30005M16.5 19.5025H17.3M8.50005 19.6639H9.30005M16.5 19.6639H17.3M8.50005 19.8252H9.30005M16.5 19.8252H17.3M8.50005 19.9865H9.30005M16.5 19.9865H17.3M10.1 20.1479H10.9M14.9 20.1479H15.7M10.1 20.3092H10.9M14.9 20.3092H15.7M10.1 20.4706H10.9M14.9 20.4706H15.7M10.1 20.6319H10.9M14.9 20.6319H15.7M10.1 20.7933H10.9M14.9 20.7933H15.7" stroke="#1F994E"/>
<path d="M6.90005 13.6941H7.70005H6.90005ZM6.90005 13.8555H7.70005H6.90005ZM6.90005 14.0168H7.70005H6.90005ZM6.90005 14.1781H7.70005H6.90005ZM6.90005 14.3395H7.70005H6.90005ZM6.10005 14.5008H8.50005H6.10005ZM6.10005 14.6622H8.50005H6.10005ZM6.10005 14.8235H8.50005H6.10005ZM6.10005 14.9849H8.50005H6.10005ZM6.10005 15.1462H8.50005H6.10005ZM5.30005 15.3076H8.50005H5.30005ZM5.30005 15.4689H8.50005H5.30005ZM5.30005 15.6302H8.50005H5.30005ZM5.30005 15.7916H8.50005H5.30005ZM5.30005 15.9529H8.50005H5.30005ZM5.30005 16.1143H8.50005H5.30005ZM5.30005 16.2756H8.50005H5.30005ZM5.30005 16.437H8.50005H5.30005ZM5.30005 16.5983H8.50005H5.30005ZM5.30005 16.7597H8.50005H5.30005ZM6.10005 16.921H9.30005H6.10005ZM6.10005 17.0823H9.30005H6.10005ZM6.10005 17.2437H9.30005H6.10005ZM6.10005 17.405H9.30005H6.10005ZM6.10005 17.5664H9.30005H6.10005ZM6.90005 17.7277H10.1H6.90005ZM15.7 17.7277H18.1H15.7ZM6.90005 17.8891H10.1H6.90005ZM15.7 17.8891H18.1H15.7ZM6.90005 18.0504H10.1H6.90005ZM15.7 18.0504H18.1H15.7ZM6.90005 18.2118H10.1H6.90005ZM15.7 18.2118H18.1H15.7ZM6.90005 18.3731H10.1H6.90005ZM15.7 18.3731H18.1H15.7ZM7.70005 18.5344H18.1H7.70005ZM7.70005 18.6958H18.1H7.70005ZM7.70005 18.8571H18.1H7.70005ZM7.70005 19.0185H18.1H7.70005ZM7.70005 19.1798H18.1H7.70005ZM9.30005 19.3412H16.5H9.30005ZM9.30005 19.5025H16.5H9.30005ZM9.30005 19.6639H16.5H9.30005ZM9.30005 19.8252H16.5H9.30005ZM9.30005 19.9865H16.5H9.30005ZM10.9 20.1479H14.9H10.9ZM10.9 20.3092H14.9H10.9ZM10.9 20.4706H14.9H10.9ZM10.9 20.6319H14.9H10.9ZM10.9 20.7933H14.9H10.9Z" fill="black"/>
<path d="M6.90005 13.6941H7.70005M6.90005 13.8555H7.70005M6.90005 14.0168H7.70005M6.90005 14.1781H7.70005M6.90005 14.3395H7.70005M6.10005 14.5008H8.50005M6.10005 14.6622H8.50005M6.10005 14.8235H8.50005M6.10005 14.9849H8.50005M6.10005 15.1462H8.50005M5.30005 15.3076H8.50005M5.30005 15.4689H8.50005M5.30005 15.6302H8.50005M5.30005 15.7916H8.50005M5.30005 15.9529H8.50005M5.30005 16.1143H8.50005M5.30005 16.2756H8.50005M5.30005 16.437H8.50005M5.30005 16.5983H8.50005M5.30005 16.7597H8.50005M6.10005 16.921H9.30005M6.10005 17.0823H9.30005M6.10005 17.2437H9.30005M6.10005 17.405H9.30005M6.10005 17.5664H9.30005M6.90005 17.7277H10.1M15.7 17.7277H18.1M6.90005 17.8891H10.1M15.7 17.8891H18.1M6.90005 18.0504H10.1M15.7 18.0504H18.1M6.90005 18.2118H10.1M15.7 18.2118H18.1M6.90005 18.3731H10.1M15.7 18.3731H18.1M7.70005 18.5344H18.1M7.70005 18.6958H18.1M7.70005 18.8571H18.1M7.70005 19.0185H18.1M7.70005 19.1798H18.1M9.30005 19.3412H16.5M9.30005 19.5025H16.5M9.30005 19.6639H16.5M9.30005 19.8252H16.5M9.30005 19.9865H16.5M10.9 20.1479H14.9M10.9 20.3092H14.9M10.9 20.4706H14.9M10.9 20.6319H14.9M10.9 20.7933H14.9" stroke="#5ECB38"/>
<path d="M8.50006 16.1143H9.30006H8.50006ZM8.50006 16.2756H9.30006H8.50006ZM8.50006 16.437H9.30006H8.50006ZM8.50006 16.5983H9.30006H8.50006ZM8.50006 16.7597H9.30006H8.50006ZM9.30006 16.921H10.9001H9.30006ZM14.9001 16.921H16.5001H14.9001ZM9.30006 17.0823H10.9001H9.30006ZM14.9001 17.0823H16.5001H14.9001ZM9.30006 17.2437H10.9001H9.30006ZM14.9001 17.2437H16.5001H14.9001ZM9.30006 17.405H10.9001H9.30006ZM14.9001 17.405H16.5001H14.9001ZM9.30006 17.5664H10.9001H9.30006ZM14.9001 17.5664H16.5001H14.9001ZM10.1001 17.7277H11.7001H10.1001ZM13.3001 17.7277H15.7001H13.3001ZM10.1001 17.8891H11.7001H10.1001ZM13.3001 17.8891H15.7001H13.3001ZM10.1001 18.0504H11.7001H10.1001ZM13.3001 18.0504H15.7001H13.3001ZM10.1001 18.2118H11.7001H10.1001ZM13.3001 18.2118H15.7001H13.3001ZM10.1001 18.3731H11.7001H10.1001ZM13.3001 18.3731H15.7001H13.3001Z" fill="black"/>
<path d="M8.50006 16.1143H9.30006M8.50006 16.2756H9.30006M8.50006 16.437H9.30006M8.50006 16.5983H9.30006M8.50006 16.7597H9.30006M9.30006 16.921H10.9001M14.9001 16.921H16.5001M9.30006 17.0823H10.9001M14.9001 17.0823H16.5001M9.30006 17.2437H10.9001M14.9001 17.2437H16.5001M9.30006 17.405H10.9001M14.9001 17.405H16.5001M9.30006 17.5664H10.9001M14.9001 17.5664H16.5001M10.1001 17.7277H11.7001M13.3001 17.7277H15.7001M10.1001 17.8891H11.7001M13.3001 17.8891H15.7001M10.1001 18.0504H11.7001M13.3001 18.0504H15.7001M10.1001 18.2118H11.7001M13.3001 18.2118H15.7001M10.1001 18.3731H11.7001M13.3001 18.3731H15.7001" stroke="#3DB64A"/>
<path d="M10.1 16.1143H11.7H10.1ZM14.1 16.1143H15.7H14.1ZM10.1 16.2756H11.7H10.1ZM14.1 16.2756H15.7H14.1ZM10.1 16.437H11.7H10.1ZM14.1 16.437H15.7H14.1ZM10.1 16.5983H11.7H10.1ZM14.1 16.5983H15.7H14.1ZM10.1 16.7597H11.7H10.1ZM14.1 16.7597H15.7H14.1ZM11.7 16.921H14.1H11.7ZM11.7 17.0823H14.1H11.7ZM11.7 17.2437H14.1H11.7ZM11.7 17.405H14.1H11.7ZM11.7 17.5664H14.1H11.7Z" fill="black"/>
<path d="M10.1 16.1143H11.7M14.1 16.1143H15.7M10.1 16.2756H11.7M14.1 16.2756H15.7M10.1 16.437H11.7M14.1 16.437H15.7M10.1 16.5983H11.7M14.1 16.5983H15.7M10.1 16.7597H11.7M14.1 16.7597H15.7M11.7 16.921H14.1M11.7 17.0823H14.1M11.7 17.2437H14.1M11.7 17.405H14.1M11.7 17.5664H14.1" stroke="#265C42"/>
<path d="M13.3 9.66049H20.5H13.3ZM13.3 9.82184H20.5H13.3ZM13.3 9.98318H20.5H13.3ZM13.3 10.1445H20.5H13.3ZM13.3 10.3059H20.5H13.3ZM20.5 13.6941H21.3H20.5ZM20.5 13.8554H21.3H20.5ZM20.5 14.0168H21.3H20.5ZM20.5 14.1781H21.3H20.5ZM20.5 14.3395H21.3H20.5ZM20.5 14.5008H21.3H20.5ZM20.5 14.6622H21.3H20.5ZM20.5 14.8235H21.3H20.5ZM20.5 14.9849H21.3H20.5ZM20.5 15.1462H21.3H20.5ZM15.7 16.1143H16.5H15.7ZM19.7 16.1143H20.5H19.7ZM15.7 16.2756H16.5H15.7ZM19.7 16.2756H20.5H19.7ZM15.7 16.437H16.5H15.7ZM19.7 16.437H20.5H19.7ZM15.7 16.5983H16.5H15.7ZM19.7 16.5983H20.5H19.7ZM15.7 16.7597H16.5H15.7ZM19.7 16.7597H20.5H19.7Z" fill="black"/>
<path d="M13.3 9.66049H20.5M13.3 9.82184H20.5M13.3 9.98318H20.5M13.3 10.1445H20.5M13.3 10.3059H20.5M20.5 13.6941H21.3M20.5 13.8554H21.3M20.5 14.0168H21.3M20.5 14.1781H21.3M20.5 14.3395H21.3M20.5 14.5008H21.3M20.5 14.6622H21.3M20.5 14.8235H21.3M20.5 14.9849H21.3M20.5 15.1462H21.3M15.7 16.1143H16.5M19.7 16.1143H20.5M15.7 16.2756H16.5M19.7 16.2756H20.5M15.7 16.437H16.5M19.7 16.437H20.5M15.7 16.5983H16.5M19.7 16.5983H20.5M15.7 16.7597H16.5M19.7 16.7597H20.5" stroke="#2753AF"/>
<path d="M12.5 10.4672H13.3H12.5ZM20.5 10.4672H21.3H20.5ZM12.5 10.6286H13.3H12.5ZM20.5 10.6286H21.3H20.5ZM12.5 10.7899H13.3H12.5ZM20.5 10.7899H21.3H20.5ZM12.5 10.9513H13.3H12.5ZM20.5 10.9513H21.3H20.5ZM12.5 11.1126H13.3H12.5ZM20.5 11.1126H21.3H20.5ZM12.5 11.2739H21.3H12.5ZM12.5 11.4353H21.3H12.5ZM12.5 11.5966H21.3H12.5ZM12.5 11.758H21.3H12.5ZM12.5 11.9193H21.3H12.5ZM12.5 12.0807H21.3H12.5ZM12.5 12.242H21.3H12.5ZM12.5 12.4034H21.3H12.5ZM12.5 12.5647H21.3H12.5ZM12.5 12.726H21.3H12.5ZM12.5 12.8874H21.3H12.5ZM12.5 13.0487H21.3H12.5ZM12.5 13.2101H21.3H12.5ZM12.5 13.3714H21.3H12.5ZM12.5 13.5328H21.3H12.5ZM17.3 13.6941H20.5H17.3ZM17.3 13.8555H20.5H17.3ZM17.3 14.0168H20.5H17.3ZM17.3 14.1781H20.5H17.3ZM17.3 14.3395H20.5H17.3ZM17.3 14.5008H20.5H17.3ZM17.3 14.6622H20.5H17.3ZM17.3 14.8235H20.5H17.3ZM17.3 14.9849H20.5H17.3ZM17.3 15.1462H20.5H17.3ZM16.5 15.3076H20.5H16.5ZM16.5 15.4689H20.5H16.5ZM16.5 15.6302H20.5H16.5ZM16.5 15.7916H20.5H16.5ZM16.5 15.9529H20.5H16.5ZM16.5 16.1143H19.7H16.5ZM16.5 16.2756H19.7H16.5ZM16.5 16.437H19.7H16.5ZM16.5 16.5983H19.7H16.5ZM16.5 16.7597H19.7H16.5ZM16.5 16.921H19.7H16.5ZM16.5 17.0823H19.7H16.5ZM16.5 17.2437H19.7H16.5ZM16.5 17.405H19.7H16.5ZM16.5 17.5664H19.7H16.5ZM18.1 17.7277H18.9H18.1ZM18.1 17.8891H18.9H18.1ZM18.1 18.0504H18.9H18.1ZM18.1 18.2118H18.9H18.1ZM18.1 18.3731H18.9H18.1Z" fill="black"/>
<path d="M12.5 10.4672H13.3M20.5 10.4672H21.3M12.5 10.6286H13.3M20.5 10.6286H21.3M12.5 10.7899H13.3M20.5 10.7899H21.3M12.5 10.9513H13.3M20.5 10.9513H21.3M12.5 11.1126H13.3M20.5 11.1126H21.3M12.5 11.2739H21.3M12.5 11.4353H21.3M12.5 11.5966H21.3M12.5 11.758H21.3M12.5 11.9193H21.3M12.5 12.0807H21.3M12.5 12.242H21.3M12.5 12.4034H21.3M12.5 12.5647H21.3M12.5 12.726H21.3M12.5 12.8874H21.3M12.5 13.0487H21.3M12.5 13.2101H21.3M12.5 13.3714H21.3M12.5 13.5328H21.3M17.3 13.6941H20.5M17.3 13.8555H20.5M17.3 14.0168H20.5M17.3 14.1781H20.5M17.3 14.3395H20.5M17.3 14.5008H20.5M17.3 14.6622H20.5M17.3 14.8235H20.5M17.3 14.9849H20.5M17.3 15.1462H20.5M16.5 15.3076H20.5M16.5 15.4689H20.5M16.5 15.6302H20.5M16.5 15.7916H20.5M16.5 15.9529H20.5M16.5 16.1143H19.7M16.5 16.2756H19.7M16.5 16.437H19.7M16.5 16.5983H19.7M16.5 16.7597H19.7M16.5 16.921H19.7M16.5 17.0823H19.7M16.5 17.2437H19.7M16.5 17.405H19.7M16.5 17.5664H19.7M18.1 17.7277H18.9M18.1 17.8891H18.9M18.1 18.0504H18.9M18.1 18.2118H18.9M18.1 18.3731H18.9" stroke="#1884DB"/>
<path d="M12.5 9.66049H13.3H12.5ZM20.5 9.66049H21.3H20.5ZM12.5 9.82184H13.3H12.5ZM20.5 9.82184H21.3H20.5ZM12.5 9.98318H13.3H12.5ZM20.5 9.98318H21.3H20.5ZM12.5 10.1445H13.3H12.5ZM20.5 10.1445H21.3H20.5ZM12.5 10.3059H13.3H12.5ZM20.5 10.3059H21.3H20.5ZM11.7 10.4672H12.5H11.7ZM21.3 10.4672H22.1H21.3ZM11.7 10.6286H12.5H11.7ZM21.3 10.6286H22.1H21.3ZM11.7 10.7899H12.5H11.7ZM21.3 10.7899H22.1H21.3ZM11.7 10.9512H12.5H11.7ZM21.3 10.9512H22.1H21.3ZM11.7 11.1126H12.5H11.7ZM21.3 11.1126H22.1H21.3ZM11.7 11.2739H12.5H11.7ZM21.3 11.2739H22.1H21.3ZM11.7 11.4353H12.5H11.7ZM21.3 11.4353H22.1H21.3ZM11.7 11.5966H12.5H11.7ZM21.3 11.5966H22.1H21.3ZM11.7 11.758H12.5H11.7ZM21.3 11.758H22.1H21.3ZM11.7 11.9193H12.5H11.7ZM21.3 11.9193H22.1H21.3ZM11.7 12.0807H12.5H11.7ZM21.3 12.0807H22.1H21.3ZM11.7 12.242H12.5H11.7ZM21.3 12.242H22.1H21.3ZM11.7 12.4033H12.5H11.7ZM21.3 12.4033H22.1H21.3ZM11.7 12.5647H12.5H11.7ZM21.3 12.5647H22.1H21.3ZM11.7 12.726H12.5H11.7ZM21.3 12.726H22.1H21.3ZM21.3 12.8874H22.1H21.3ZM21.3 13.0487H22.1H21.3ZM21.3 13.2101H22.1H21.3ZM21.3 13.3714H22.1H21.3ZM21.3 13.5328H22.1H21.3Z" fill="black"/>
<path d="M12.5 9.66049H13.3M20.5 9.66049H21.3M12.5 9.82184H13.3M20.5 9.82184H21.3M12.5 9.98318H13.3M20.5 9.98318H21.3M12.5 10.1445H13.3M20.5 10.1445H21.3M12.5 10.3059H13.3M20.5 10.3059H21.3M11.7 10.4672H12.5M21.3 10.4672H22.1M11.7 10.6286H12.5M21.3 10.6286H22.1M11.7 10.7899H12.5M21.3 10.7899H22.1M11.7 10.9512H12.5M21.3 10.9512H22.1M11.7 11.1126H12.5M21.3 11.1126H22.1M11.7 11.2739H12.5M21.3 11.2739H22.1M11.7 11.4353H12.5M21.3 11.4353H22.1M11.7 11.5966H12.5M21.3 11.5966H22.1M11.7 11.758H12.5M21.3 11.758H22.1M11.7 11.9193H12.5M21.3 11.9193H22.1M11.7 12.0807H12.5M21.3 12.0807H22.1M11.7 12.242H12.5M21.3 12.242H22.1M11.7 12.4033H12.5M21.3 12.4033H22.1M11.7 12.5647H12.5M21.3 12.5647H22.1M11.7 12.726H12.5M21.3 12.726H22.1M21.3 12.8874H22.1M21.3 13.0487H22.1M21.3 13.2101H22.1M21.3 13.3714H22.1M21.3 13.5328H22.1" stroke="#17426A"/>
<path d="M3.70002 8.04706H4.50002H3.70002ZM3.70002 8.2084H4.50002H3.70002ZM3.70002 8.36975H4.50002H3.70002ZM3.70002 8.53109H4.50002H3.70002ZM3.70002 8.69244H4.50002H3.70002ZM3.70002 8.85378H4.50002H3.70002ZM3.70002 9.01513H4.50002H3.70002ZM3.70002 9.17647H4.50002H3.70002ZM3.70002 9.33781H4.50002H3.70002ZM3.70002 9.49916H4.50002H3.70002ZM2.90002 9.6605H3.70002H2.90002ZM2.90002 9.82185H3.70002H2.90002ZM2.90002 9.98319H3.70002H2.90002ZM2.90002 10.1445H3.70002H2.90002ZM2.90002 10.3059H3.70002H2.90002ZM2.90002 10.4672H3.70002H2.90002ZM2.90002 10.6286H3.70002H2.90002ZM2.90002 10.7899H3.70002H2.90002ZM2.90002 10.9513H3.70002H2.90002ZM2.90002 11.1126H3.70002H2.90002ZM2.90002 11.2739H3.70002H2.90002ZM2.90002 11.4353H3.70002H2.90002ZM2.90002 11.5966H3.70002H2.90002ZM2.90002 11.758H3.70002H2.90002ZM2.90002 11.9193H3.70002H2.90002Z" fill="black"/>
<path d="M3.70002 8.04706H4.50002M3.70002 8.2084H4.50002M3.70002 8.36975H4.50002M3.70002 8.53109H4.50002M3.70002 8.69244H4.50002M3.70002 8.85378H4.50002M3.70002 9.01513H4.50002M3.70002 9.17647H4.50002M3.70002 9.33781H4.50002M3.70002 9.49916H4.50002M2.90002 9.6605H3.70002M2.90002 9.82185H3.70002M2.90002 9.98319H3.70002M2.90002 10.1445H3.70002M2.90002 10.3059H3.70002M2.90002 10.4672H3.70002M2.90002 10.6286H3.70002M2.90002 10.7899H3.70002M2.90002 10.9513H3.70002M2.90002 11.1126H3.70002M2.90002 11.2739H3.70002M2.90002 11.4353H3.70002M2.90002 11.5966H3.70002M2.90002 11.758H3.70002M2.90002 11.9193H3.70002" stroke="#904D3B"/>
<path d="M4.50001 8.85378H6.10001H4.50001ZM4.50001 9.01512H6.10001H4.50001ZM4.50001 9.17646H6.10001H4.50001ZM4.50001 9.33781H6.10001H4.50001ZM4.50001 9.49915H6.10001H4.50001ZM4.50001 9.6605H6.90001H4.50001ZM4.50001 9.82184H6.90001H4.50001ZM4.50001 9.98319H6.90001H4.50001ZM4.50001 10.1445H6.90001H4.50001ZM4.50001 10.3059H6.90001H4.50001ZM3.70001 10.4672H6.90001H3.70001ZM3.70001 10.6286H6.90001H3.70001ZM3.70001 10.7899H6.90001H3.70001ZM3.70001 10.9513H6.90001H3.70001ZM3.70001 11.1126H6.90001H3.70001ZM3.70001 11.2739H7.70001H3.70001ZM3.70001 11.4353H7.70001H3.70001ZM3.70001 11.5966H7.70001H3.70001ZM3.70001 11.758H7.70001H3.70001ZM3.70001 11.9193H7.70001H3.70001ZM3.70001 12.0807H7.70001H3.70001ZM3.70001 12.242H7.70001H3.70001ZM3.70001 12.4034H7.70001H3.70001ZM3.70001 12.5647H7.70001H3.70001ZM3.70001 12.726H7.70001H3.70001ZM3.70001 12.8874H7.70001H3.70001ZM3.70001 13.0487H7.70001H3.70001ZM3.70001 13.2101H7.70001H3.70001ZM3.70001 13.3714H7.70001H3.70001ZM3.70001 13.5328H7.70001H3.70001ZM4.50001 13.6941H6.90001H4.50001ZM4.50001 13.8555H6.90001H4.50001ZM4.50001 14.0168H6.90001H4.50001ZM4.50001 14.1781H6.90001H4.50001ZM4.50001 14.3395H6.90001H4.50001Z" fill="black"/>
<path d="M4.50001 8.85378H6.10001M4.50001 9.01512H6.10001M4.50001 9.17646H6.10001M4.50001 9.33781H6.10001M4.50001 9.49915H6.10001M4.50001 9.6605H6.90001M4.50001 9.82184H6.90001M4.50001 9.98319H6.90001M4.50001 10.1445H6.90001M4.50001 10.3059H6.90001M3.70001 10.4672H6.90001M3.70001 10.6286H6.90001M3.70001 10.7899H6.90001M3.70001 10.9513H6.90001M3.70001 11.1126H6.90001M3.70001 11.2739H7.70001M3.70001 11.4353H7.70001M3.70001 11.5966H7.70001M3.70001 11.758H7.70001M3.70001 11.9193H7.70001M3.70001 12.0807H7.70001M3.70001 12.242H7.70001M3.70001 12.4034H7.70001M3.70001 12.5647H7.70001M3.70001 12.726H7.70001M3.70001 12.8874H7.70001M3.70001 13.0487H7.70001M3.70001 13.2101H7.70001M3.70001 13.3714H7.70001M3.70001 13.5328H7.70001M4.50001 13.6941H6.90001M4.50001 13.8555H6.90001M4.50001 14.0168H6.90001M4.50001 14.1781H6.90001M4.50001 14.3395H6.90001" stroke="#FFCE41"/>
<path d="M2.90002 12.0807H3.70002H2.90002ZM2.90002 12.242H3.70002H2.90002ZM2.90002 12.4034H3.70002H2.90002ZM2.90002 12.5647H3.70002H2.90002ZM2.90002 12.7261H3.70002H2.90002ZM2.90002 12.8874H3.70002H2.90002ZM2.90002 13.0487H3.70002H2.90002ZM2.90002 13.2101H3.70002H2.90002ZM2.90002 13.3714H3.70002H2.90002ZM2.90002 13.5328H3.70002H2.90002Z" fill="black"/>
<path d="M2.90002 12.0807H3.70002M2.90002 12.242H3.70002M2.90002 12.4034H3.70002M2.90002 12.5647H3.70002M2.90002 12.7261H3.70002M2.90002 12.8874H3.70002M2.90002 13.0487H3.70002M2.90002 13.2101H3.70002M2.90002 13.3714H3.70002M2.90002 13.5328H3.70002" stroke="#5E1521"/>
<path d="M11.7 2.39999H15.7H11.7ZM11.7 2.56134H15.7H11.7ZM11.7 2.72268H15.7H11.7ZM11.7 2.88403H15.7H11.7ZM11.7 3.04537H15.7H11.7ZM10.1 3.20672H10.9H10.1ZM15.7 3.20672H17.3H15.7ZM10.1 3.36806H10.9H10.1ZM15.7 3.36806H17.3H15.7ZM10.1 3.52941H10.9H10.1ZM15.7 3.52941H17.3H15.7ZM10.1 3.69075H10.9H10.1ZM15.7 3.69075H17.3H15.7ZM10.1 3.85209H10.9H10.1ZM15.7 3.85209H17.3H15.7ZM16.5 4.01344H17.3H16.5ZM16.5 4.17478H17.3H16.5ZM16.5 4.33613H17.3H16.5ZM16.5 4.49747H17.3H16.5ZM16.5 4.65882H17.3H16.5ZM6.90005 4.82016H7.70005H6.90005ZM6.90005 4.98151H7.70005H6.90005ZM6.90005 5.14285H7.70005H6.90005ZM6.90005 5.3042H7.70005H6.90005ZM6.90005 5.46554H7.70005H6.90005ZM5.30005 6.43361H6.10005H5.30005ZM10.1 6.43361H10.9H10.1ZM14.1 6.43361H14.9H14.1ZM17.3 6.43361H18.1H17.3ZM5.30005 6.59495H6.10005H5.30005ZM10.1 6.59495H10.9H10.1ZM14.1 6.59495H14.9H14.1ZM17.3 6.59495H18.1H17.3ZM5.30005 6.7563H6.10005H5.30005ZM10.1 6.7563H10.9H10.1ZM14.1 6.7563H14.9H14.1ZM17.3 6.7563H18.1H17.3ZM5.30005 6.91764H6.10005H5.30005ZM10.1 6.91764H10.9H10.1ZM14.1 6.91764H14.9H14.1ZM17.3 6.91764H18.1H17.3ZM5.30005 7.07899H6.10005H5.30005ZM10.1 7.07899H10.9H10.1ZM14.1 7.07899H14.9H14.1ZM17.3 7.07899H18.1H17.3ZM16.5 7.24033H17.3H16.5ZM16.5 7.40167H17.3H16.5ZM16.5 7.56302H17.3H16.5ZM16.5 7.72436H17.3H16.5ZM16.5 7.88571H17.3H16.5ZM7.70005 8.85378H8.50005H7.70005ZM7.70005 9.01512H8.50005H7.70005ZM7.70005 9.17646H8.50005H7.70005ZM7.70005 9.33781H8.50005H7.70005ZM7.70005 9.49915H8.50005H7.70005Z" fill="black"/>
<path d="M11.7 2.39999H15.7M11.7 2.56134H15.7M11.7 2.72268H15.7M11.7 2.88403H15.7M11.7 3.04537H15.7M10.1 3.20672H10.9M15.7 3.20672H17.3M10.1 3.36806H10.9M15.7 3.36806H17.3M10.1 3.52941H10.9M15.7 3.52941H17.3M10.1 3.69075H10.9M15.7 3.69075H17.3M10.1 3.85209H10.9M15.7 3.85209H17.3M16.5 4.01344H17.3M16.5 4.17478H17.3M16.5 4.33613H17.3M16.5 4.49747H17.3M16.5 4.65882H17.3M6.90005 4.82016H7.70005M6.90005 4.98151H7.70005M6.90005 5.14285H7.70005M6.90005 5.3042H7.70005M6.90005 5.46554H7.70005M5.30005 6.43361H6.10005M10.1 6.43361H10.9M14.1 6.43361H14.9M17.3 6.43361H18.1M5.30005 6.59495H6.10005M10.1 6.59495H10.9M14.1 6.59495H14.9M17.3 6.59495H18.1M5.30005 6.7563H6.10005M10.1 6.7563H10.9M14.1 6.7563H14.9M17.3 6.7563H18.1M5.30005 6.91764H6.10005M10.1 6.91764H10.9M14.1 6.91764H14.9M17.3 6.91764H18.1M5.30005 7.07899H6.10005M10.1 7.07899H10.9M14.1 7.07899H14.9M17.3 7.07899H18.1M16.5 7.24033H17.3M16.5 7.40167H17.3M16.5 7.56302H17.3M16.5 7.72436H17.3M16.5 7.88571H17.3M7.70005 8.85378H8.50005M7.70005 9.01512H8.50005M7.70005 9.17646H8.50005M7.70005 9.33781H8.50005M7.70005 9.49915H8.50005" stroke="#AF2031"/>
<path d="M10.9 4.01344H12.5H10.9ZM10.9 4.17479H12.5H10.9ZM10.9 4.33613H12.5H10.9ZM10.9 4.49748H12.5H10.9ZM10.9 4.65882H12.5H10.9ZM4.50001 8.04706H5.30001H4.50001ZM4.50001 8.2084H5.30001H4.50001ZM4.50001 8.36975H5.30001H4.50001ZM4.50001 8.53109H5.30001H4.50001ZM4.50001 8.69243H5.30001H4.50001ZM3.70001 9.6605H4.50001H3.70001ZM3.70001 9.82185H4.50001H3.70001ZM3.70001 9.98319H4.50001H3.70001ZM3.70001 10.1445H4.50001H3.70001ZM3.70001 10.3059H4.50001H3.70001ZM6.90001 10.4672H7.70001H6.90001ZM6.90001 10.6286H7.70001H6.90001ZM6.90001 10.7899H7.70001H6.90001ZM6.90001 10.9513H7.70001H6.90001ZM6.90001 11.1126H7.70001H6.90001ZM3.70001 13.6941H4.50001H3.70001ZM3.70001 13.8555H4.50001H3.70001ZM3.70001 14.0168H4.50001H3.70001ZM3.70001 14.1781H4.50001H3.70001ZM3.70001 14.3395H4.50001H3.70001ZM4.50001 14.5008H6.10001H4.50001ZM4.50001 14.6622H6.10001H4.50001ZM4.50001 14.8235H6.10001H4.50001ZM4.50001 14.9849H6.10001H4.50001ZM4.50001 15.1462H6.10001H4.50001ZM4.50001 15.3076H5.30001H4.50001ZM4.50001 15.4689H5.30001H4.50001ZM4.50001 15.6302H5.30001H4.50001ZM4.50001 15.7916H5.30001H4.50001ZM4.50001 15.9529H5.30001H4.50001Z" fill="black"/>
<path d="M10.9 4.01344H12.5M10.9 4.17479H12.5M10.9 4.33613H12.5M10.9 4.49748H12.5M10.9 4.65882H12.5M4.50001 8.04706H5.30001M4.50001 8.2084H5.30001M4.50001 8.36975H5.30001M4.50001 8.53109H5.30001M4.50001 8.69243H5.30001M3.70001 9.6605H4.50001M3.70001 9.82185H4.50001M3.70001 9.98319H4.50001M3.70001 10.1445H4.50001M3.70001 10.3059H4.50001M6.90001 10.4672H7.70001M6.90001 10.6286H7.70001M6.90001 10.7899H7.70001M6.90001 10.9513H7.70001M6.90001 11.1126H7.70001M3.70001 13.6941H4.50001M3.70001 13.8555H4.50001M3.70001 14.0168H4.50001M3.70001 14.1781H4.50001M3.70001 14.3395H4.50001M4.50001 14.5008H6.10001M4.50001 14.6622H6.10001M4.50001 14.8235H6.10001M4.50001 14.9849H6.10001M4.50001 15.1462H6.10001M4.50001 15.3076H5.30001M4.50001 15.4689H5.30001M4.50001 15.6303H5.30001M4.50001 15.7916H5.30001M4.50001 15.9529H5.30001" stroke="#F9A31B"/>
<path d="M11.7 3.20673H14.9H11.7ZM11.7 3.36807H14.9H11.7ZM11.7 3.52942H14.9H11.7ZM11.7 3.69076H14.9H11.7ZM11.7 3.8521H14.9H11.7ZM9.30001 4.01345H10.9H9.30001ZM12.5 4.01345H15.7H12.5ZM9.30001 4.17479H10.9H9.30001ZM12.5 4.17479H15.7H12.5ZM9.30001 4.33614H10.9H9.30001ZM12.5 4.33614H15.7H12.5ZM9.30001 4.49748H10.9H9.30001ZM12.5 4.49748H15.7H12.5ZM9.30001 4.65883H10.9H9.30001ZM12.5 4.65883H15.7H12.5ZM8.50001 4.82017H10.1H8.50001ZM15.7 4.82017H16.5H15.7ZM8.50001 4.98152H10.1H8.50001ZM15.7 4.98152H16.5H15.7ZM8.50001 5.14286H10.1H8.50001ZM15.7 5.14286H16.5H15.7ZM8.50001 5.3042H10.1H8.50001ZM15.7 5.3042H16.5H15.7ZM8.50001 5.46555H10.1H8.50001ZM15.7 5.46555H16.5H15.7ZM7.70001 5.62689H8.50001H7.70001ZM7.70001 5.78824H8.50001H7.70001ZM7.70001 5.94958H8.50001H7.70001ZM7.70001 6.11093H8.50001H7.70001ZM7.70001 6.27227H8.50001H7.70001Z" fill="black"/>
<path d="M11.7 3.20673H14.9M11.7 3.36807H14.9M11.7 3.52942H14.9M11.7 3.69076H14.9M11.7 3.8521H14.9M9.30001 4.01345H10.9M12.5 4.01345H15.7M9.30001 4.17479H10.9M12.5 4.17479H15.7M9.30001 4.33614H10.9M12.5 4.33614H15.7M9.30001 4.49748H10.9M12.5 4.49748H15.7M9.30001 4.65883H10.9M12.5 4.65883H15.7M8.50001 4.82017H10.1M15.7 4.82017H16.5M8.50001 4.98152H10.1M15.7 4.98152H16.5M8.50001 5.14286H10.1M15.7 5.14286H16.5M8.50001 5.3042H10.1M15.7 5.3042H16.5M8.50001 5.46555H10.1M15.7 5.46555H16.5M7.70001 5.62689H8.50001M7.70001 5.78824H8.50001M7.70001 5.94958H8.50001M7.70001 6.11093H8.50001M7.70001 6.27227H8.50001" stroke="#FA6A0A"/>
<path d="M10.1 2.39999H11.7H10.1ZM10.1 2.56134H11.7H10.1ZM10.1 2.72268H11.7H10.1ZM10.1 2.88403H11.7H10.1ZM10.1 3.04537H11.7H10.1ZM8.5 3.20672H10.1H8.5ZM8.5 3.36806H10.1H8.5ZM8.5 3.52941H10.1H8.5ZM8.5 3.69075H10.1H8.5ZM8.5 3.85209H10.1H8.5ZM6.9 4.01344H8.5H6.9ZM17.3 4.01344H18.1H17.3ZM6.9 4.17478H8.5H6.9ZM17.3 4.17478H18.1H17.3ZM6.9 4.33613H8.5H6.9ZM17.3 4.33613H18.1H17.3ZM6.9 4.49747H8.5H6.9ZM17.3 4.49747H18.1H17.3ZM6.9 4.65882H8.5H6.9ZM17.3 4.65882H18.1H17.3ZM6.1 4.82016H6.9H6.1ZM18.1 4.82016H18.9H18.1ZM6.1 4.98151H6.9H6.1ZM18.1 4.98151H18.9H18.1ZM6.1 5.14285H6.9H6.1ZM18.1 5.14285H18.9H18.1ZM6.1 5.3042H6.9H6.1ZM18.1 5.3042H18.9H18.1ZM6.1 5.46554H6.9H6.1ZM18.1 5.46554H18.9H18.1ZM5.3 5.62688H6.1H5.3ZM18.1 5.62688H18.9H18.1ZM5.3 5.78823H6.1H5.3ZM18.1 5.78823H18.9H18.1ZM5.3 5.94957H6.1H5.3ZM18.1 5.94957H18.9H18.1ZM5.3 6.11092H6.1H5.3ZM18.1 6.11092H18.9H18.1ZM5.3 6.27226H6.1H5.3ZM18.1 6.27226H18.9H18.1ZM4.5 6.43361H5.3H4.5ZM4.5 6.59495H5.3H4.5ZM4.5 6.7563H5.3H4.5ZM4.5 6.91764H5.3H4.5ZM4.5 7.07899H5.3H4.5ZM4.5 7.24033H5.3H4.5ZM4.5 7.40167H5.3H4.5ZM4.5 7.56302H5.3H4.5ZM4.5 7.72436H5.3H4.5ZM4.5 7.88571H5.3H4.5Z" fill="black"/>
<path d="M10.1 2.39999H11.7M10.1 2.56134H11.7M10.1 2.72268H11.7M10.1 2.88403H11.7M10.1 3.04537H11.7M8.5 3.20672H10.1M8.5 3.36806H10.1M8.5 3.52941H10.1M8.5 3.69075H10.1M8.5 3.85209H10.1M6.9 4.01344H8.5M17.3 4.01344H18.1M6.9 4.17478H8.5M17.3 4.17478H18.1M6.9 4.33613H8.5M17.3 4.33613H18.1M6.9 4.49747H8.5M17.3 4.49747H18.1M6.9 4.65882H8.5M17.3 4.65882H18.1M6.1 4.82016H6.9M18.1 4.82016H18.9M6.1 4.98151H6.9M18.1 4.98151H18.9M6.1 5.14285H6.9M18.1 5.14285H18.9M6.1 5.3042H6.9M18.1 5.3042H18.9M6.1 5.46554H6.9M18.1 5.46554H18.9M5.3 5.62688H6.1M18.1 5.62688H18.9M5.3 5.78823H6.1M18.1 5.78823H18.9M5.3 5.94957H6.1M18.1 5.94957H18.9M5.3 6.11092H6.1M18.1 6.11092H18.9M5.3 6.27226H6.1M18.1 6.27226H18.9M4.5 6.43361H5.3M4.5 6.59495H5.3M4.5 6.7563H5.3M4.5 6.91764H5.3M4.5 7.07899H5.3M4.5 7.24033H5.3M4.5 7.40167H5.3M4.5 7.56302H5.3M4.5 7.72436H5.3M4.5 7.88571H5.3" stroke="#73172D"/>
<path d="M10.9 3.20673H11.7H10.9ZM10.9 3.36807H11.7H10.9ZM10.9 3.52942H11.7H10.9ZM10.9 3.69076H11.7H10.9ZM10.9 3.8521H11.7H10.9ZM8.50005 4.01345H9.30005H8.50005ZM15.7 4.01345H16.5H15.7ZM8.50005 4.17479H9.30005H8.50005ZM15.7 4.17479H16.5H15.7ZM8.50005 4.33614H9.30005H8.50005ZM15.7 4.33614H16.5H15.7ZM8.50005 4.49748H9.30005H8.50005ZM15.7 4.49748H16.5H15.7ZM8.50005 4.65883H9.30005H8.50005ZM15.7 4.65883H16.5H15.7ZM7.70005 4.82017H8.50005H7.70005ZM10.1 4.82017H15.7H10.1ZM16.5 4.82017H18.1H16.5ZM7.70005 4.98152H8.50005H7.70005ZM10.1 4.98152H15.7H10.1ZM16.5 4.98152H18.1H16.5ZM7.70005 5.14286H8.50005H7.70005ZM10.1 5.14286H15.7H10.1ZM16.5 5.14286H18.1H16.5ZM7.70005 5.30421H8.50005H7.70005ZM10.1 5.30421H15.7H10.1ZM16.5 5.30421H18.1H16.5ZM7.70005 5.46555H8.50005H7.70005ZM10.1 5.46555H15.7H10.1ZM16.5 5.46555H18.1H16.5ZM6.10005 5.62689H7.70005H6.10005ZM8.50005 5.62689H18.1H8.50005ZM6.10005 5.78824H7.70005H6.10005ZM8.50005 5.78824H18.1H8.50005ZM6.10005 5.94958H7.70005H6.10005ZM8.50005 5.94958H18.1H8.50005ZM6.10005 6.11093H7.70005H6.10005ZM8.50005 6.11093H18.1H8.50005ZM6.10005 6.27227H7.70005H6.10005ZM8.50005 6.27227H18.1H8.50005ZM6.10005 6.43362H10.1H6.10005ZM14.9 6.43362H17.3H14.9ZM6.10005 6.59496H10.1H6.10005ZM14.9 6.59496H17.3H14.9ZM6.10005 6.75631H10.1H6.10005ZM14.9 6.75631H17.3H14.9ZM6.10005 6.91765H10.1H6.10005ZM14.9 6.91765H17.3H14.9ZM6.10005 7.079H10.1H6.10005ZM14.9 7.079H17.3H14.9ZM5.30005 7.24034H9.30005H5.30005ZM15.7 7.24034H16.5H15.7ZM5.30005 7.40168H9.30005H5.30005ZM15.7 7.40168H16.5H15.7ZM5.30005 7.56303H9.30005H5.30005ZM15.7 7.56303H16.5H15.7ZM5.30005 7.72437H9.30005H5.30005ZM15.7 7.72437H16.5H15.7ZM5.30005 7.88572H9.30005H5.30005ZM15.7 7.88572H16.5H15.7ZM5.30005 8.04706H8.50005H5.30005ZM5.30005 8.20841H8.50005H5.30005ZM5.30005 8.36975H8.50005H5.30005ZM5.30005 8.5311H8.50005H5.30005ZM5.30005 8.69244H8.50005H5.30005ZM6.10005 8.85379H7.70005H6.10005ZM6.10005 9.01513H7.70005H6.10005ZM6.10005 9.17647H7.70005H6.10005ZM6.10005 9.33782H7.70005H6.10005ZM6.10005 9.49916H7.70005H6.10005ZM6.90005 9.66051H7.70005H6.90005ZM6.90005 9.82185H7.70005H6.90005ZM6.90005 9.9832H7.70005H6.90005ZM6.90005 10.1445H7.70005H6.90005ZM6.90005 10.3059H7.70005H6.90005Z" fill="black"/>
<path d="M10.9 3.20673H11.7M10.9 3.36807H11.7M10.9 3.52942H11.7M10.9 3.69076H11.7M10.9 3.8521H11.7M8.50005 4.01345H9.30005M15.7 4.01345H16.5M8.50005 4.17479H9.30005M15.7 4.17479H16.5M8.50005 4.33614H9.30005M15.7 4.33614H16.5M8.50005 4.49748H9.30005M15.7 4.49748H16.5M8.50005 4.65883H9.30005M15.7 4.65883H16.5M7.70005 4.82017H8.50005M10.1 4.82017H15.7M16.5 4.82017H18.1M7.70005 4.98152H8.50005M10.1 4.98152H15.7M16.5 4.98152H18.1M7.70005 5.14286H8.50005M10.1 5.14286H15.7M16.5 5.14286H18.1M7.70005 5.30421H8.50005M10.1 5.30421H15.7M16.5 5.30421H18.1M7.70005 5.46555H8.50005M10.1 5.46555H15.7M16.5 5.46555H18.1M6.10005 5.62689H7.70005M8.50005 5.62689H18.1M6.10005 5.78824H7.70005M8.50005 5.78824H18.1M6.10005 5.94958H7.70005M8.50005 5.94958H18.1M6.10005 6.11093H7.70005M8.50005 6.11093H18.1M6.10005 6.27227H7.70005M8.50005 6.27227H18.1M6.10005 6.43362H10.1M14.9 6.43362H17.3M6.10005 6.59496H10.1M14.9 6.59496H17.3M6.10005 6.75631H10.1M14.9 6.75631H17.3M6.10005 6.91765H10.1M14.9 6.91765H17.3M6.10005 7.079H10.1M14.9 7.079H17.3M5.30005 7.24034H9.30005M15.7 7.24034H16.5M5.30005 7.40168H9.30005M15.7 7.40168H16.5M5.30005 7.56303H9.30005M15.7 7.56303H16.5M5.30005 7.72437H9.30005M15.7 7.72437H16.5M5.30005 7.88572H9.30005M15.7 7.88572H16.5M5.30005 8.04706H8.50005M5.30005 8.20841H8.50005M5.30005 8.36975H8.50005M5.30005 8.5311H8.50005M5.30005 8.69244H8.50005M6.10005 8.85379H7.70005M6.10005 9.01513H7.70005M6.10005 9.17647H7.70005M6.10005 9.33782H7.70005M6.10005 9.49916H7.70005M6.90005 9.66051H7.70005M6.90005 9.82185H7.70005M6.90005 9.9832H7.70005M6.90005 10.1445H7.70005M6.90005 10.3059H7.70005" stroke="#E74036"/>
<path d="M14.9 3.20673H15.7H14.9ZM14.9 3.36807H15.7H14.9ZM14.9 3.52942H15.7H14.9ZM14.9 3.69076H15.7H14.9ZM14.9 3.8521H15.7H14.9Z" fill="black"/>
<path d="M14.9 3.20673H15.7M14.9 3.36807H15.7M14.9 3.52942H15.7M14.9 3.69076H15.7M14.9 3.8521H15.7" stroke="#E9463C"/>
<path d="M10.9 6.43361H14.1H10.9ZM18.1 6.43361H18.9H18.1ZM10.9 6.59495H14.1H10.9ZM18.1 6.59495H18.9H18.1ZM10.9 6.7563H14.1H10.9ZM18.1 6.7563H18.9H18.1ZM10.9 6.91764H14.1H10.9ZM18.1 6.91764H18.9H18.1ZM10.9 7.07899H14.1H10.9ZM18.1 7.07899H18.9H18.1ZM9.30002 7.24033H10.9H9.30002ZM14.1 7.24033H15.7H14.1ZM17.3 7.24033H18.1H17.3ZM9.30002 7.40168H10.9H9.30002ZM14.1 7.40168H15.7H14.1ZM17.3 7.40168H18.1H17.3ZM9.30002 7.56302H10.9H9.30002ZM14.1 7.56302H15.7H14.1ZM17.3 7.56302H18.1H17.3ZM9.30002 7.72437H10.9H9.30002ZM14.1 7.72437H15.7H14.1ZM17.3 7.72437H18.1H17.3ZM9.30002 7.88571H10.9H9.30002ZM14.1 7.88571H15.7H14.1ZM17.3 7.88571H18.1H17.3ZM8.50002 8.04705H9.30002H8.50002ZM15.7 8.04705H17.3H15.7ZM8.50002 8.2084H9.30002H8.50002ZM15.7 8.2084H17.3H15.7ZM8.50002 8.36974H9.30002H8.50002ZM15.7 8.36974H17.3H15.7ZM8.50002 8.53109H9.30002H8.50002ZM15.7 8.53109H17.3H15.7ZM8.50002 8.69243H9.30002H8.50002ZM15.7 8.69243H17.3H15.7ZM8.50002 8.85378H9.30002H8.50002ZM8.50002 9.01512H9.30002H8.50002ZM8.50002 9.17647H9.30002H8.50002ZM8.50002 9.33781H9.30002H8.50002ZM8.50002 9.49916H9.30002H8.50002ZM7.70002 9.6605H8.50002H7.70002ZM7.70002 9.82184H8.50002H7.70002ZM7.70002 9.98319H8.50002H7.70002ZM7.70002 10.1445H8.50002H7.70002ZM7.70002 10.3059H8.50002H7.70002ZM7.70002 10.4672H8.50002H7.70002ZM7.70002 10.6286H8.50002H7.70002ZM7.70002 10.7899H8.50002H7.70002ZM7.70002 10.9513H8.50002H7.70002ZM7.70002 11.1126H8.50002H7.70002ZM7.70002 11.2739H8.50002H7.70002ZM7.70002 11.4353H8.50002H7.70002ZM7.70002 11.5966H8.50002H7.70002ZM7.70002 11.758H8.50002H7.70002ZM7.70002 11.9193H8.50002H7.70002ZM7.70002 12.0807H8.50002H7.70002ZM7.70002 12.242H8.50002H7.70002ZM7.70002 12.4034H8.50002H7.70002ZM7.70002 12.5647H8.50002H7.70002ZM7.70002 12.726H8.50002H7.70002ZM7.70002 12.8874H8.50002H7.70002ZM11.7 12.8874H12.5H11.7ZM7.70002 13.0487H8.50002H7.70002ZM11.7 13.0487H12.5H11.7ZM7.70002 13.2101H8.50002H7.70002ZM11.7 13.2101H12.5H11.7ZM7.70002 13.3714H8.50002H7.70002ZM11.7 13.3714H12.5H11.7ZM7.70002 13.5328H8.50002H7.70002ZM11.7 13.5328H12.5H11.7ZM2.90002 13.6941H3.70002H2.90002ZM7.70002 13.6941H8.50002H7.70002ZM12.5 13.6941H17.3H12.5ZM21.3 13.6941H22.1H21.3ZM2.90002 13.8555H3.70002H2.90002ZM7.70002 13.8555H8.50002H7.70002ZM12.5 13.8555H17.3H12.5ZM21.3 13.8555H22.1H21.3ZM2.90002 14.0168H3.70002H2.90002ZM7.70002 14.0168H8.50002H7.70002ZM12.5 14.0168H17.3H12.5ZM21.3 14.0168H22.1H21.3ZM2.90002 14.1781H3.70002H2.90002ZM7.70002 14.1781H8.50002H7.70002ZM12.5 14.1781H17.3H12.5ZM21.3 14.1781H22.1H21.3ZM2.90002 14.3395H3.70002H2.90002ZM7.70002 14.3395H8.50002H7.70002ZM12.5 14.3395H17.3H12.5ZM21.3 14.3395H22.1H21.3ZM3.70002 14.5008H4.50002H3.70002ZM8.50002 14.5008H9.30002H8.50002ZM16.5 14.5008H17.3H16.5ZM21.3 14.5008H22.1H21.3ZM3.70002 14.6622H4.50002H3.70002ZM8.50002 14.6622H9.30002H8.50002ZM16.5 14.6622H17.3H16.5ZM21.3 14.6622H22.1H21.3ZM3.70002 14.8235H4.50002H3.70002ZM8.50002 14.8235H9.30002H8.50002ZM16.5 14.8235H17.3H16.5ZM21.3 14.8235H22.1H21.3ZM3.70002 14.9849H4.50002H3.70002ZM8.50002 14.9849H9.30002H8.50002ZM16.5 14.9849H17.3H16.5ZM21.3 14.9849H22.1H21.3ZM3.70002 15.1462H4.50002H3.70002ZM8.50002 15.1462H9.30002H8.50002ZM16.5 15.1462H17.3H16.5ZM21.3 15.1462H22.1H21.3ZM3.70002 15.3076H4.50002H3.70002ZM9.30002 15.3076H10.1H9.30002ZM15.7 15.3076H16.5H15.7ZM20.5 15.3076H21.3H20.5ZM3.70002 15.4689H4.50002H3.70002ZM9.30002 15.4689H10.1H9.30002ZM15.7 15.4689H16.5H15.7ZM20.5 15.4689H21.3H20.5ZM3.70002 15.6302H4.50002H3.70002ZM9.30002 15.6302H10.1H9.30002ZM15.7 15.6302H16.5H15.7ZM20.5 15.6302H21.3H20.5ZM3.70002 15.7916H4.50002H3.70002ZM9.30002 15.7916H10.1H9.30002ZM15.7 15.7916H16.5H15.7ZM20.5 15.7916H21.3H20.5ZM3.70002 15.9529H4.50002H3.70002ZM9.30002 15.9529H10.1H9.30002ZM15.7 15.9529H16.5H15.7ZM20.5 15.9529H21.3H20.5ZM4.50002 16.1143H5.30002H4.50002ZM20.5 16.1143H21.3H20.5ZM4.50002 16.2756H5.30002H4.50002ZM20.5 16.2756H21.3H20.5ZM4.50002 16.437H5.30002H4.50002ZM20.5 16.437H21.3H20.5ZM4.50002 16.5983H5.30002H4.50002ZM20.5 16.5983H21.3H20.5ZM4.50002 16.7597H5.30002H4.50002ZM20.5 16.7597H21.3H20.5ZM4.50002 16.921H5.30002H4.50002ZM19.7 16.921H20.5H19.7ZM4.50002 17.0823H5.30002H4.50002ZM19.7 17.0823H20.5H19.7ZM4.50002 17.2437H5.30002H4.50002ZM19.7 17.2437H20.5H19.7ZM4.50002 17.405H5.30002H4.50002ZM19.7 17.405H20.5H19.7ZM4.50002 17.5664H5.30002H4.50002ZM19.7 17.5664H20.5H19.7ZM5.30002 17.7277H6.10002H5.30002ZM18.9 17.7277H19.7H18.9ZM5.30002 17.8891H6.10002H5.30002ZM18.9 17.8891H19.7H18.9ZM5.30002 18.0504H6.10002H5.30002ZM18.9 18.0504H19.7H18.9ZM5.30002 18.2118H6.10002H5.30002ZM18.9 18.2118H19.7H18.9ZM5.30002 18.3731H6.10002H5.30002ZM18.9 18.3731H19.7H18.9ZM6.10002 18.5344H6.90002H6.10002ZM18.1 18.5344H18.9H18.1ZM6.10002 18.6958H6.90002H6.10002ZM18.1 18.6958H18.9H18.1ZM6.10002 18.8571H6.90002H6.10002ZM18.1 18.8571H18.9H18.1ZM6.10002 19.0185H6.90002H6.10002ZM18.1 19.0185H18.9H18.1ZM6.10002 19.1798H6.90002H6.10002ZM18.1 19.1798H18.9H18.1ZM6.90002 19.3412H8.50002H6.90002ZM17.3 19.3412H18.1H17.3ZM6.90002 19.5025H8.50002H6.90002ZM17.3 19.5025H18.1H17.3ZM6.90002 19.6639H8.50002H6.90002ZM17.3 19.6639H18.1H17.3ZM6.90002 19.8252H8.50002H6.90002ZM17.3 19.8252H18.1H17.3ZM6.90002 19.9865H8.50002H6.90002ZM17.3 19.9865H18.1H17.3ZM8.50002 20.1479H10.1H8.50002ZM15.7 20.1479H17.3H15.7ZM8.50002 20.3092H10.1H8.50002ZM15.7 20.3092H17.3H15.7ZM8.50002 20.4706H10.1H8.50002ZM15.7 20.4706H17.3H15.7ZM8.50002 20.6319H10.1H8.50002ZM15.7 20.6319H17.3H15.7ZM8.50002 20.7933H10.1H8.50002ZM15.7 20.7933H17.3H15.7ZM10.1 20.9546H15.7H10.1ZM10.1 21.116H15.7H10.1ZM10.1 21.2773H15.7H10.1ZM10.1 21.4387H15.7H10.1ZM10.1 21.6H15.7H10.1Z" fill="black"/>
<path d="M10.9 6.43361H14.1M18.1 6.43361H18.9M10.9 6.59495H14.1M18.1 6.59495H18.9M10.9 6.7563H14.1M18.1 6.7563H18.9M10.9 6.91764H14.1M18.1 6.91764H18.9M10.9 7.07899H14.1M18.1 7.07899H18.9M9.30002 7.24033H10.9M14.1 7.24033H15.7M17.3 7.24033H18.1M9.30002 7.40168H10.9M14.1 7.40168H15.7M17.3 7.40168H18.1M9.30002 7.56302H10.9M14.1 7.56302H15.7M17.3 7.56302H18.1M9.30002 7.72437H10.9M14.1 7.72437H15.7M17.3 7.72437H18.1M9.30002 7.88571H10.9M14.1 7.88571H15.7M17.3 7.88571H18.1M8.50002 8.04705H9.30002M15.7 8.04705H17.3M8.50002 8.2084H9.30002M15.7 8.2084H17.3M8.50002 8.36974H9.30002M15.7 8.36974H17.3M8.50002 8.53109H9.30002M15.7 8.53109H17.3M8.50002 8.69243H9.30002M15.7 8.69243H17.3M8.50002 8.85378H9.30002M8.50002 9.01512H9.30002M8.50002 9.17647H9.30002M8.50002 9.33781H9.30002M8.50002 9.49916H9.30002M7.70002 9.6605H8.50002M7.70002 9.82184H8.50002M7.70002 9.98319H8.50002M7.70002 10.1445H8.50002M7.70002 10.3059H8.50002M7.70002 10.4672H8.50002M7.70002 10.6286H8.50002M7.70002 10.7899H8.50002M7.70002 10.9513H8.50002M7.70002 11.1126H8.50002M7.70002 11.2739H8.50002M7.70002 11.4353H8.50002M7.70002 11.5966H8.50002M7.70002 11.758H8.50002M7.70002 11.9193H8.50002M7.70002 12.0807H8.50002M7.70002 12.242H8.50002M7.70002 12.4034H8.50002M7.70002 12.5647H8.50002M7.70002 12.726H8.50002M7.70002 12.8874H8.50002M11.7 12.8874H12.5M7.70002 13.0487H8.50002M11.7 13.0487H12.5M7.70002 13.2101H8.50002M11.7 13.2101H12.5M7.70002 13.3714H8.50002M11.7 13.3714H12.5M7.70002 13.5328H8.50002M11.7 13.5328H12.5M2.90002 13.6941H3.70002M7.70002 13.6941H8.50002M12.5 13.6941H17.3M21.3 13.6941H22.1M2.90002 13.8555H3.70002M7.70002 13.8555H8.50002M12.5 13.8555H17.3M21.3 13.8555H22.1M2.90002 14.0168H3.70002M7.70002 14.0168H8.50002M12.5 14.0168H17.3M21.3 14.0168H22.1M2.90002 14.1781H3.70002M7.70002 14.1781H8.50002M12.5 14.1781H17.3M21.3 14.1781H22.1M2.90002 14.3395H3.70002M7.70002 14.3395H8.50002M12.5 14.3395H17.3M21.3 14.3395H22.1M3.70002 14.5008H4.50002M8.50002 14.5008H9.30002M16.5 14.5008H17.3M21.3 14.5008H22.1M3.70002 14.6622H4.50002M8.50002 14.6622H9.30002M16.5 14.6622H17.3M21.3 14.6622H22.1M3.70002 14.8235H4.50002M8.50002 14.8235H9.30002M16.5 14.8235H17.3M21.3 14.8235H22.1M3.70002 14.9849H4.50002M8.50002 14.9849H9.30002M16.5 14.9849H17.3M21.3 14.9849H22.1M3.70002 15.1462H4.50002M8.50002 15.1462H9.30002M16.5 15.1462H17.3M21.3 15.1462H22.1M3.70002 15.3076H4.50002M9.30002 15.3076H10.1M15.7 15.3076H16.5M20.5 15.3076H21.3M3.70002 15.4689H4.50002M9.30002 15.4689H10.1M15.7 15.4689H16.5M20.5 15.4689H21.3M3.70002 15.6302H4.50002M9.30002 15.6302H10.1M15.7 15.6302H16.5M20.5 15.6302H21.3M3.70002 15.7916H4.50002M9.30002 15.7916H10.1M15.7 15.7916H16.5M20.5 15.7916H21.3M3.70002 15.9529H4.50002M9.30002 15.9529H10.1M15.7 15.9529H16.5M20.5 15.9529H21.3M4.50002 16.1143H5.30002M20.5 16.1143H21.3M4.50002 16.2756H5.30002M20.5 16.2756H21.3M4.50002 16.437H5.30002M20.5 16.437H21.3M4.50002 16.5983H5.30002M20.5 16.5983H21.3M4.50002 16.7597H5.30002M20.5 16.7597H21.3M4.50002 16.921H5.30002M19.7 16.921H20.5M4.50002 17.0823H5.30002M19.7 17.0823H20.5M4.50002 17.2437H5.30002M19.7 17.2437H20.5M4.50002 17.405H5.30002M19.7 17.405H20.5M4.50002 17.5664H5.30002M19.7 17.5664H20.5M5.30002 17.7277H6.10002M18.9 17.7277H19.7M5.30002 17.8891H6.10002M18.9 17.8891H19.7M5.30002 18.0504H6.10002M18.9 18.0504H19.7M5.30002 18.2118H6.10002M18.9 18.2118H19.7M5.30002 18.3731H6.10002M18.9 18.3731H19.7M6.10002 18.5344H6.90002M18.1 18.5344H18.9M6.10002 18.6958H6.90002M18.1 18.6958H18.9M6.10002 18.8571H6.90002M18.1 18.8571H18.9M6.10002 19.0185H6.90002M18.1 19.0185H18.9M6.10002 19.1798H6.90002M18.1 19.1798H18.9M6.90002 19.3412H8.50002M17.3 19.3412H18.1M6.90002 19.5025H8.50002M17.3 19.5025H18.1M6.90002 19.6639H8.50002M17.3 19.6639H18.1M6.90002 19.8252H8.50002M17.3 19.8252H18.1M6.90002 19.9865H8.50002M17.3 19.9865H18.1M8.50002 20.1479H10.1M15.7 20.1479H17.3M8.50002 20.3092H10.1M15.7 20.3092H17.3M8.50002 20.4706H10.1M15.7 20.4706H17.3M8.50002 20.6319H10.1M15.7 20.6319H17.3M8.50002 20.7933H10.1M15.7 20.7933H17.3M10.1 20.9546H15.7M10.1 21.116H15.7M10.1 21.2773H15.7M10.1 21.4387H15.7M10.1 21.6H15.7" stroke="#181425"/>
<path d="M13.3 10.4672H20.5H13.3ZM13.3 10.6286H20.5H13.3ZM13.3 10.7899H20.5H13.3ZM13.3 10.9513H20.5H13.3ZM13.3 11.1126H20.5H13.3Z" fill="black"/>
<path d="M13.3 10.4672H20.5M13.3 10.6286H20.5M13.3 10.7899H20.5M13.3 10.9513H20.5M13.3 11.1126H20.5" stroke="#52C4FF"/>
</g>
<defs>
<filter id="filter0_d_475_976" x="2.90002" y="1.89999" width="21.2" height="22.2" filterUnits="userSpaceOnUse" color-interpolation-filters="sRGB">
<feFlood flood-opacity="0" result="BackgroundImageFix"/>
<feColorMatrix in="SourceAlpha" type="matrix" values="0 0 0 0 0 0 0 0 0 0 0 0 0 0 0 0 0 0 127 0" result="hardAlpha"/>
<feOffset dx="2" dy="2"/>
<feComposite in2="hardAlpha" operator="out"/>
<feColorMatrix type="matrix" values="0 0 0 0 0.113725 0 0 0 0 0.054902 0 0 0 0 0.27451 0 0 0 1 0"/>
<feBlend mode="normal" in2="BackgroundImageFix" result="effect1_dropShadow_475_976"/>
<feBlend mode="normal" in="SourceGraphic" in2="effect1_dropShadow_475_976" result="shape"/>
</filter>
</defs>
</svg>
