<svg width="25" height="24" viewBox="0 0 25 24" fill="none" xmlns="http://www.w3.org/2000/svg">
<g filter="url(#filter0_d_475_2431)">
<path fill-rule="evenodd" clip-rule="evenodd" d="M11.9 4.20337C11.7 4.20337 11.5 4.20337 11.3 4.20337C11.1 4.20337 10.9 4.20337 10.7 4.20337C10.1 4.20337 9.50002 4.20337 8.90002 4.20337C8.7 4.20337 8.50005 4.20337 8.30002 4.20337C8.30002 4.00223 8.30002 3.80115 8.30002 3.60001C9.50002 3.60001 10.7 3.60001 11.9 3.60001C11.9 3.80115 11.9 4.00223 11.9 4.20337Z" fill="#020202"/>
<path fill-rule="evenodd" clip-rule="evenodd" d="M8.30002 4.20337C8.30002 4.40452 8.30002 4.60559 8.30002 4.80674C8.1 4.80674 7.90005 4.80674 7.70002 4.80674C7.5 4.80674 7.30005 4.80674 7.10002 4.80674C7.10002 4.60559 7.10002 4.40452 7.10002 4.20337C7.5 4.20337 7.90005 4.20337 8.30002 4.20337Z" fill="#040404"/>
<path fill-rule="evenodd" clip-rule="evenodd" d="M8.90002 4.20337C9.50002 4.20337 10.1 4.20337 10.7 4.20337C10.7 4.40452 10.7 4.60559 10.7 4.80674C10.9 4.80674 11.1 4.80674 11.3 4.80674C11.5 4.80674 11.7 4.80674 11.9 4.80674C12.1 4.80674 12.3 4.80674 12.5 4.80674C12.5 5.00789 12.5 5.20896 12.5 5.41011C12.7 5.41011 12.9 5.41011 13.1 5.41011C13.3 5.41011 13.5 5.41011 13.7 5.41011C13.9 5.41011 14.1 5.41011 14.3 5.41011C14.3 5.61126 14.3 5.81233 14.3 6.01347C14.5 6.01347 14.7 6.01347 14.9 6.01347C15.1 6.01347 15.3 6.01347 15.5 6.01347C15.5 6.21462 15.5 6.41569 15.5 6.61684C15.7 6.61684 15.9 6.61684 16.1 6.61684C16.3 6.61684 16.5 6.61684 16.7 6.61684C16.7 6.81799 16.7 7.01906 16.7 7.22021C16.9 7.22021 17.1 7.22021 17.3 7.22021C17.5 7.22021 17.7 7.22021 17.9 7.22021C17.9 7.42136 17.9 7.62243 17.9 7.82358C18.1001 7.82358 18.3 7.82358 18.5 7.82358C18.5 8.02472 18.5 8.2258 18.5 8.42694C18.7001 8.42694 18.9 8.42694 19.1 8.42694C19.1 8.62809 19.1 8.82916 19.1 9.03031C19.3001 9.03031 19.5 9.03031 19.7 9.03031C19.7 9.23146 19.7 9.43253 19.7 9.63368C19.9001 9.63368 20.1 9.63368 20.3 9.63368C20.3 9.83482 20.3 10.0359 20.3 10.237C20.1 10.237 19.9001 10.237 19.7 10.237C19.7 10.4382 19.7 10.6393 19.7 10.8404C19.3001 10.8404 18.9 10.8404 18.5 10.8404C18.5 10.6393 18.5 10.4382 18.5 10.237C18.3 10.237 18.1001 10.237 17.9 10.237C17.9 10.0359 17.9 9.83482 17.9 9.63368C17.7 9.63368 17.5 9.63368 17.3 9.63368C17.1 9.63368 16.9 9.63368 16.7 9.63368C16.7 9.43253 16.7 9.23146 16.7 9.03031C16.5 9.03031 16.3 9.03031 16.1 9.03031C16.1 8.62809 16.1 8.2258 16.1 7.82358C15.9 7.82358 15.7 7.82358 15.5 7.82358C15.5 7.62243 15.5 7.42136 15.5 7.22021C14.9 7.22021 14.3 7.22021 13.7 7.22021C13.5 7.22021 13.3 7.22021 13.1 7.22021C12.9 7.22021 12.7 7.22021 12.5 7.22021C12.5 7.01906 12.5 6.81799 12.5 6.61684C12.3 6.61684 12.1 6.61684 11.9 6.61684C11.9 6.41569 11.9 6.21462 11.9 6.01347C11.9 5.81233 11.9 5.61126 11.9 5.41011C11.7 5.41011 11.5 5.41011 11.3 5.41011C10.7 5.41011 10.1 5.41011 9.50002 5.41011C9.3 5.41011 9.10005 5.41011 8.90002 5.41011C8.90002 5.61126 8.90002 5.81233 8.90002 6.01347C8.7 6.01347 8.50005 6.01347 8.30002 6.01347C8.30002 6.21462 8.30002 6.41569 8.30002 6.61684C8.1 6.61684 7.90005 6.61684 7.70002 6.61684C7.70002 6.81799 7.70002 7.01906 7.70002 7.22021C7.30005 7.22021 6.9 7.22021 6.50002 7.22021C6.50002 7.01906 6.50002 6.81799 6.50002 6.61684C6.50002 6.41569 6.50002 6.21462 6.50002 6.01347C6.70005 6.01347 6.9 6.01347 7.10002 6.01347C7.10002 5.81233 7.10002 5.61126 7.10002 5.41011C7.30005 5.41011 7.5 5.41011 7.70002 5.41011C7.70002 5.20896 7.70002 5.00789 7.70002 4.80674C7.90005 4.80674 8.1 4.80674 8.30002 4.80674C8.50005 4.80674 8.7 4.80674 8.90002 4.80674C8.90002 4.60559 8.90002 4.40452 8.90002 4.20337Z" fill="#FCFCFC"/>
<path fill-rule="evenodd" clip-rule="evenodd" d="M11.3 4.20337C11.5 4.20337 11.7 4.20337 11.9 4.20337C11.9 4.40452 11.9 4.60559 11.9 4.80674C11.7 4.80674 11.5 4.80674 11.3 4.80674C11.3 4.60559 11.3 4.40452 11.3 4.20337Z" fill="#808080"/>
<path fill-rule="evenodd" clip-rule="evenodd" d="M11.9 4.20337C12.5 4.20337 13.1 4.20337 13.7 4.20337C13.7 4.40452 13.7 4.60559 13.7 4.80674C13.5 4.80674 13.3 4.80674 13.1 4.80674C12.9 4.80674 12.7 4.80674 12.5 4.80674C12.3 4.80674 12.1 4.80674 11.9 4.80674C11.9 4.60559 11.9 4.40452 11.9 4.20337Z" fill="#030303"/>
<path fill-rule="evenodd" clip-rule="evenodd" d="M8.30002 4.20337C8.50005 4.20337 8.7 4.20337 8.90002 4.20337C8.90002 4.40452 8.90002 4.60559 8.90002 4.80674C8.7 4.80674 8.50005 4.80674 8.30002 4.80674C8.30002 4.60559 8.30002 4.40452 8.30002 4.20337Z" fill="#808080"/>
<path fill-rule="evenodd" clip-rule="evenodd" d="M10.7 4.20337C10.9 4.20337 11.1 4.20337 11.3 4.20337C11.3 4.40452 11.3 4.60559 11.3 4.80674C11.1 4.80674 10.9 4.80674 10.7 4.80674C10.7 4.60559 10.7 4.40452 10.7 4.20337Z" fill="#C1C1C1"/>
<path fill-rule="evenodd" clip-rule="evenodd" d="M7.10002 4.80674C7.10002 5.00789 7.10002 5.20896 7.10002 5.41011C6.9 5.41011 6.70005 5.41011 6.50002 5.41011C6.50002 5.20896 6.50002 5.00789 6.50002 4.80674C6.70005 4.80674 6.9 4.80674 7.10002 4.80674Z" fill="#050505"/>
<path fill-rule="evenodd" clip-rule="evenodd" d="M13.1 4.80674C13.3 4.80674 13.5 4.80674 13.7 4.80674C13.7 5.00789 13.7 5.20896 13.7 5.41011C13.5 5.41011 13.3 5.41011 13.1 5.41011C13.1 5.20896 13.1 5.00789 13.1 4.80674Z" fill="#808080"/>
<path fill-rule="evenodd" clip-rule="evenodd" d="M13.7 4.80674C14.3 4.80674 14.9 4.80674 15.5 4.80674C15.5 5.00789 15.5 5.20896 15.5 5.41011C15.3 5.41011 15.1 5.41011 14.9 5.41011C14.7 5.41011 14.5 5.41011 14.3 5.41011C14.1 5.41011 13.9 5.41011 13.7 5.41011C13.7 5.20896 13.7 5.00789 13.7 4.80674Z" fill="#030303"/>
<path fill-rule="evenodd" clip-rule="evenodd" d="M7.10002 4.80674C7.30005 4.80674 7.5 4.80674 7.70002 4.80674C7.70002 5.00789 7.70002 5.20896 7.70002 5.41011C7.5 5.41011 7.30005 5.41011 7.10002 5.41011C7.10002 5.20896 7.10002 5.00789 7.10002 4.80674Z" fill="#808080"/>
<path fill-rule="evenodd" clip-rule="evenodd" d="M12.5 4.80674C12.7 4.80674 12.9 4.80674 13.1 4.80674C13.1 5.00789 13.1 5.20896 13.1 5.41011C12.9 5.41011 12.7 5.41011 12.5 5.41011C12.5 5.20896 12.5 5.00789 12.5 4.80674Z" fill="#C1C1C1"/>
<path fill-rule="evenodd" clip-rule="evenodd" d="M6.50002 5.41011C6.50002 5.61125 6.50002 5.81233 6.50002 6.01347C6.3 6.01347 6.10005 6.01347 5.90002 6.01347C5.90002 5.81233 5.90002 5.61126 5.90002 5.41011C6.10005 5.41011 6.3 5.41011 6.50002 5.41011Z" fill="#050505"/>
<path fill-rule="evenodd" clip-rule="evenodd" d="M6.50002 5.41011C6.70005 5.41011 6.9 5.41011 7.10002 5.41011C7.10002 5.61126 7.10002 5.81233 7.10002 6.01347C6.9 6.01347 6.70005 6.01347 6.50002 6.01347C6.50002 5.81233 6.50002 5.61125 6.50002 5.41011Z" fill="#7F7F7F"/>
<path fill-rule="evenodd" clip-rule="evenodd" d="M11.3 5.41011C11.5 5.41011 11.7 5.41011 11.9 5.41011C11.9 5.61126 11.9 5.81233 11.9 6.01347C11.7 6.01347 11.5 6.01347 11.3 6.01347C11.3 5.81233 11.3 5.61126 11.3 5.41011Z" fill="#BFBFBF"/>
<path fill-rule="evenodd" clip-rule="evenodd" d="M14.9 5.41011C15.1 5.41011 15.3 5.41011 15.5 5.41011C15.5 5.61125 15.5 5.81233 15.5 6.01347C15.3 6.01347 15.1 6.01347 14.9 6.01347C14.9 5.81233 14.9 5.61125 14.9 5.41011Z" fill="#808080"/>
<path fill-rule="evenodd" clip-rule="evenodd" d="M15.5 5.41011C15.9 5.41011 16.3 5.41011 16.7 5.41011C16.7 5.61126 16.7 5.81233 16.7 6.01347C16.5 6.01347 16.3 6.01347 16.1 6.01347C15.9 6.01347 15.7 6.01347 15.5 6.01347C15.5 5.81233 15.5 5.61125 15.5 5.41011Z" fill="#040404"/>
<path fill-rule="evenodd" clip-rule="evenodd" d="M9.50002 5.41011C9.50002 5.61126 9.50002 5.81233 9.50002 6.01347C9.3 6.01347 9.10005 6.01347 8.90002 6.01347C8.90002 5.81233 8.90002 5.61126 8.90002 5.41011C9.10005 5.41011 9.3 5.41011 9.50002 5.41011Z" fill="#C0C0C0"/>
<path fill-rule="evenodd" clip-rule="evenodd" d="M14.3 5.41011C14.5 5.41011 14.7 5.41011 14.9 5.41011C14.9 5.61125 14.9 5.81233 14.9 6.01347C14.7 6.01347 14.5 6.01347 14.3 6.01347C14.3 5.81233 14.3 5.61126 14.3 5.41011Z" fill="#C1C1C1"/>
<path fill-rule="evenodd" clip-rule="evenodd" d="M5.90002 6.01347C5.90002 6.21462 5.90002 6.41569 5.90002 6.61684C6.10005 6.61684 6.3 6.61684 6.50002 6.61684C6.50002 6.81799 6.50002 7.01906 6.50002 7.22021C6.3 7.22021 6.10005 7.22021 5.90002 7.22021C5.90002 7.62243 5.90002 8.02472 5.90002 8.42694C5.7 8.42694 5.50005 8.42694 5.30002 8.42694C5.30002 7.62243 5.30002 6.81799 5.30002 6.01347C5.50005 6.01347 5.7 6.01347 5.90002 6.01347Z" fill="#040404"/>
<path fill-rule="evenodd" clip-rule="evenodd" d="M5.90002 6.01347C6.10005 6.01347 6.3 6.01347 6.50002 6.01347C6.50002 6.21462 6.50002 6.41569 6.50002 6.61684C6.3 6.61684 6.10005 6.61684 5.90002 6.61684C5.90002 6.41569 5.90002 6.21462 5.90002 6.01347Z" fill="#7F7F7F"/>
<path fill-rule="evenodd" clip-rule="evenodd" d="M8.90002 6.01347C8.90002 6.21462 8.90002 6.41569 8.90002 6.61684C8.7 6.61684 8.50005 6.61684 8.30002 6.61684C8.30002 6.41569 8.30002 6.21462 8.30002 6.01347C8.50005 6.01347 8.7 6.01347 8.90002 6.01347Z" fill="#BFBFBF"/>
<path fill-rule="evenodd" clip-rule="evenodd" d="M9.50002 5.41011C10.1 5.41011 10.7 5.41011 11.3 5.41011C11.3 5.61126 11.3 5.81233 11.3 6.01347C11.3 6.21462 11.3 6.41569 11.3 6.61684C11.1 6.61684 10.9 6.61684 10.7 6.61684C10.7 6.41569 10.7 6.21462 10.7 6.01347C10.5 6.01347 10.3 6.01347 10.1 6.01347C10.1 6.61684 10.1 7.22021 10.1 7.82358C9.9 7.82358 9.70005 7.82358 9.50002 7.82358C9.50002 7.62243 9.50002 7.42136 9.50002 7.22021C9.10005 7.22021 8.7 7.22021 8.30002 7.22021C8.30002 7.01906 8.30002 6.81799 8.30002 6.61684C8.50005 6.61684 8.7 6.61684 8.90002 6.61684C8.90002 6.41569 8.90002 6.21462 8.90002 6.01347C9.10005 6.01347 9.3 6.01347 9.50002 6.01347C9.50002 5.81233 9.50002 5.61126 9.50002 5.41011Z" fill="#808080"/>
<path fill-rule="evenodd" clip-rule="evenodd" d="M10.7 6.61684C10.7 7.22021 10.7 7.82358 10.7 8.42694C10.9 8.42694 11.1 8.42694 11.3 8.42694C11.5 8.42694 11.7 8.42694 11.9 8.42694C11.9 8.6029 11.9 8.77893 11.9 8.95489C11.507 9.02646 11.107 9.05158 10.7 9.03031C10.3 9.03031 9.9 9.03031 9.50002 9.03031C9.3 9.03031 9.10005 9.03031 8.90002 9.03031C8.7 9.03031 8.50005 9.03031 8.30002 9.03031C8.30002 8.82916 8.30002 8.62809 8.30002 8.42694C8.50005 8.42694 8.7 8.42694 8.90002 8.42694C8.90002 8.22579 8.90002 8.02472 8.90002 7.82358C9.10005 7.82358 9.3 7.82358 9.50002 7.82358C9.70005 7.82358 9.9 7.82358 10.1 7.82358C10.1 7.22021 10.1 6.61684 10.1 6.01347C10.3 6.01347 10.5 6.01347 10.7 6.01347C10.7 6.21462 10.7 6.41569 10.7 6.61684Z" fill="#FBFBFB"/>
<path fill-rule="evenodd" clip-rule="evenodd" d="M15.5 6.01347C15.7 6.01347 15.9 6.01347 16.1 6.01347C16.1 6.21462 16.1 6.41569 16.1 6.61684C15.9 6.61684 15.7 6.61684 15.5 6.61684C15.5 6.41569 15.5 6.21462 15.5 6.01347Z" fill="#BEBEBE"/>
<path fill-rule="evenodd" clip-rule="evenodd" d="M16.1 6.01347C16.3 6.01347 16.5 6.01347 16.7 6.01347C16.7 6.21462 16.7 6.41569 16.7 6.61684C16.5 6.61684 16.3 6.61684 16.1 6.61684C16.1 6.41569 16.1 6.21462 16.1 6.01347Z" fill="#808080"/>
<path fill-rule="evenodd" clip-rule="evenodd" d="M16.7 6.01347C17.1 6.01347 17.5 6.01347 17.9 6.01347C17.9 6.21462 17.9 6.41569 17.9 6.61684C17.7 6.61684 17.5 6.61684 17.3 6.61684C17.1 6.61684 16.9 6.61684 16.7 6.61684C16.7 6.41569 16.7 6.21462 16.7 6.01347Z" fill="#040404"/>
<path fill-rule="evenodd" clip-rule="evenodd" d="M11.3 6.01347C11.5 6.01347 11.7 6.01347 11.9 6.01347C11.9 6.21462 11.9 6.41569 11.9 6.61684C11.9 6.81799 11.9 7.01906 11.9 7.22021C11.9 7.42136 11.9 7.62243 11.9 7.82358C12.1 7.82358 12.3 7.82358 12.5 7.82358C12.5 8.02472 12.5 8.22579 12.5 8.42694C12.3 8.42694 12.1 8.42694 11.9 8.42694C11.7 8.42694 11.5 8.42694 11.3 8.42694C11.3 7.82358 11.3 7.22021 11.3 6.61684C11.3 6.41569 11.3 6.21462 11.3 6.01347Z" fill="#040404"/>
<path fill-rule="evenodd" clip-rule="evenodd" d="M8.30002 6.61684C8.30002 6.81799 8.30002 7.01906 8.30002 7.22021C8.1 7.22021 7.90005 7.22021 7.70002 7.22021C7.70002 7.01906 7.70002 6.81799 7.70002 6.61684C7.90005 6.61684 8.1 6.61684 8.30002 6.61684Z" fill="#BFBFBF"/>
<path fill-rule="evenodd" clip-rule="evenodd" d="M11.9 6.61684C12.1 6.61684 12.3 6.61684 12.5 6.61684C12.5 6.81799 12.5 7.01906 12.5 7.22021C12.3 7.22021 12.1 7.22021 11.9 7.22021C11.9 7.01906 11.9 6.81799 11.9 6.61684Z" fill="#C0C0C0"/>
<path fill-rule="evenodd" clip-rule="evenodd" d="M16.7 6.61684C16.9 6.61684 17.1 6.61684 17.3 6.61684C17.3 6.81799 17.3 7.01906 17.3 7.22021C17.1 7.22021 16.9 7.22021 16.7 7.22021C16.7 7.01906 16.7 6.81799 16.7 6.61684Z" fill="#BEBEBE"/>
<path fill-rule="evenodd" clip-rule="evenodd" d="M17.3 6.61684C17.5 6.61684 17.7 6.61684 17.9 6.61684C17.9 6.81799 17.9 7.01906 17.9 7.22021C17.7 7.22021 17.5 7.22021 17.3 7.22021C17.3 7.01906 17.3 6.81799 17.3 6.61684Z" fill="#808080"/>
<path fill-rule="evenodd" clip-rule="evenodd" d="M17.9 6.61684C18.3 6.61684 18.7001 6.61684 19.1 6.61684C19.1 6.81799 19.1 7.01906 19.1 7.22021C18.9 7.22021 18.7001 7.22021 18.5 7.22021C18.3 7.22021 18.1001 7.22021 17.9 7.22021C17.9 7.01906 17.9 6.81799 17.9 6.61684Z" fill="#040404"/>
<path fill-rule="evenodd" clip-rule="evenodd" d="M10.7 6.61684C10.9 6.61684 11.1 6.61684 11.3 6.61684C11.3 7.22021 11.3 7.82358 11.3 8.42694C11.1 8.42694 10.9 8.42694 10.7 8.42694C10.7 7.82358 10.7 7.22021 10.7 6.61684Z" fill="#C0C0C0"/>
<path fill-rule="evenodd" clip-rule="evenodd" d="M6.50002 7.22021C6.50002 7.42136 6.50002 7.62243 6.50002 7.82358C6.50002 8.02472 6.50002 8.22579 6.50002 8.42694C6.3 8.42694 6.10005 8.42694 5.90002 8.42694C5.90002 8.02472 5.90002 7.62243 5.90002 7.22021C6.10005 7.22021 6.3 7.22021 6.50002 7.22021Z" fill="#F9F9F9"/>
<path fill-rule="evenodd" clip-rule="evenodd" d="M6.50002 7.22021C6.9 7.22021 7.30005 7.22021 7.70002 7.22021C7.70002 7.42136 7.70002 7.62243 7.70002 7.82358C7.5 7.82358 7.30005 7.82358 7.10002 7.82358C6.9 7.82358 6.70005 7.82358 6.50002 7.82358C6.50002 7.62243 6.50002 7.42136 6.50002 7.22021Z" fill="#040404"/>
<path fill-rule="evenodd" clip-rule="evenodd" d="M8.30002 7.22021C8.7 7.22021 9.10005 7.22021 9.50002 7.22021C9.50002 7.42136 9.50002 7.62243 9.50002 7.82358C9.3 7.82358 9.10005 7.82358 8.90002 7.82358C8.7 7.82358 8.50005 7.82358 8.30002 7.82358C8.30002 7.62243 8.30002 7.42136 8.30002 7.22021Z" fill="#030303"/>
<path fill-rule="evenodd" clip-rule="evenodd" d="M11.9 7.22021C12.1 7.22021 12.3 7.22021 12.5 7.22021C12.7 7.22021 12.9 7.22021 13.1 7.22021C13.1 7.42136 13.1 7.62243 13.1 7.82357C13.3 7.82357 13.5 7.82357 13.7 7.82357C13.7 7.62243 13.7 7.42136 13.7 7.22021C14.3 7.22021 14.9 7.22021 15.5 7.22021C15.5 7.42136 15.5 7.62243 15.5 7.82358C15.5 8.02472 15.5 8.22579 15.5 8.42694C15.3 8.42694 15.1 8.42694 14.9 8.42694C14.9 8.22579 14.9 8.02472 14.9 7.82357C14.7 7.82357 14.5 7.82357 14.3 7.82357C14.3 8.22579 14.3 8.62809 14.3 9.03031C14.1 9.03031 13.9 9.03031 13.7 9.03031C13.7 8.82916 13.7 8.62809 13.7 8.42694C13.3 8.42694 12.9 8.42694 12.5 8.42694C12.5 8.22579 12.5 8.02472 12.5 7.82358C12.3 7.82358 12.1 7.82358 11.9 7.82358C11.9 7.62243 11.9 7.42136 11.9 7.22021Z" fill="#7F7F7F"/>
<path fill-rule="evenodd" clip-rule="evenodd" d="M13.1 7.22021C13.3 7.22021 13.5 7.22021 13.7 7.22021C13.7 7.42136 13.7 7.62243 13.7 7.82357C13.5 7.82357 13.3 7.82357 13.1 7.82357C13.1 7.62243 13.1 7.42136 13.1 7.22021Z" fill="#BFBFBF"/>
<path fill-rule="evenodd" clip-rule="evenodd" d="M18.5 7.22021C18.7001 7.22021 18.9 7.22021 19.1 7.22021C19.1 7.42136 19.1 7.62243 19.1 7.82358C18.9 7.82358 18.7001 7.82358 18.5 7.82358C18.5 7.62243 18.5 7.42136 18.5 7.22021Z" fill="#818181"/>
<path fill-rule="evenodd" clip-rule="evenodd" d="M19.1 7.22021C19.3001 7.22021 19.5 7.22021 19.7 7.22021C19.7 7.42136 19.7 7.62243 19.7 7.82358C19.5 7.82358 19.3001 7.82358 19.1 7.82358C19.1 7.62243 19.1 7.42136 19.1 7.22021Z" fill="#060606"/>
<path fill-rule="evenodd" clip-rule="evenodd" d="M17.9 7.22021C18.1001 7.22021 18.3 7.22021 18.5 7.22021C18.5 7.42136 18.5 7.62243 18.5 7.82358C18.3 7.82358 18.1001 7.82358 17.9 7.82358C17.9 7.62243 17.9 7.42136 17.9 7.22021Z" fill="#BEBEBE"/>
<path fill-rule="evenodd" clip-rule="evenodd" d="M7.70002 7.22021C7.90005 7.22021 8.1 7.22021 8.30002 7.22021C8.30002 7.42136 8.30002 7.62243 8.30002 7.82358C8.1 7.82358 7.90005 7.82358 7.70002 7.82358C7.70002 7.62243 7.70002 7.42136 7.70002 7.22021Z" fill="#7F7F7F"/>
<path fill-rule="evenodd" clip-rule="evenodd" d="M6.50002 7.82358C6.70005 7.82358 6.9 7.82358 7.10002 7.82358C7.10002 8.02472 7.10002 8.2258 7.10002 8.42694C6.9 8.42694 6.70005 8.42694 6.50002 8.42694C6.50002 8.22579 6.50002 8.02472 6.50002 7.82358Z" fill="#BEBEBE"/>
<path fill-rule="evenodd" clip-rule="evenodd" d="M7.10002 7.82358C7.30005 7.82358 7.5 7.82358 7.70002 7.82358C7.70002 8.02472 7.70002 8.2258 7.70002 8.42694C7.5 8.42694 7.30005 8.42694 7.10002 8.42694C7.10002 8.2258 7.10002 8.02472 7.10002 7.82358Z" fill="#7F7F7F"/>
<path fill-rule="evenodd" clip-rule="evenodd" d="M7.70002 7.82358C7.90005 7.82358 8.1 7.82358 8.30002 7.82358C8.30002 8.02472 8.30002 8.22579 8.30002 8.42694C8.1 8.42694 7.90005 8.42694 7.70002 8.42694C7.70002 8.2258 7.70002 8.02472 7.70002 7.82358Z" fill="#050505"/>
<path fill-rule="evenodd" clip-rule="evenodd" d="M8.30002 7.82358C8.50005 7.82358 8.7 7.82358 8.90002 7.82358C8.90002 8.02472 8.90002 8.22579 8.90002 8.42694C8.7 8.42694 8.50005 8.42694 8.30002 8.42694C8.30002 8.22579 8.30002 8.02472 8.30002 7.82358Z" fill="#7F7F7F"/>
<path fill-rule="evenodd" clip-rule="evenodd" d="M14.9 8.42694C14.9 9.03031 14.9 9.63368 14.9 10.237C15.1 10.237 15.3 10.237 15.5 10.237C15.5 10.4382 15.5 10.6393 15.5 10.8404C15.5 11.2426 15.5 11.6449 15.5 12.0471C15.3 12.0471 15.1 12.0471 14.9 12.0471C14.9 12.2483 14.9 12.4494 14.9 12.6505C14.7 12.6505 14.5 12.6505 14.3 12.6505C14.3 12.8517 14.3 13.0527 14.3 13.2539C14.1 13.2539 13.9 13.2539 13.7 13.2539C13.7 13.455 13.7 13.6561 13.7 13.8572C13.5 13.8572 13.3 13.8572 13.1 13.8572C13.1 14.0584 13.1 14.2595 13.1 14.4606C12.9 14.4606 12.7 14.4606 12.5 14.4606C12.5 14.6618 12.5 14.8628 12.5 15.064C12.3 15.064 12.1 15.064 11.9 15.064C11.9 15.2651 11.9 15.4662 11.9 15.6673C11.7 15.6673 11.5 15.6673 11.3 15.6673C11.3 15.8685 11.3 16.0696 11.3 16.2707C10.7 16.2707 10.1 16.2707 9.50002 16.2707C9.50002 16.0696 9.50002 15.8685 9.50002 15.6673C9.10005 15.6673 8.7 15.6673 8.30002 15.6673C8.30002 15.4662 8.30002 15.2651 8.30002 15.064C7.90005 15.064 7.5 15.064 7.10002 15.064C7.10002 14.8628 7.10002 14.6618 7.10002 14.4606C6.70005 14.4606 6.3 14.4606 5.90002 14.4606C5.90002 14.2595 5.90002 14.0584 5.90002 13.8572C5.50005 13.8572 5.1 13.8572 4.70002 13.8572C4.70002 13.6561 4.70002 13.455 4.70002 13.2539C4.5 13.2539 4.30005 13.2539 4.10002 13.2539C4.10002 13.0527 4.10002 12.8517 4.10002 12.6505C4.30005 12.6505 4.5 12.6505 4.70002 12.6505C4.70002 12.4494 4.70002 12.2483 4.70002 12.0471C4.90005 12.0471 5.1 12.0471 5.30002 12.0471C5.30002 11.846 5.30002 11.6449 5.30002 11.4438C5.50005 11.4438 5.7 11.4438 5.90002 11.4438C5.90002 11.2426 5.90002 11.0416 5.90002 10.8404C6.10005 10.8404 6.3 10.8404 6.50002 10.8404C6.50002 11.4438 6.50002 12.0471 6.50002 12.6505C6.70005 12.6505 6.9 12.6505 7.10002 12.6505C7.10002 12.8517 7.10002 13.0527 7.10002 13.2539C7.30005 13.2539 7.5 13.2539 7.70002 13.2539C7.70002 13.455 7.70002 13.6561 7.70002 13.8572C7.90005 13.8572 8.1 13.8572 8.30002 13.8572C8.30002 14.0584 8.30002 14.2595 8.30002 14.4606C8.50005 14.4606 8.7 14.4606 8.90002 14.4606C9.50002 14.4606 10.1 14.4606 10.7 14.4606C10.9 14.4606 11.1 14.4606 11.3 14.4606C11.5 14.4606 11.7 14.4606 11.9 14.4606C11.9 14.2595 11.9 14.0584 11.9 13.8572C12.1 13.8572 12.3 13.8572 12.5 13.8572C12.5 13.6561 12.5 13.455 12.5 13.2539C12.7 13.2539 12.9 13.2539 13.1 13.2539C13.1 13.0527 13.1 12.8517 13.1 12.6505C13.1 12.2483 13.1 11.846 13.1 11.4438C13.1 11.2426 13.1 11.0416 13.1 10.8404C13.1 10.6393 13.1 10.4382 13.1 10.237C12.9 10.237 12.7 10.237 12.5 10.237C12.5 10.0359 12.5 9.83482 12.5 9.63368C12.3 9.63368 12.1 9.63368 11.9 9.63368C11.9 9.43253 11.9 9.23146 11.9 9.03031C12.1 9.03031 12.3 9.03031 12.5 9.03031C12.7 9.03031 12.9 9.03031 13.1 9.03031C13.1 9.23146 13.1 9.43253 13.1 9.63368C13.3 9.63368 13.5 9.63368 13.7 9.63368C13.9 9.63368 14.1 9.63368 14.3 9.63368C14.3 9.43253 14.3 9.23146 14.3 9.03031C14.3 8.62809 14.3 8.22579 14.3 7.82357C14.5 7.82357 14.7 7.82357 14.9 7.82357C14.9 8.02472 14.9 8.22579 14.9 8.42694Z" fill="#FCFCFC"/>
<path fill-rule="evenodd" clip-rule="evenodd" d="M15.5 7.82358C15.7 7.82358 15.9 7.82358 16.1 7.82358C16.1 8.2258 16.1 8.62809 16.1 9.03031C16.3 9.03031 16.5 9.03031 16.7 9.03031C16.7 9.23146 16.7 9.43253 16.7 9.63368C16.5 9.63368 16.3 9.63368 16.1 9.63368C16.1 9.83482 16.1 10.0359 16.1 10.237C15.9 10.237 15.7 10.237 15.5 10.237C15.5 9.63368 15.5 9.03031 15.5 8.42694C15.5 8.22579 15.5 8.02472 15.5 7.82358Z" fill="#040404"/>
<path fill-rule="evenodd" clip-rule="evenodd" d="M19.7 7.82358C19.9001 7.82358 20.1 7.82358 20.3 7.82358C20.3 8.02472 20.3 8.2258 20.3 8.42694C20.1 8.42694 19.9001 8.42694 19.7 8.42694C19.7 8.2258 19.7 8.02472 19.7 7.82358Z" fill="#060606"/>
<path fill-rule="evenodd" clip-rule="evenodd" d="M18.5 7.82358C18.7001 7.82358 18.9 7.82358 19.1 7.82358C19.1 8.02472 19.1 8.2258 19.1 8.42694C18.9 8.42694 18.7001 8.42694 18.5 8.42694C18.5 8.2258 18.5 8.02472 18.5 7.82358Z" fill="#C0C0C0"/>
<path fill-rule="evenodd" clip-rule="evenodd" d="M19.1 7.82358C19.3001 7.82358 19.5 7.82358 19.7 7.82358C19.7 8.02472 19.7 8.2258 19.7 8.42694C19.5 8.42694 19.3001 8.42694 19.1 8.42694C19.1 8.2258 19.1 8.02472 19.1 7.82358Z" fill="#818181"/>
<path fill-rule="evenodd" clip-rule="evenodd" d="M5.90002 8.42694C6.10005 8.42694 6.3 8.42694 6.50002 8.42694C6.50002 8.62809 6.50002 8.82916 6.50002 9.03031C6.3 9.03031 6.10005 9.03031 5.90002 9.03031C5.90002 8.82916 5.90002 8.62809 5.90002 8.42694Z" fill="#060606"/>
<path fill-rule="evenodd" clip-rule="evenodd" d="M7.10002 8.42694C7.30005 8.42694 7.5 8.42694 7.70002 8.42694C7.70002 8.62809 7.70002 8.82916 7.70002 9.03031C7.5 9.03031 7.30005 9.03031 7.10002 9.03031C7.10002 8.82916 7.10002 8.62809 7.10002 8.42694Z" fill="#050505"/>
<path fill-rule="evenodd" clip-rule="evenodd" d="M7.70002 8.42694C7.90005 8.42694 8.1 8.42694 8.30002 8.42694C8.30002 8.62809 8.30002 8.82916 8.30002 9.03031C8.1 9.03031 7.90005 9.03031 7.70002 9.03031C7.70002 8.82916 7.70002 8.62809 7.70002 8.42694Z" fill="#7F7F7F"/>
<path fill-rule="evenodd" clip-rule="evenodd" d="M11.9 8.42694C12.1 8.42694 12.3 8.42694 12.5 8.42694C12.5 8.62809 12.5 8.82916 12.5 9.03031C12.3 9.03031 12.1 9.03031 11.9 9.03031C11.9 9.00519 11.9 8.98 11.9 8.95489C11.9 8.77893 11.9 8.6029 11.9 8.42694Z" fill="#7E7E7E"/>
<path fill-rule="evenodd" clip-rule="evenodd" d="M12.5 8.42694C12.9 8.42694 13.3 8.42694 13.7 8.42694C13.7 8.62809 13.7 8.82916 13.7 9.03031C13.5 9.03031 13.3 9.03031 13.1 9.03031C12.9 9.03031 12.7 9.03031 12.5 9.03031C12.5 8.82916 12.5 8.62809 12.5 8.42694Z" fill="#030303"/>
<path fill-rule="evenodd" clip-rule="evenodd" d="M20.3 8.42694C20.5001 8.42694 20.7 8.42694 20.9 8.42694C20.9 8.62809 20.9 8.82916 20.9 9.03031C20.7 9.03031 20.5001 9.03031 20.3 9.03031C20.3 8.82916 20.3 8.62809 20.3 8.42694Z" fill="#060606"/>
<path fill-rule="evenodd" clip-rule="evenodd" d="M6.50002 8.42694C6.70005 8.42694 6.9 8.42694 7.10002 8.42694C7.10002 8.62809 7.10002 8.82916 7.10002 9.03031C6.9 9.03031 6.70005 9.03031 6.50002 9.03031C6.50002 8.82916 6.50002 8.62809 6.50002 8.42694Z" fill="#7E7E7E"/>
<path fill-rule="evenodd" clip-rule="evenodd" d="M19.1 8.42694C19.3001 8.42694 19.5 8.42694 19.7 8.42694C19.7 8.62809 19.7 8.82916 19.7 9.03031C19.5 9.03031 19.3001 9.03031 19.1 9.03031C19.1 8.82916 19.1 8.62809 19.1 8.42694Z" fill="#C0C0C0"/>
<path fill-rule="evenodd" clip-rule="evenodd" d="M19.7 8.42694C19.9001 8.42694 20.1 8.42694 20.3 8.42694C20.3 8.62809 20.3 8.82916 20.3 9.03031C20.1 9.03031 19.9001 9.03031 19.7 9.03031C19.7 8.82916 19.7 8.62809 19.7 8.42694Z" fill="#818181"/>
<path fill-rule="evenodd" clip-rule="evenodd" d="M14.9 8.42694C15.1 8.42694 15.3 8.42694 15.5 8.42694C15.5 9.03031 15.5 9.63368 15.5 10.237C15.3 10.237 15.1 10.237 14.9 10.237C14.9 9.63368 14.9 9.03031 14.9 8.42694Z" fill="#C0C0C0"/>
<path fill-rule="evenodd" clip-rule="evenodd" d="M6.50002 9.03031C6.70005 9.03031 6.9 9.03031 7.10002 9.03031C7.10002 9.23146 7.10002 9.43253 7.10002 9.63368C6.9 9.63368 6.70005 9.63368 6.50002 9.63368C6.50002 9.43253 6.50002 9.23146 6.50002 9.03031Z" fill="#050505"/>
<path fill-rule="evenodd" clip-rule="evenodd" d="M7.10002 9.03031C7.30005 9.03031 7.5 9.03031 7.70002 9.03031C7.70002 9.23146 7.70002 9.43253 7.70002 9.63368C7.5 9.63368 7.30005 9.63368 7.10002 9.63368C7.10002 9.43253 7.10002 9.23146 7.10002 9.03031Z" fill="#7F7F7F"/>
<path fill-rule="evenodd" clip-rule="evenodd" d="M7.70002 9.03031C7.90005 9.03031 8.1 9.03031 8.30002 9.03031C8.30002 9.23146 8.30002 9.43253 8.30002 9.63368C8.1 9.63368 7.90005 9.63368 7.70002 9.63368C7.70002 9.43253 7.70002 9.23146 7.70002 9.03031Z" fill="#FAFAFA"/>
<path fill-rule="evenodd" clip-rule="evenodd" d="M8.30002 9.03031C8.50005 9.03031 8.7 9.03031 8.90002 9.03031C8.88345 9.2399 8.90842 9.44105 8.97502 9.63368C8.95005 9.63368 8.925 9.63368 8.90002 9.63368C8.7 9.63368 8.50005 9.63368 8.30002 9.63368C8.30002 9.43253 8.30002 9.23146 8.30002 9.03031Z" fill="#C0C0C0"/>
<path fill-rule="evenodd" clip-rule="evenodd" d="M9.50002 9.03031C9.9 9.03031 10.3 9.03031 10.7 9.03031C10.7 9.23146 10.7 9.43253 10.7 9.63368C10.3 9.63368 9.9 9.63368 9.50002 9.63368C9.50002 9.43253 9.50002 9.23146 9.50002 9.03031Z" fill="#030303"/>
<path fill-rule="evenodd" clip-rule="evenodd" d="M13.7 9.03031C13.9 9.03031 14.1 9.03031 14.3 9.03031C14.3 9.23146 14.3 9.43253 14.3 9.63368C14.1 9.63368 13.9 9.63368 13.7 9.63368C13.7 9.43253 13.7 9.23146 13.7 9.03031Z" fill="#050505"/>
<path fill-rule="evenodd" clip-rule="evenodd" d="M20.9 9.03031C21.1001 9.03031 21.3 9.03031 21.5 9.03031C21.5 9.23146 21.5 9.43253 21.5 9.63368C21.3 9.63368 21.1001 9.63368 20.9 9.63368C20.9 9.43253 20.9 9.23146 20.9 9.03031Z" fill="#060606"/>
<path fill-rule="evenodd" clip-rule="evenodd" d="M11.9 8.95489C11.9 8.98 11.9 9.00519 11.9 9.03031C11.9 9.23146 11.9 9.43253 11.9 9.63368C11.5 9.63368 11.1 9.63368 10.7 9.63368C10.7 9.43253 10.7 9.23146 10.7 9.03031C11.107 9.05158 11.507 9.02646 11.9 8.95489Z" fill="#BFBFBF"/>
<path fill-rule="evenodd" clip-rule="evenodd" d="M19.7 9.03031C19.9001 9.03031 20.1 9.03031 20.3 9.03031C20.3 9.23146 20.3 9.43253 20.3 9.63368C20.1 9.63368 19.9001 9.63368 19.7 9.63368C19.7 9.43253 19.7 9.23146 19.7 9.03031Z" fill="#C0C0C0"/>
<path fill-rule="evenodd" clip-rule="evenodd" d="M20.3 9.03031C20.5001 9.03031 20.7 9.03031 20.9 9.03031C20.9 9.23146 20.9 9.43253 20.9 9.63368C20.7 9.63368 20.5001 9.63368 20.3 9.63368C20.3 9.43253 20.3 9.23146 20.3 9.03031Z" fill="#818181"/>
<path fill-rule="evenodd" clip-rule="evenodd" d="M8.90002 9.03031C9.10005 9.03031 9.3 9.03031 9.50002 9.03031C9.50002 9.23146 9.50002 9.43253 9.50002 9.63368C9.32505 9.63368 9.15 9.63368 8.97502 9.63368C8.90842 9.44105 8.88345 9.2399 8.90002 9.03031Z" fill="#7F7F7F"/>
<path fill-rule="evenodd" clip-rule="evenodd" d="M13.1 9.03031C13.3 9.03031 13.5 9.03031 13.7 9.03031C13.7 9.23146 13.7 9.43253 13.7 9.63368C13.5 9.63368 13.3 9.63368 13.1 9.63368C13.1 9.43253 13.1 9.23146 13.1 9.03031Z" fill="#7E7E7E"/>
<path fill-rule="evenodd" clip-rule="evenodd" d="M6.50002 9.63368C6.50002 9.83482 6.50002 10.0359 6.50002 10.237C6.3 10.237 6.10005 10.237 5.90002 10.237C5.90002 10.0359 5.90002 9.83482 5.90002 9.63368C6.10005 9.63368 6.3 9.63368 6.50002 9.63368Z" fill="#050505"/>
<path fill-rule="evenodd" clip-rule="evenodd" d="M6.50002 9.63368C6.70005 9.63368 6.9 9.63368 7.10002 9.63368C7.10002 9.83482 7.10002 10.0359 7.10002 10.237C6.9 10.237 6.70005 10.237 6.50002 10.237C6.50002 10.0359 6.50002 9.83482 6.50002 9.63368Z" fill="#7F7F7F"/>
<path fill-rule="evenodd" clip-rule="evenodd" d="M7.10002 9.63368C7.30005 9.63368 7.5 9.63368 7.70002 9.63368C7.70002 9.83482 7.70002 10.0359 7.70002 10.237C7.5 10.237 7.30005 10.237 7.10002 10.237C7.10002 10.0359 7.10002 9.83482 7.10002 9.63368Z" fill="#F9F9F9"/>
<path fill-rule="evenodd" clip-rule="evenodd" d="M7.70002 9.63368C7.90005 9.63368 8.1 9.63368 8.30002 9.63368C8.50005 9.63368 8.7 9.63368 8.90002 9.63368C8.90002 9.83482 8.90002 10.0359 8.90002 10.237C8.50005 10.237 8.1 10.237 7.70002 10.237C7.70002 10.0359 7.70002 9.83482 7.70002 9.63368Z" fill="#040404"/>
<path fill-rule="evenodd" clip-rule="evenodd" d="M8.90002 9.63368C8.925 9.63368 8.95005 9.63368 8.97502 9.63368C9.15 9.63368 9.32505 9.63368 9.50002 9.63368C9.9 9.63368 10.3 9.63368 10.7 9.63368C10.7 9.83482 10.7 10.0359 10.7 10.237C10.5 10.237 10.3 10.237 10.1 10.237C9.9 10.237 9.70005 10.237 9.50002 10.237C9.3 10.237 9.10005 10.237 8.90002 10.237C8.90002 10.0359 8.90002 9.83482 8.90002 9.63368Z" fill="#FAFAFA"/>
<path fill-rule="evenodd" clip-rule="evenodd" d="M10.7 9.63368C11.1 9.63368 11.5 9.63368 11.9 9.63368C11.9 9.83482 11.9 10.0359 11.9 10.237C11.5 10.237 11.1 10.237 10.7 10.237C10.7 10.0359 10.7 9.83482 10.7 9.63368Z" fill="#030303"/>
<path fill-rule="evenodd" clip-rule="evenodd" d="M17.3 9.63368C17.5 9.63368 17.7 9.63368 17.9 9.63368C17.9 9.83482 17.9 10.0359 17.9 10.237C17.7 10.237 17.5 10.237 17.3 10.237C17.3 10.0359 17.3 9.83482 17.3 9.63368Z" fill="#BFBFBF"/>
<path fill-rule="evenodd" clip-rule="evenodd" d="M21.5 9.63368C21.7001 9.63368 21.9 9.63368 22.1 9.63368C22.1 11.2426 22.1 12.8517 22.1 14.4606C21.9 14.4606 21.7001 14.4606 21.5 14.4606C21.5 14.0584 21.5 13.6561 21.5 13.2539C21.3 13.2539 21.1001 13.2539 20.9 13.2539C20.9 13.0527 20.9 12.8517 20.9 12.6505C21.1001 12.6505 21.3 12.6505 21.5 12.6505C21.5 11.6449 21.5 10.6393 21.5 9.63368Z" fill="#020202"/>
<path fill-rule="evenodd" clip-rule="evenodd" d="M16.7 9.63368C16.9 9.63368 17.1 9.63368 17.3 9.63368C17.3 9.83482 17.3 10.0359 17.3 10.237C17.3 11.0416 17.3 11.846 17.3 12.6505C17.1 12.6505 16.9 12.6505 16.7 12.6505C16.7 13.0527 16.7 13.455 16.7 13.8572C16.5 13.8572 16.3 13.8572 16.1 13.8572C16.1 13.2539 16.1 12.6505 16.1 12.0471C16.1 11.846 16.1 11.6449 16.1 11.4438C16.3 11.4438 16.5 11.4438 16.7 11.4438C16.7 11.0416 16.7 10.6393 16.7 10.237C16.7 10.0359 16.7 9.83482 16.7 9.63368Z" fill="#020202"/>
<path fill-rule="evenodd" clip-rule="evenodd" d="M16.7 9.63368C16.7 9.83482 16.7 10.0359 16.7 10.237C16.5 10.237 16.3 10.237 16.1 10.237C16.1 10.0359 16.1 9.83482 16.1 9.63368C16.3 9.63368 16.5 9.63368 16.7 9.63368Z" fill="#808080"/>
<path fill-rule="evenodd" clip-rule="evenodd" d="M20.3 9.63368C20.5001 9.63368 20.7 9.63368 20.9 9.63368C20.9 10.0359 20.9 10.4382 20.9 10.8404C20.5001 10.8404 20.1 10.8404 19.7 10.8404C19.7 10.6393 19.7 10.4382 19.7 10.237C19.9001 10.237 20.1 10.237 20.3 10.237C20.3 10.0359 20.3 9.83482 20.3 9.63368Z" fill="#BFBFBF"/>
<path fill-rule="evenodd" clip-rule="evenodd" d="M20.9 9.63368C21.1001 9.63368 21.3 9.63368 21.5 9.63368C21.5 10.6393 21.5 11.6449 21.5 12.6505C21.3 12.6505 21.1001 12.6505 20.9 12.6505C20.9 12.8517 20.9 13.0527 20.9 13.2539C20.5001 13.2539 20.1 13.2539 19.7 13.2539C19.7 12.4494 19.7 11.6449 19.7 10.8404C20.1 10.8404 20.5001 10.8404 20.9 10.8404C20.9 10.4382 20.9 10.0359 20.9 9.63368Z" fill="#808080"/>
<path fill-rule="evenodd" clip-rule="evenodd" d="M11.9 9.63368C12.1 9.63368 12.3 9.63368 12.5 9.63368C12.5 9.83482 12.5 10.0359 12.5 10.237C12.5 10.4382 12.5 10.6393 12.5 10.8404C12.3 10.8404 12.1 10.8404 11.9 10.8404C11.9 10.6393 11.9 10.4382 11.9 10.237C11.9 10.0359 11.9 9.83482 11.9 9.63368Z" fill="#808080"/>
<path fill-rule="evenodd" clip-rule="evenodd" d="M5.90002 10.237C5.90002 10.4382 5.90002 10.6393 5.90002 10.8404C5.7 10.8404 5.50005 10.8404 5.30002 10.8404C5.30002 10.6393 5.30002 10.4382 5.30002 10.237C5.50005 10.237 5.7 10.237 5.90002 10.237Z" fill="#050505"/>
<path fill-rule="evenodd" clip-rule="evenodd" d="M5.90002 10.237C6.10005 10.237 6.3 10.237 6.50002 10.237C6.50002 10.4382 6.50002 10.6393 6.50002 10.8404C6.3 10.8404 6.10005 10.8404 5.90002 10.8404C5.90002 10.6393 5.90002 10.4382 5.90002 10.237Z" fill="#7F7F7F"/>
<path fill-rule="evenodd" clip-rule="evenodd" d="M6.50002 10.237C6.70005 10.237 6.9 10.237 7.10002 10.237C7.10002 10.4382 7.10002 10.6393 7.10002 10.8404C6.9 10.8404 6.70005 10.8404 6.50002 10.8404C6.50002 10.6393 6.50002 10.4382 6.50002 10.237Z" fill="#FAFAFA"/>
<path fill-rule="evenodd" clip-rule="evenodd" d="M7.70002 10.237C8.1 10.237 8.50005 10.237 8.90002 10.237C8.90002 10.4382 8.90002 10.6393 8.90002 10.8404C8.90002 11.0416 8.90002 11.2426 8.90002 11.4438C8.90002 11.6449 8.90002 11.846 8.90002 12.0471C9.10005 12.0471 9.3 12.0471 9.50002 12.0471C9.70005 12.0471 9.9 12.0471 10.1 12.0471C10.3 12.0471 10.5 12.0471 10.7 12.0471C10.7 12.2483 10.7 12.4494 10.7 12.6505C10.5 12.6505 10.3 12.6505 10.1 12.6505C9.70005 12.6505 9.3 12.6505 8.90002 12.6505C8.7 12.6505 8.50005 12.6505 8.30002 12.6505C8.30002 12.4494 8.30002 12.2483 8.30002 12.0471C7.90005 12.0471 7.5 12.0471 7.10002 12.0471C7.10002 11.846 7.10002 11.6449 7.10002 11.4438C7.5 11.4438 7.90005 11.4438 8.30002 11.4438C8.30002 11.2426 8.30002 11.0416 8.30002 10.8404C8.1 10.8404 7.90005 10.8404 7.70002 10.8404C7.70002 10.6393 7.70002 10.4382 7.70002 10.237Z" fill="#FAFAFA"/>
<path fill-rule="evenodd" clip-rule="evenodd" d="M9.50002 10.237C9.70005 10.237 9.9 10.237 10.1 10.237C10.1 10.4382 10.1 10.6393 10.1 10.8404C9.9 10.8404 9.70005 10.8404 9.50002 10.8404C9.50002 10.6393 9.50002 10.4382 9.50002 10.237Z" fill="#050505"/>
<path fill-rule="evenodd" clip-rule="evenodd" d="M10.7 10.237C11.1 10.237 11.5 10.237 11.9 10.237C11.9 10.4382 11.9 10.6393 11.9 10.8404C11.7 10.8404 11.5 10.8404 11.3 10.8404C11.3 11.0416 11.3 11.2426 11.3 11.4438C11.3 11.6449 11.3 11.846 11.3 12.0471C11.1 12.0471 10.9 12.0471 10.7 12.0471C10.7 11.846 10.7 11.6449 10.7 11.4438C10.7 11.2426 10.7 11.0416 10.7 10.8404C10.7 10.6393 10.7 10.4382 10.7 10.237Z" fill="#FAFAFA"/>
<path fill-rule="evenodd" clip-rule="evenodd" d="M12.5 10.237C12.7 10.237 12.9 10.237 13.1 10.237C13.1 10.4382 13.1 10.6393 13.1 10.8404C12.9 10.8404 12.7 10.8404 12.5 10.8404C12.5 10.6393 12.5 10.4382 12.5 10.237Z" fill="#C0C0C0"/>
<path fill-rule="evenodd" clip-rule="evenodd" d="M17.9 10.237C18.1001 10.237 18.3 10.237 18.5 10.237C18.5 10.4382 18.5 10.6393 18.5 10.8404C18.3 10.8404 18.1001 10.8404 17.9 10.8404C17.9 10.6393 17.9 10.4382 17.9 10.237Z" fill="#C0C0C0"/>
<path fill-rule="evenodd" clip-rule="evenodd" d="M15.5 10.237C15.7 10.237 15.9 10.237 16.1 10.237C16.1 10.4382 16.1 10.6393 16.1 10.8404C15.9 10.8404 15.7 10.8404 15.5 10.8404C15.5 10.6393 15.5 10.4382 15.5 10.237Z" fill="#818181"/>
<path fill-rule="evenodd" clip-rule="evenodd" d="M17.3 10.237C17.5 10.237 17.7 10.237 17.9 10.237C17.9 10.4382 17.9 10.6393 17.9 10.8404C18.1001 10.8404 18.3 10.8404 18.5 10.8404C18.5 11.6449 18.5 12.4494 18.5 13.2539C18.3 13.2539 18.1001 13.2539 17.9 13.2539C17.9 13.0527 17.9 12.8517 17.9 12.6505C17.7 12.6505 17.5 12.6505 17.3 12.6505C17.3 11.846 17.3 11.0416 17.3 10.237Z" fill="#FCFCFC"/>
<path fill-rule="evenodd" clip-rule="evenodd" d="M7.10002 10.237C7.30005 10.237 7.5 10.237 7.70002 10.237C7.70002 10.4382 7.70002 10.6393 7.70002 10.8404C7.5 10.8404 7.30005 10.8404 7.10002 10.8404C7.10002 10.6393 7.10002 10.4382 7.10002 10.237Z" fill="#808080"/>
<path fill-rule="evenodd" clip-rule="evenodd" d="M10.1 10.237C10.3 10.237 10.5 10.237 10.7 10.237C10.7 10.4382 10.7 10.6393 10.7 10.8404C10.5 10.8404 10.3 10.8404 10.1 10.8404C10.1 10.6393 10.1 10.4382 10.1 10.237Z" fill="#808080"/>
<path fill-rule="evenodd" clip-rule="evenodd" d="M8.90002 10.237C9.10005 10.237 9.3 10.237 9.50002 10.237C9.50002 10.4382 9.50002 10.6393 9.50002 10.8404C9.3 10.8404 9.10005 10.8404 8.90002 10.8404C8.90002 10.6393 8.90002 10.4382 8.90002 10.237Z" fill="#7F7F7F"/>
<path fill-rule="evenodd" clip-rule="evenodd" d="M5.30002 10.8404C5.30002 11.0416 5.30002 11.2426 5.30002 11.4438C5.1 11.4438 4.90005 11.4438 4.70002 11.4438C4.70002 11.2426 4.70002 11.0416 4.70002 10.8404C4.90005 10.8404 5.1 10.8404 5.30002 10.8404Z" fill="#050505"/>
<path fill-rule="evenodd" clip-rule="evenodd" d="M5.30002 10.8404C5.50005 10.8404 5.7 10.8404 5.90002 10.8404C5.90002 11.0416 5.90002 11.2426 5.90002 11.4438C5.7 11.4438 5.50005 11.4438 5.30002 11.4438C5.30002 11.2426 5.30002 11.0416 5.30002 10.8404Z" fill="#7F7F7F"/>
<path fill-rule="evenodd" clip-rule="evenodd" d="M7.10002 10.8404C7.30005 10.8404 7.5 10.8404 7.70002 10.8404C7.90005 10.8404 8.1 10.8404 8.30002 10.8404C8.30002 11.0416 8.30002 11.2426 8.30002 11.4438C7.90005 11.4438 7.5 11.4438 7.10002 11.4438C7.10002 11.2426 7.10002 11.0416 7.10002 10.8404Z" fill="#050505"/>
<path fill-rule="evenodd" clip-rule="evenodd" d="M8.90002 10.8404C9.10005 10.8404 9.3 10.8404 9.50002 10.8404C9.50002 11.0416 9.50002 11.2426 9.50002 11.4438C9.3 11.4438 9.10005 11.4438 8.90002 11.4438C8.90002 11.2426 8.90002 11.0416 8.90002 10.8404Z" fill="#050505"/>
<path fill-rule="evenodd" clip-rule="evenodd" d="M9.50002 10.8404C9.70005 10.8404 9.9 10.8404 10.1 10.8404C10.1 11.0416 10.1 11.2426 10.1 11.4438C9.9 11.4438 9.70005 11.4438 9.50002 11.4438C9.50002 11.2426 9.50002 11.0416 9.50002 10.8404Z" fill="#7F7F7F"/>
<path fill-rule="evenodd" clip-rule="evenodd" d="M10.1 10.8404C10.3 10.8404 10.5 10.8404 10.7 10.8404C10.7 11.0416 10.7 11.2426 10.7 11.4438C10.5 11.4438 10.3 11.4438 10.1 11.4438C10.1 11.2426 10.1 11.0416 10.1 10.8404Z" fill="#050505"/>
<path fill-rule="evenodd" clip-rule="evenodd" d="M11.9 10.8404C12.1 10.8404 12.3 10.8404 12.5 10.8404C12.5 11.0416 12.5 11.2426 12.5 11.4438C12.1 11.4438 11.7 11.4438 11.3 11.4438C11.3 11.2426 11.3 11.0416 11.3 10.8404C11.5 10.8404 11.7 10.8404 11.9 10.8404Z" fill="#040404"/>
<path fill-rule="evenodd" clip-rule="evenodd" d="M12.5 10.8404C12.7 10.8404 12.9 10.8404 13.1 10.8404C13.1 11.0416 13.1 11.2426 13.1 11.4438C12.9 11.4438 12.7 11.4438 12.5 11.4438C12.5 11.2426 12.5 11.0416 12.5 10.8404Z" fill="#808080"/>
<path fill-rule="evenodd" clip-rule="evenodd" d="M18.5 10.8404C18.9 10.8404 19.3001 10.8404 19.7 10.8404C19.7 11.6449 19.7 12.4494 19.7 13.2539C19.3001 13.2539 18.9 13.2539 18.5 13.2539C18.5 12.4494 18.5 11.6449 18.5 10.8404Z" fill="#C0C0C0"/>
<path fill-rule="evenodd" clip-rule="evenodd" d="M6.50002 10.8404C6.70005 10.8404 6.9 10.8404 7.10002 10.8404C7.10002 11.0416 7.10002 11.2426 7.10002 11.4438C7.10002 11.6449 7.10002 11.846 7.10002 12.0471C7.10002 12.2483 7.10002 12.4494 7.10002 12.6505C6.9 12.6505 6.70005 12.6505 6.50002 12.6505C6.50002 12.0471 6.50002 11.4438 6.50002 10.8404Z" fill="#C0C0C0"/>
<path fill-rule="evenodd" clip-rule="evenodd" d="M16.1 10.237C16.3 10.237 16.5 10.237 16.7 10.237C16.7 10.6393 16.7 11.0416 16.7 11.4438C16.5 11.4438 16.3 11.4438 16.1 11.4438C16.1 11.6449 16.1 11.846 16.1 12.0471C15.9 12.0471 15.7 12.0471 15.5 12.0471C15.5 11.6449 15.5 11.2426 15.5 10.8404C15.7 10.8404 15.9 10.8404 16.1 10.8404C16.1 10.6393 16.1 10.4382 16.1 10.237Z" fill="#BFBFBF"/>
<path fill-rule="evenodd" clip-rule="evenodd" d="M4.70002 11.4438C4.70002 11.6449 4.70002 11.846 4.70002 12.0471C4.5 12.0471 4.30005 12.0471 4.10002 12.0471C4.10002 11.846 4.10002 11.6449 4.10002 11.4438C4.30005 11.4438 4.5 11.4438 4.70002 11.4438Z" fill="#050505"/>
<path fill-rule="evenodd" clip-rule="evenodd" d="M4.70002 11.4438C4.90005 11.4438 5.1 11.4438 5.30002 11.4438C5.30002 11.6449 5.30002 11.846 5.30002 12.0471C5.1 12.0471 4.90005 12.0471 4.70002 12.0471C4.70002 11.846 4.70002 11.6449 4.70002 11.4438Z" fill="#7F7F7F"/>
<path fill-rule="evenodd" clip-rule="evenodd" d="M8.90002 11.4438C9.10005 11.4438 9.3 11.4438 9.50002 11.4438C9.50002 11.6449 9.50002 11.846 9.50002 12.0471C9.3 12.0471 9.10005 12.0471 8.90002 12.0471C8.90002 11.846 8.90002 11.6449 8.90002 11.4438Z" fill="#7F7F7F"/>
<path fill-rule="evenodd" clip-rule="evenodd" d="M9.50002 11.4438C9.70005 11.4438 9.9 11.4438 10.1 11.4438C10.1 11.6449 10.1 11.846 10.1 12.0471C9.9 12.0471 9.70005 12.0471 9.50002 12.0471C9.50002 11.846 9.50002 11.6449 9.50002 11.4438Z" fill="#050505"/>
<path fill-rule="evenodd" clip-rule="evenodd" d="M11.3 11.4438C11.7 11.4438 12.1 11.4438 12.5 11.4438C12.5 11.6449 12.5 11.846 12.5 12.0471C12.3 12.0471 12.1 12.0471 11.9 12.0471C11.7 12.0471 11.5 12.0471 11.3 12.0471C11.3 11.846 11.3 11.6449 11.3 11.4438Z" fill="#BFBFBF"/>
<path fill-rule="evenodd" clip-rule="evenodd" d="M12.5 11.4438C12.7 11.4438 12.9 11.4438 13.1 11.4438C13.1 11.846 13.1 12.2483 13.1 12.6505C12.9 12.6505 12.7 12.6505 12.5 12.6505C12.5 12.4494 12.5 12.2483 12.5 12.0471C12.5 11.846 12.5 11.6449 12.5 11.4438Z" fill="#040404"/>
<path fill-rule="evenodd" clip-rule="evenodd" d="M10.1 11.4438C10.3 11.4438 10.5 11.4438 10.7 11.4438C10.7 11.6449 10.7 11.846 10.7 12.0471C10.5 12.0471 10.3 12.0471 10.1 12.0471C10.1 11.846 10.1 11.6449 10.1 11.4438Z" fill="#7F7F7F"/>
<path fill-rule="evenodd" clip-rule="evenodd" d="M4.10002 12.0471C4.10002 12.2483 4.10002 12.4494 4.10002 12.6505C3.9 12.6505 3.70005 12.6505 3.50002 12.6505C3.50002 12.4494 3.50002 12.2483 3.50002 12.0471C3.70005 12.0471 3.9 12.0471 4.10002 12.0471Z" fill="#050505"/>
<path fill-rule="evenodd" clip-rule="evenodd" d="M4.10002 12.0471C4.30005 12.0471 4.5 12.0471 4.70002 12.0471C4.70002 12.2483 4.70002 12.4494 4.70002 12.6505C4.5 12.6505 4.30005 12.6505 4.10002 12.6505C4.10002 12.4494 4.10002 12.2483 4.10002 12.0471Z" fill="#7F7F7F"/>
<path fill-rule="evenodd" clip-rule="evenodd" d="M7.10002 12.0471C7.5 12.0471 7.90005 12.0471 8.30002 12.0471C8.30002 12.2483 8.30002 12.4494 8.30002 12.6505C8.1 12.6505 7.90005 12.6505 7.70002 12.6505C7.70002 12.8517 7.70002 13.0527 7.70002 13.2539C7.5 13.2539 7.30005 13.2539 7.10002 13.2539C7.10002 13.0527 7.10002 12.8517 7.10002 12.6505C7.10002 12.4494 7.10002 12.2483 7.10002 12.0471Z" fill="#050505"/>
<path fill-rule="evenodd" clip-rule="evenodd" d="M10.7 12.0471C10.9 12.0471 11.1 12.0471 11.3 12.0471C11.5 12.0471 11.7 12.0471 11.9 12.0471C11.9 12.2483 11.9 12.4494 11.9 12.6505C11.7 12.6505 11.5 12.6505 11.3 12.6505C11.1 12.6505 10.9 12.6505 10.7 12.6505C10.7 12.4494 10.7 12.2483 10.7 12.0471Z" fill="#050505"/>
<path fill-rule="evenodd" clip-rule="evenodd" d="M11.9 12.0471C12.1 12.0471 12.3 12.0471 12.5 12.0471C12.5 12.2483 12.5 12.4494 12.5 12.6505C12.3 12.6505 12.1 12.6505 11.9 12.6505C11.9 12.4494 11.9 12.2483 11.9 12.0471Z" fill="#818181"/>
<path fill-rule="evenodd" clip-rule="evenodd" d="M15.5 12.0471C15.5 12.2483 15.5 12.4494 15.5 12.6505C15.3 12.6505 15.1 12.6505 14.9 12.6505C14.9 12.4494 14.9 12.2483 14.9 12.0471C15.1 12.0471 15.3 12.0471 15.5 12.0471Z" fill="#BFBFBF"/>
<path fill-rule="evenodd" clip-rule="evenodd" d="M15.5 12.0471C15.7 12.0471 15.9 12.0471 16.1 12.0471C16.1 12.6505 16.1 13.2539 16.1 13.8572C16.3 13.8572 16.5 13.8572 16.7 13.8572C16.7 14.2595 16.7 14.6618 16.7 15.064C16.9 15.064 17.1 15.064 17.3 15.064C17.3 15.2651 17.3 15.4662 17.3 15.6673C17.5 15.6673 17.7 15.6673 17.9 15.6673C17.9 15.8685 17.9 16.0696 17.9 16.2707C17.5 16.2707 17.1 16.2707 16.7 16.2707C16.7 16.4719 16.7 16.6729 16.7 16.8741C16.3 16.8741 15.9 16.8741 15.5 16.8741C15.5 17.0752 15.5 17.2763 15.5 17.4774C15.1 17.4774 14.7 17.4774 14.3 17.4774C14.3 17.6786 14.3 17.8797 14.3 18.0808C13.9 18.0808 13.5 18.0808 13.1 18.0808C13.1 18.282 13.1 18.483 13.1 18.6842C12.7 18.6842 12.3 18.6842 11.9 18.6842C11.9 18.8853 11.9 19.0864 11.9 19.2875C11.5 19.2875 11.1 19.2875 10.7 19.2875C10.7 18.483 10.7 17.6786 10.7 16.8741C10.9 16.8741 11.1 16.8741 11.3 16.8741C11.3 16.6729 11.3 16.4719 11.3 16.2707C11.5 16.2707 11.7 16.2707 11.9 16.2707C11.9 16.0696 11.9 15.8685 11.9 15.6673C12.1 15.6673 12.3 15.6673 12.5 15.6673C12.5 15.4662 12.5 15.2651 12.5 15.064C12.7 15.064 12.9 15.064 13.1 15.064C13.1 14.8628 13.1 14.6618 13.1 14.4606C13.3 14.4606 13.5 14.4606 13.7 14.4606C13.7 14.2595 13.7 14.0584 13.7 13.8572C13.9 13.8572 14.1 13.8572 14.3 13.8572C14.3 13.6561 14.3 13.455 14.3 13.2539C14.5 13.2539 14.7 13.2539 14.9 13.2539C14.9 13.0527 14.9 12.8517 14.9 12.6505C15.1 12.6505 15.3 12.6505 15.5 12.6505C15.5 12.4494 15.5 12.2483 15.5 12.0471Z" fill="#808080"/>
<path fill-rule="evenodd" clip-rule="evenodd" d="M3.50002 12.6505C3.50002 12.8517 3.50002 13.0527 3.50002 13.2539C3.50002 14.0584 3.50002 14.8628 3.50002 15.6673C3.70005 15.6673 3.9 15.6673 4.10002 15.6673C4.10002 15.8685 4.10002 16.0696 4.10002 16.2707C3.70005 16.2707 3.3 16.2707 2.90002 16.2707C2.90002 15.064 2.90002 13.8572 2.90002 12.6505C3.10005 12.6505 3.3 12.6505 3.50002 12.6505Z" fill="#020202"/>
<path fill-rule="evenodd" clip-rule="evenodd" d="M3.50002 12.6505C3.70005 12.6505 3.9 12.6505 4.10002 12.6505C4.10002 12.8517 4.10002 13.0527 4.10002 13.2539C3.9 13.2539 3.70005 13.2539 3.50002 13.2539C3.50002 13.0527 3.50002 12.8517 3.50002 12.6505Z" fill="#808080"/>
<path fill-rule="evenodd" clip-rule="evenodd" d="M8.90002 12.6505C9.3 12.6505 9.70005 12.6505 10.1 12.6505C10.1 12.8517 10.1 13.0527 10.1 13.2539C9.70005 13.2539 9.3 13.2539 8.90002 13.2539C8.90002 13.0527 8.90002 12.8517 8.90002 12.6505Z" fill="#030303"/>
<path fill-rule="evenodd" clip-rule="evenodd" d="M10.1 12.6505C10.3 12.6505 10.5 12.6505 10.7 12.6505C10.9 12.6505 11.1 12.6505 11.3 12.6505C11.3 12.8517 11.3 13.0527 11.3 13.2539C11.1 13.2539 10.9 13.2539 10.7 13.2539C10.5 13.2539 10.3 13.2539 10.1 13.2539C10.1 13.0527 10.1 12.8517 10.1 12.6505Z" fill="#BEBEBE"/>
<path fill-rule="evenodd" clip-rule="evenodd" d="M11.3 12.6505C11.5 12.6505 11.7 12.6505 11.9 12.6505C11.9 12.8517 11.9 13.0527 11.9 13.2539C11.7 13.2539 11.5 13.2539 11.3 13.2539C11.3 13.0527 11.3 12.8517 11.3 12.6505Z" fill="#808080"/>
<path fill-rule="evenodd" clip-rule="evenodd" d="M11.9 12.6505C12.1 12.6505 12.3 12.6505 12.5 12.6505C12.5 12.8517 12.5 13.0527 12.5 13.2539C12.3 13.2539 12.1 13.2539 11.9 13.2539C11.9 13.0527 11.9 12.8517 11.9 12.6505Z" fill="#050505"/>
<path fill-rule="evenodd" clip-rule="evenodd" d="M12.5 12.6505C12.7 12.6505 12.9 12.6505 13.1 12.6505C13.1 12.8517 13.1 13.0527 13.1 13.2539C12.9 13.2539 12.7 13.2539 12.5 13.2539C12.5 13.0527 12.5 12.8517 12.5 12.6505Z" fill="#BFBFBF"/>
<path fill-rule="evenodd" clip-rule="evenodd" d="M14.9 12.6505C14.9 12.8517 14.9 13.0527 14.9 13.2539C14.7 13.2539 14.5 13.2539 14.3 13.2539C14.3 13.0527 14.3 12.8517 14.3 12.6505C14.5 12.6505 14.7 12.6505 14.9 12.6505Z" fill="#BFBFBF"/>
<path fill-rule="evenodd" clip-rule="evenodd" d="M17.3 12.6505C17.3 12.8517 17.3 13.0527 17.3 13.2539C17.3 13.455 17.3 13.6561 17.3 13.8572C17.1 13.8572 16.9 13.8572 16.7 13.8572C16.7 13.455 16.7 13.0527 16.7 12.6505C16.9 12.6505 17.1 12.6505 17.3 12.6505Z" fill="#F9F9F9"/>
<path fill-rule="evenodd" clip-rule="evenodd" d="M17.3 12.6505C17.5 12.6505 17.7 12.6505 17.9 12.6505C17.9 12.8517 17.9 13.0527 17.9 13.2539C17.7 13.2539 17.5 13.2539 17.3 13.2539C17.3 13.0527 17.3 12.8517 17.3 12.6505Z" fill="#070707"/>
<path fill-rule="evenodd" clip-rule="evenodd" d="M8.30002 12.6505C8.50005 12.6505 8.7 12.6505 8.90002 12.6505C8.90002 12.8517 8.90002 13.0527 8.90002 13.2539C8.7 13.2539 8.50005 13.2539 8.30002 13.2539C8.1 13.2539 7.90005 13.2539 7.70002 13.2539C7.70002 13.0527 7.70002 12.8517 7.70002 12.6505C7.90005 12.6505 8.1 12.6505 8.30002 12.6505Z" fill="#C0C0C0"/>
<path fill-rule="evenodd" clip-rule="evenodd" d="M7.70002 13.2539C7.90005 13.2539 8.1 13.2539 8.30002 13.2539C8.30002 13.455 8.30002 13.6561 8.30002 13.8572C8.1 13.8572 7.90005 13.8572 7.70002 13.8572C7.70002 13.6561 7.70002 13.455 7.70002 13.2539Z" fill="#060606"/>
<path fill-rule="evenodd" clip-rule="evenodd" d="M8.30002 13.2539C8.50005 13.2539 8.7 13.2539 8.90002 13.2539C9.3 13.2539 9.70005 13.2539 10.1 13.2539C10.3 13.2539 10.5 13.2539 10.7 13.2539C10.7 13.455 10.7 13.6561 10.7 13.8572C10.1 13.8572 9.50002 13.8572 8.90002 13.8572C8.7 13.8572 8.50005 13.8572 8.30002 13.8572C8.30002 13.6561 8.30002 13.455 8.30002 13.2539Z" fill="#808080"/>
<path fill-rule="evenodd" clip-rule="evenodd" d="M10.7 13.2539C10.9 13.2539 11.1 13.2539 11.3 13.2539C11.5 13.2539 11.7 13.2539 11.9 13.2539C11.9 13.455 11.9 13.6561 11.9 13.8572C11.7 13.8572 11.5 13.8572 11.3 13.8572C11.1 13.8572 10.9 13.8572 10.7 13.8572C10.7 13.6561 10.7 13.455 10.7 13.2539Z" fill="#040404"/>
<path fill-rule="evenodd" clip-rule="evenodd" d="M14.3 13.2539C14.3 13.455 14.3 13.6561 14.3 13.8572C14.1 13.8572 13.9 13.8572 13.7 13.8572C13.7 13.6561 13.7 13.455 13.7 13.2539C13.9 13.2539 14.1 13.2539 14.3 13.2539Z" fill="#BFBFBF"/>
<path fill-rule="evenodd" clip-rule="evenodd" d="M17.9 13.2539C18.1001 13.2539 18.3 13.2539 18.5 13.2539C18.9 13.2539 19.3001 13.2539 19.7 13.2539C20.1 13.2539 20.5001 13.2539 20.9 13.2539C20.9 13.455 20.9 13.6561 20.9 13.8572C20.5001 13.8572 20.1 13.8572 19.7 13.8572C19.3001 13.8572 18.9 13.8572 18.5 13.8572C18.3 13.8572 18.1001 13.8572 17.9 13.8572C17.9 13.6561 17.9 13.455 17.9 13.2539Z" fill="#030303"/>
<path fill-rule="evenodd" clip-rule="evenodd" d="M3.50002 13.2539C3.70005 13.2539 3.9 13.2539 4.10002 13.2539C4.30005 13.2539 4.5 13.2539 4.70002 13.2539C4.70002 13.455 4.70002 13.6561 4.70002 13.8572C5.1 13.8572 5.50005 13.8572 5.90002 13.8572C5.90002 14.0584 5.90002 14.2595 5.90002 14.4606C6.3 14.4606 6.70005 14.4606 7.10002 14.4606C7.10002 14.6618 7.10002 14.8628 7.10002 15.064C7.5 15.064 7.90005 15.064 8.30002 15.064C8.30002 15.2651 8.30002 15.4662 8.30002 15.6673C8.7 15.6673 9.10005 15.6673 9.50002 15.6673C9.50002 15.8685 9.50002 16.0696 9.50002 16.2707C10.1 16.2707 10.7 16.2707 11.3 16.2707C11.3 16.4719 11.3 16.6729 11.3 16.8741C11.1 16.8741 10.9 16.8741 10.7 16.8741C10.7 17.6786 10.7 18.483 10.7 19.2875C10.5 19.2875 10.3 19.2875 10.1 19.2875C10.1 19.0864 10.1 18.8853 10.1 18.6842C9.70005 18.6842 9.3 18.6842 8.90002 18.6842C8.90002 18.483 8.90002 18.282 8.90002 18.0808C8.50005 18.0808 8.1 18.0808 7.70002 18.0808C7.70002 17.8797 7.70002 17.6786 7.70002 17.4774C7.30005 17.4774 6.9 17.4774 6.50002 17.4774C6.50002 17.2763 6.50002 17.0752 6.50002 16.8741C6.10005 16.8741 5.7 16.8741 5.30002 16.8741C5.30002 16.6729 5.30002 16.4719 5.30002 16.2707C4.90005 16.2707 4.5 16.2707 4.10002 16.2707C4.10002 16.0696 4.10002 15.8685 4.10002 15.6673C3.9 15.6673 3.70005 15.6673 3.50002 15.6673C3.50002 14.8628 3.50002 14.0584 3.50002 13.2539Z" fill="#C0C0C0"/>
<path fill-rule="evenodd" clip-rule="evenodd" d="M11.9 13.2539C12.1 13.2539 12.3 13.2539 12.5 13.2539C12.5 13.455 12.5 13.6561 12.5 13.8572C12.3 13.8572 12.1 13.8572 11.9 13.8572C11.9 13.6561 11.9 13.455 11.9 13.2539Z" fill="#BFBFBF"/>
<path fill-rule="evenodd" clip-rule="evenodd" d="M8.30002 13.8572C8.50005 13.8572 8.7 13.8572 8.90002 13.8572C8.90002 14.0584 8.90002 14.2595 8.90002 14.4606C8.7 14.4606 8.50005 14.4606 8.30002 14.4606C8.30002 14.2595 8.30002 14.0584 8.30002 13.8572Z" fill="#BFBFBF"/>
<path fill-rule="evenodd" clip-rule="evenodd" d="M8.90002 13.8572C9.50002 13.8572 10.1 13.8572 10.7 13.8572C10.7 14.0584 10.7 14.2595 10.7 14.4606C10.1 14.4606 9.50002 14.4606 8.90002 14.4606C8.90002 14.2595 8.90002 14.0584 8.90002 13.8572Z" fill="#020202"/>
<path fill-rule="evenodd" clip-rule="evenodd" d="M13.7 13.8572C13.7 14.0584 13.7 14.2595 13.7 14.4606C13.5 14.4606 13.3 14.4606 13.1 14.4606C13.1 14.2595 13.1 14.0584 13.1 13.8572C13.3 13.8572 13.5 13.8572 13.7 13.8572Z" fill="#BFBFBF"/>
<path fill-rule="evenodd" clip-rule="evenodd" d="M17.9 13.8572C18.1001 13.8572 18.3 13.8572 18.5 13.8572C18.5 14.2595 18.5 14.6618 18.5 15.064C18.3 15.064 18.1001 15.064 17.9 15.064C17.9 14.8628 17.9 14.6618 17.9 14.4606C17.9 14.2595 17.9 14.0584 17.9 13.8572Z" fill="#FAFAFA"/>
<path fill-rule="evenodd" clip-rule="evenodd" d="M18.5 13.8572C18.9 13.8572 19.3001 13.8572 19.7 13.8572C19.7 14.2595 19.7 14.6618 19.7 15.064C19.3001 15.064 18.9 15.064 18.5 15.064C18.5 14.6618 18.5 14.2595 18.5 13.8572Z" fill="#BFBFBF"/>
<path fill-rule="evenodd" clip-rule="evenodd" d="M20.9 13.2539C21.1001 13.2539 21.3 13.2539 21.5 13.2539C21.5 13.6561 21.5 14.0584 21.5 14.4606C21.3 14.4606 21.1001 14.4606 20.9 14.4606C20.9 14.6618 20.9 14.8628 20.9 15.064C20.5001 15.064 20.1 15.064 19.7 15.064C19.7 14.6618 19.7 14.2595 19.7 13.8572C20.1 13.8572 20.5001 13.8572 20.9 13.8572C20.9 13.6561 20.9 13.455 20.9 13.2539Z" fill="#808080"/>
<path fill-rule="evenodd" clip-rule="evenodd" d="M10.7 13.8572C10.9 13.8572 11.1 13.8572 11.3 13.8572C11.3 14.0584 11.3 14.2595 11.3 14.4606C11.1 14.4606 10.9 14.4606 10.7 14.4606C10.7 14.2595 10.7 14.0584 10.7 13.8572Z" fill="#808080"/>
<path fill-rule="evenodd" clip-rule="evenodd" d="M17.3 13.2539C17.5 13.2539 17.7 13.2539 17.9 13.2539C17.9 13.455 17.9 13.6561 17.9 13.8572C17.9 14.0584 17.9 14.2595 17.9 14.4606C17.7 14.4606 17.5 14.4606 17.3 14.4606C17.3 14.2595 17.3 14.0584 17.3 13.8572C17.3 13.6561 17.3 13.455 17.3 13.2539Z" fill="#C1C1C1"/>
<path fill-rule="evenodd" clip-rule="evenodd" d="M11.3 13.8572C11.5 13.8572 11.7 13.8572 11.9 13.8572C11.9 14.0584 11.9 14.2595 11.9 14.4606C11.7 14.4606 11.5 14.4606 11.3 14.4606C11.3 14.2595 11.3 14.0584 11.3 13.8572Z" fill="#BEBEBE"/>
<path fill-rule="evenodd" clip-rule="evenodd" d="M13.1 14.4606C13.1 14.6618 13.1 14.8628 13.1 15.064C12.9 15.064 12.7 15.064 12.5 15.064C12.5 14.8628 12.5 14.6618 12.5 14.4606C12.7 14.4606 12.9 14.4606 13.1 14.4606Z" fill="#BFBFBF"/>
<path fill-rule="evenodd" clip-rule="evenodd" d="M21.5 14.4606C21.5 14.6618 21.5 14.8628 21.5 15.064C21.3 15.064 21.1001 15.064 20.9 15.064C20.9 14.8628 20.9 14.6618 20.9 14.4606C21.1001 14.4606 21.3 14.4606 21.5 14.4606Z" fill="#060606"/>
<path fill-rule="evenodd" clip-rule="evenodd" d="M12.5 15.064C12.5 15.2651 12.5 15.4662 12.5 15.6673C12.3 15.6673 12.1 15.6673 11.9 15.6673C11.9 15.4662 11.9 15.2651 11.9 15.064C12.1 15.064 12.3 15.064 12.5 15.064Z" fill="#BFBFBF"/>
<path fill-rule="evenodd" clip-rule="evenodd" d="M16.7 13.8572C16.9 13.8572 17.1 13.8572 17.3 13.8572C17.3 14.0584 17.3 14.2595 17.3 14.4606C17.5 14.4606 17.7 14.4606 17.9 14.4606C17.9 14.6618 17.9 14.8628 17.9 15.064C18.1001 15.064 18.3 15.064 18.5 15.064C18.9 15.064 19.3001 15.064 19.7 15.064C20.1 15.064 20.5001 15.064 20.9 15.064C20.9 15.2651 20.9 15.4662 20.9 15.6673C20.3 15.6673 19.7 15.6673 19.1 15.6673C19.1 15.8685 19.1 16.0696 19.1 16.2707C18.7001 16.2707 18.3 16.2707 17.9 16.2707C17.9 16.0696 17.9 15.8685 17.9 15.6673C17.7 15.6673 17.5 15.6673 17.3 15.6673C17.3 15.4662 17.3 15.2651 17.3 15.064C17.1 15.064 16.9 15.064 16.7 15.064C16.7 14.6618 16.7 14.2595 16.7 13.8572Z" fill="#040404"/>
<path fill-rule="evenodd" clip-rule="evenodd" d="M11.9 15.6673C11.9 15.8685 11.9 16.0696 11.9 16.2707C11.7 16.2707 11.5 16.2707 11.3 16.2707C11.3 16.0696 11.3 15.8685 11.3 15.6673C11.5 15.6673 11.7 15.6673 11.9 15.6673Z" fill="#BFBFBF"/>
<path fill-rule="evenodd" clip-rule="evenodd" d="M4.10002 16.2707C4.5 16.2707 4.90005 16.2707 5.30002 16.2707C5.30002 16.4719 5.30002 16.6729 5.30002 16.8741C4.90005 16.8741 4.5 16.8741 4.10002 16.8741C4.10002 16.6729 4.10002 16.4719 4.10002 16.2707Z" fill="#030303"/>
<path fill-rule="evenodd" clip-rule="evenodd" d="M17.9 16.2707C17.9 16.4719 17.9 16.6729 17.9 16.8741C17.5 16.8741 17.1 16.8741 16.7 16.8741C16.7 16.6729 16.7 16.4719 16.7 16.2707C17.1 16.2707 17.5 16.2707 17.9 16.2707Z" fill="#040404"/>
<path fill-rule="evenodd" clip-rule="evenodd" d="M5.30002 16.8741C5.7 16.8741 6.10005 16.8741 6.50002 16.8741C6.50002 17.0752 6.50002 17.2763 6.50002 17.4774C6.10005 17.4774 5.7 17.4774 5.30002 17.4774C5.30002 17.2763 5.30002 17.0752 5.30002 16.8741Z" fill="#030303"/>
<path fill-rule="evenodd" clip-rule="evenodd" d="M16.7 16.8741C16.7 17.0752 16.7 17.2763 16.7 17.4774C16.3 17.4774 15.9 17.4774 15.5 17.4774C15.5 17.2763 15.5 17.0752 15.5 16.8741C15.9 16.8741 16.3 16.8741 16.7 16.8741Z" fill="#040404"/>
<path fill-rule="evenodd" clip-rule="evenodd" d="M6.50002 17.4774C6.9 17.4774 7.30005 17.4774 7.70002 17.4774C7.70002 17.6786 7.70002 17.8797 7.70002 18.0808C7.30005 18.0808 6.9 18.0808 6.50002 18.0808C6.50002 17.8797 6.50002 17.6786 6.50002 17.4774Z" fill="#030303"/>
<path fill-rule="evenodd" clip-rule="evenodd" d="M15.5 17.4774C15.5 17.6786 15.5 17.8797 15.5 18.0808C15.1 18.0808 14.7 18.0808 14.3 18.0808C14.3 17.8797 14.3 17.6786 14.3 17.4774C14.7 17.4774 15.1 17.4774 15.5 17.4774Z" fill="#040404"/>
<path fill-rule="evenodd" clip-rule="evenodd" d="M7.70002 18.0808C8.1 18.0808 8.50005 18.0808 8.90002 18.0808C8.90002 18.282 8.90002 18.483 8.90002 18.6842C8.50005 18.6842 8.1 18.6842 7.70002 18.6842C7.70002 18.483 7.70002 18.282 7.70002 18.0808Z" fill="#030303"/>
<path fill-rule="evenodd" clip-rule="evenodd" d="M14.3 18.0808C14.3 18.282 14.3 18.483 14.3 18.6842C13.9 18.6842 13.5 18.6842 13.1 18.6842C13.1 18.483 13.1 18.282 13.1 18.0808C13.5 18.0808 13.9 18.0808 14.3 18.0808Z" fill="#040404"/>
<path fill-rule="evenodd" clip-rule="evenodd" d="M8.90002 18.6842C9.3 18.6842 9.70005 18.6842 10.1 18.6842C10.1 18.8853 10.1 19.0864 10.1 19.2875C9.70005 19.2875 9.3 19.2875 8.90002 19.2875C8.90002 19.0864 8.90002 18.8853 8.90002 18.6842Z" fill="#030303"/>
<path fill-rule="evenodd" clip-rule="evenodd" d="M13.1 18.6842C13.1 18.8853 13.1 19.0864 13.1 19.2875C12.7 19.2875 12.3 19.2875 11.9 19.2875C11.9 19.0864 11.9 18.8853 11.9 18.6842C12.3 18.6842 12.7 18.6842 13.1 18.6842Z" fill="#040404"/>
<path fill-rule="evenodd" clip-rule="evenodd" d="M10.1 19.2875C10.3 19.2875 10.5 19.2875 10.7 19.2875C11.1 19.2875 11.5 19.2875 11.9 19.2875C11.9 19.4887 11.9 19.6898 11.9 19.8909C11.3 19.8909 10.7 19.8909 10.1 19.8909C10.1 19.6898 10.1 19.4887 10.1 19.2875Z" fill="#040404"/>
</g>
<defs>
<filter id="filter0_d_475_2431" x="2.90002" y="3.60001" width="21.2" height="18.2909" filterUnits="userSpaceOnUse" color-interpolation-filters="sRGB">
<feFlood flood-opacity="0" result="BackgroundImageFix"/>
<feColorMatrix in="SourceAlpha" type="matrix" values="0 0 0 0 0 0 0 0 0 0 0 0 0 0 0 0 0 0 127 0" result="hardAlpha"/>
<feOffset dx="2" dy="2"/>
<feComposite in2="hardAlpha" operator="out"/>
<feColorMatrix type="matrix" values="0 0 0 0 0.113725 0 0 0 0 0.054902 0 0 0 0 0.27451 0 0 0 1 0"/>
<feBlend mode="normal" in2="BackgroundImageFix" result="effect1_dropShadow_475_2431"/>
<feBlend mode="normal" in="SourceGraphic" in2="effect1_dropShadow_475_2431" result="shape"/>
</filter>
</defs>
</svg>
