<svg width="1084" height="30" viewBox="0 0 1084 30" fill="none" xmlns="http://www.w3.org/2000/svg">
<path d="M68 15L70 15C71.1046 15 72 14.1046 72 13L72 11C72 9.89543 71.1046 9 70 9L68 9C66.8954 9 66 9.89543 66 11L66 13C66 14.1046 66.8954 15 68 15Z" fill="#9067FF" stroke="#1D0E46" stroke-opacity="0.4"/>
<path d="M150 9L148 9C146.895 9 146 9.89543 146 11L146 13C146 14.1046 146.895 15 148 15L150 15C151.105 15 152 14.1046 152 13L152 11C152 9.89543 151.105 9 150 9Z" fill="#9067FF" stroke="#1D0E46" stroke-opacity="0.4"/>
<path d="M48 8.5C48 7.67157 47.3284 7 46.5 7C45.6716 7 45 7.67157 45 8.5C45 9.32843 45.6716 10 46.5 10C47.3284 10 48 9.32843 48 8.5Z" fill="#9067FF" stroke="#1D0E46" stroke-opacity="0.4"/>
<path d="M63 5C61.8954 5 61 4.10457 61 3C61 1.89543 61.8954 1 63 1C64.1046 1 65 1.89543 65 3C65 4.10457 64.1046 5 63 5Z" fill="#9067FF" stroke="#1D0E46" stroke-opacity="0.4"/>
<path d="M63 16L63 26C63 27.1046 62.1046 28 61 28L51 28C49.8954 28 49 27.1046 49 26L49 16C49 14.8954 49.8954 14 51 14L61 14C62.1046 14 63 14.8954 63 16Z" fill="#9067FF" stroke="#1D0E46" stroke-opacity="0.4"/>
<path d="M155 19C156.105 19 157 19.8954 157 21C157 22.1046 156.105 23 155 23C153.895 23 153 22.1046 153 21C153 19.8954 153.895 19 155 19Z" fill="#9067FF" stroke="#1D0E46" stroke-opacity="0.4"/>
<path d="M95 29L87 29C85.8954 29 85 28.1046 85 27L85 19C85 17.8954 85.8954 17 87 17L95 17C96.1046 17 97 17.8954 97 19L97 27C97 28.1046 96.1046 29 95 29Z" fill="#9067FF" stroke="#1D0E46" stroke-opacity="0.4"/>
<path d="M35 13L35 17C35 18.1046 35.8954 19 37 19L41 19C42.1046 19 43 18.1046 43 17L43 13C43 11.8954 42.1046 11 41 11L37 11C35.8954 11 35 11.8954 35 13Z" fill="#9067FF" stroke="#1D0E46" stroke-opacity="0.4"/>
<path d="M81 5C81 6.10457 80.1046 7 79 7C77.8954 7 77 6.10457 77 5C77 3.89543 77.8954 3 79 3C80.1046 3 81 3.89543 81 5Z" fill="#9067FF" stroke="#1D0E46" stroke-opacity="0.4"/>
<path d="M15 13L15 17C15 18.1046 14.1046 19 13 19L9 19C7.89543 19 7 18.1046 7 17L7 13C7 11.8954 7.89543 11 9 11L13 11C14.1046 11 15 11.8954 15 13Z" fill="#9067FF" stroke="#1D0E46" stroke-opacity="0.4"/>
<path d="M3 23C1.89543 23 1 22.1046 1 21C1 19.8954 1.89543 19 3 19C4.10457 19 5 19.8954 5 21C5 22.1046 4.10457 23 3 23Z" fill="#9067FF" stroke="#1D0E46" stroke-opacity="0.4"/>
<path d="M137 19C137 17.8954 137.895 17 139 17C140.105 17 141 17.8954 141 19C141 20.1046 140.105 21 139 21C137.895 21 137 20.1046 137 19Z" fill="#9067FF" stroke="#1D0E46" stroke-opacity="0.4"/>
<rect width="7" height="7" rx="2" transform="matrix(1 0 0 -1 100 15)" fill="#9067FF" stroke="#1D0E46" stroke-opacity="0.4"/>
<rect width="4" height="4" rx="2" transform="matrix(1 0 0 -1 113 19)" fill="#9067FF" stroke="#1D0E46" stroke-opacity="0.4"/>
<rect width="6" height="6" rx="2" transform="matrix(1 0 0 -1 124 24)" fill="#9067FF" stroke="#1D0E46" stroke-opacity="0.4"/>
<rect width="9" height="9" rx="2" transform="matrix(1 0 0 -1 162 25)" fill="#9067FF" stroke="#1D0E46" stroke-opacity="0.4"/>
<rect width="4" height="4" rx="2" transform="matrix(1 0 0 -1 180 18)" fill="#9067FF" stroke="#1D0E46" stroke-opacity="0.4"/>
<rect width="4" height="4" rx="2" transform="matrix(1 0 0 -1 188 23)" fill="#9067FF" stroke="#1D0E46" stroke-opacity="0.4"/>
<rect width="8" height="8" rx="2" transform="matrix(1 0 0 -1 194 16)" fill="#9067FF" stroke="#1D0E46" stroke-opacity="0.4"/>
<rect width="4" height="4" rx="2" transform="matrix(1 0 0 -1 201 7)" fill="#9067FF" stroke="#1D0E46" stroke-opacity="0.4"/>
<rect width="4" height="4" rx="2" transform="matrix(-1 8.74228e-08 8.74228e-08 1 213 16)" fill="#9067FF" stroke="#1D0E46" stroke-opacity="0.4"/>
<rect width="2" height="2" rx="1" transform="matrix(1 0 0 -1 197 4)" fill="#9067FF" stroke="#1D0E46" stroke-opacity="0.4"/>
<rect width="2" height="2" rx="1" transform="matrix(-1 8.74228e-08 8.74228e-08 1 217 19)" fill="#9067FF" stroke="#1D0E46" stroke-opacity="0.4"/>
<path d="M271 15L273 15C274.105 15 275 14.1046 275 13L275 11C275 9.89543 274.105 9 273 9L271 9C269.895 9 269 9.89543 269 11L269 13C269 14.1046 269.895 15 271 15Z" fill="#9067FF" stroke="#1D0E46" stroke-opacity="0.4"/>
<path d="M353 9L351 9C349.895 9 349 9.89543 349 11L349 13C349 14.1046 349.895 15 351 15L353 15C354.105 15 355 14.1046 355 13L355 11C355 9.89543 354.105 9 353 9Z" fill="#9067FF" stroke="#1D0E46" stroke-opacity="0.4"/>
<path d="M251 8.5C251 7.67157 250.328 7 249.5 7C248.672 7 248 7.67157 248 8.5C248 9.32843 248.672 10 249.5 10C250.328 10 251 9.32843 251 8.5Z" fill="#9067FF" stroke="#1D0E46" stroke-opacity="0.4"/>
<path d="M266 5C264.895 5 264 4.10457 264 3C264 1.89543 264.895 1 266 1C267.105 1 268 1.89543 268 3C268 4.10457 267.105 5 266 5Z" fill="#9067FF" stroke="#1D0E46" stroke-opacity="0.4"/>
<path d="M266 16L266 26C266 27.1046 265.105 28 264 28L254 28C252.895 28 252 27.1046 252 26L252 16C252 14.8954 252.895 14 254 14L264 14C265.105 14 266 14.8954 266 16Z" fill="#9067FF" stroke="#1D0E46" stroke-opacity="0.4"/>
<path d="M298 29L290 29C288.895 29 288 28.1046 288 27L288 19C288 17.8954 288.895 17 290 17L298 17C299.105 17 300 17.8954 300 19L300 27C300 28.1046 299.105 29 298 29Z" fill="#9067FF" stroke="#1D0E46" stroke-opacity="0.4"/>
<path d="M238 13L238 17C238 18.1046 238.895 19 240 19L244 19C245.105 19 246 18.1046 246 17L246 13C246 11.8954 245.105 11 244 11L240 11C238.895 11 238 11.8954 238 13Z" fill="#9067FF" stroke="#1D0E46" stroke-opacity="0.4"/>
<path d="M284 5C284 6.10457 283.105 7 282 7C280.895 7 280 6.10457 280 5C280 3.89543 280.895 3 282 3C283.105 3 284 3.89543 284 5Z" fill="#9067FF" stroke="#1D0E46" stroke-opacity="0.4"/>
<path d="M229 20L229 24C229 25.1046 228.105 26 227 26L223 26C221.895 26 221 25.1046 221 24L221 20C221 18.8954 221.895 18 223 18L227 18C228.105 18 229 18.8954 229 20Z" fill="#9067FF" stroke="#1D0E46" stroke-opacity="0.4"/>
<path d="M340 19C340 17.8954 340.895 17 342 17C343.105 17 344 17.8954 344 19C344 20.1046 343.105 21 342 21C340.895 21 340 20.1046 340 19Z" fill="#9067FF" stroke="#1D0E46" stroke-opacity="0.4"/>
<rect width="7" height="7" rx="2" transform="matrix(1 0 0 -1 303 15)" fill="#9067FF" stroke="#1D0E46" stroke-opacity="0.4"/>
<rect width="4" height="4" rx="2" transform="matrix(1 0 0 -1 316 19)" fill="#9067FF" stroke="#1D0E46" stroke-opacity="0.4"/>
<path d="M432 15L434 15C435.105 15 436 14.1046 436 13L436 11C436 9.89543 435.105 9 434 9L432 9C430.895 9 430 9.89543 430 11L430 13C430 14.1046 430.895 15 432 15Z" fill="#9067FF" stroke="#1D0E46" stroke-opacity="0.4"/>
<path d="M514 9L512 9C510.895 9 510 9.89543 510 11L510 13C510 14.1046 510.895 15 512 15L514 15C515.105 15 516 14.1046 516 13L516 11C516 9.89543 515.105 9 514 9Z" fill="#9067FF" stroke="#1D0E46" stroke-opacity="0.4"/>
<path d="M412 8.5C412 7.67157 411.328 7 410.5 7C409.672 7 409 7.67157 409 8.5C409 9.32843 409.672 10 410.5 10C411.328 10 412 9.32843 412 8.5Z" fill="#9067FF" stroke="#1D0E46" stroke-opacity="0.4"/>
<path d="M427 5C425.895 5 425 4.10457 425 3C425 1.89543 425.895 1 427 1C428.105 1 429 1.89543 429 3C429 4.10457 428.105 5 427 5Z" fill="#9067FF" stroke="#1D0E46" stroke-opacity="0.4"/>
<path d="M427 16L427 26C427 27.1046 426.105 28 425 28L415 28C413.895 28 413 27.1046 413 26L413 16C413 14.8954 413.895 14 415 14L425 14C426.105 14 427 14.8954 427 16Z" fill="#9067FF" stroke="#1D0E46" stroke-opacity="0.4"/>
<path d="M519 19C520.105 19 521 19.8954 521 21C521 22.1046 520.105 23 519 23C517.895 23 517 22.1046 517 21C517 19.8954 517.895 19 519 19Z" fill="#9067FF" stroke="#1D0E46" stroke-opacity="0.4"/>
<path d="M459 29L451 29C449.895 29 449 28.1046 449 27L449 19C449 17.8954 449.895 17 451 17L459 17C460.105 17 461 17.8954 461 19L461 27C461 28.1046 460.105 29 459 29Z" fill="#9067FF" stroke="#1D0E46" stroke-opacity="0.4"/>
<path d="M399 13L399 17C399 18.1046 399.895 19 401 19L405 19C406.105 19 407 18.1046 407 17L407 13C407 11.8954 406.105 11 405 11L401 11C399.895 11 399 11.8954 399 13Z" fill="#9067FF" stroke="#1D0E46" stroke-opacity="0.4"/>
<path d="M445 5C445 6.10457 444.105 7 443 7C441.895 7 441 6.10457 441 5C441 3.89543 441.895 3 443 3C444.105 3 445 3.89543 445 5Z" fill="#9067FF" stroke="#1D0E46" stroke-opacity="0.4"/>
<path d="M379 13L379 17C379 18.1046 378.105 19 377 19L373 19C371.895 19 371 18.1046 371 17L371 13C371 11.8954 371.895 11 373 11L377 11C378.105 11 379 11.8954 379 13Z" fill="#9067FF" stroke="#1D0E46" stroke-opacity="0.4"/>
<path d="M367 23C365.895 23 365 22.1046 365 21C365 19.8954 365.895 19 367 19C368.105 19 369 19.8954 369 21C369 22.1046 368.105 23 367 23Z" fill="#9067FF" stroke="#1D0E46" stroke-opacity="0.4"/>
<path d="M501 19C501 17.8954 501.895 17 503 17C504.105 17 505 17.8954 505 19C505 20.1046 504.105 21 503 21C501.895 21 501 20.1046 501 19Z" fill="#9067FF" stroke="#1D0E46" stroke-opacity="0.4"/>
<rect width="7" height="7" rx="2" transform="matrix(1 0 0 -1 464 15)" fill="#9067FF" stroke="#1D0E46" stroke-opacity="0.4"/>
<rect width="4" height="4" rx="2" transform="matrix(1 0 0 -1 477 19)" fill="#9067FF" stroke="#1D0E46" stroke-opacity="0.4"/>
<rect width="6" height="6" rx="2" transform="matrix(1 0 0 -1 488 24)" fill="#9067FF" stroke="#1D0E46" stroke-opacity="0.4"/>
<rect width="9" height="9" rx="2" transform="matrix(1 0 0 -1 526 25)" fill="#9067FF" stroke="#1D0E46" stroke-opacity="0.4"/>
<rect width="4" height="4" rx="2" transform="matrix(1 0 0 -1 544 18)" fill="#9067FF" stroke="#1D0E46" stroke-opacity="0.4"/>
<rect width="4" height="4" rx="2" transform="matrix(1 0 0 -1 552 23)" fill="#9067FF" stroke="#1D0E46" stroke-opacity="0.4"/>
<rect width="8" height="8" rx="2" transform="matrix(1 0 0 -1 558 16)" fill="#9067FF" stroke="#1D0E46" stroke-opacity="0.4"/>
<rect width="4" height="4" rx="2" transform="matrix(1 0 0 -1 565 7)" fill="#9067FF" stroke="#1D0E46" stroke-opacity="0.4"/>
<rect width="4" height="4" rx="2" transform="matrix(-1 8.74228e-08 8.74228e-08 1 577 16)" fill="#9067FF" stroke="#1D0E46" stroke-opacity="0.4"/>
<rect width="2" height="2" rx="1" transform="matrix(1 0 0 -1 561 4)" fill="#9067FF" stroke="#1D0E46" stroke-opacity="0.4"/>
<rect width="2" height="2" rx="1" transform="matrix(-1 8.74228e-08 8.74228e-08 1 581 19)" fill="#9067FF" stroke="#1D0E46" stroke-opacity="0.4"/>
<path d="M635 15L637 15C638.105 15 639 14.1046 639 13L639 11C639 9.89543 638.105 9 637 9L635 9C633.895 9 633 9.89543 633 11L633 13C633 14.1046 633.895 15 635 15Z" fill="#9067FF" stroke="#1D0E46" stroke-opacity="0.4"/>
<path d="M717 9L715 9C713.895 9 713 9.89543 713 11L713 13C713 14.1046 713.895 15 715 15L717 15C718.105 15 719 14.1046 719 13L719 11C719 9.89543 718.105 9 717 9Z" fill="#9067FF" stroke="#1D0E46" stroke-opacity="0.4"/>
<path d="M615 8.5C615 7.67157 614.328 7 613.5 7C612.672 7 612 7.67157 612 8.5C612 9.32843 612.672 10 613.5 10C614.328 10 615 9.32843 615 8.5Z" fill="#9067FF" stroke="#1D0E46" stroke-opacity="0.4"/>
<path d="M630 5C628.895 5 628 4.10457 628 3C628 1.89543 628.895 1 630 1C631.105 1 632 1.89543 632 3C632 4.10457 631.105 5 630 5Z" fill="#9067FF" stroke="#1D0E46" stroke-opacity="0.4"/>
<path d="M630 16L630 26C630 27.1046 629.105 28 628 28L618 28C616.895 28 616 27.1046 616 26L616 16C616 14.8954 616.895 14 618 14L628 14C629.105 14 630 14.8954 630 16Z" fill="#9067FF" stroke="#1D0E46" stroke-opacity="0.4"/>
<path d="M662 29L654 29C652.895 29 652 28.1046 652 27L652 19C652 17.8954 652.895 17 654 17L662 17C663.105 17 664 17.8954 664 19L664 27C664 28.1046 663.105 29 662 29Z" fill="#9067FF" stroke="#1D0E46" stroke-opacity="0.4"/>
<path d="M602 13L602 17C602 18.1046 602.895 19 604 19L608 19C609.105 19 610 18.1046 610 17L610 13C610 11.8954 609.105 11 608 11L604 11C602.895 11 602 11.8954 602 13Z" fill="#9067FF" stroke="#1D0E46" stroke-opacity="0.4"/>
<path d="M648 5C648 6.10457 647.105 7 646 7C644.895 7 644 6.10457 644 5C644 3.89543 644.895 3 646 3C647.105 3 648 3.89543 648 5Z" fill="#9067FF" stroke="#1D0E46" stroke-opacity="0.4"/>
<path d="M593 20L593 24C593 25.1046 592.105 26 591 26L587 26C585.895 26 585 25.1046 585 24L585 20C585 18.8954 585.895 18 587 18L591 18C592.105 18 593 18.8954 593 20Z" fill="#9067FF" stroke="#1D0E46" stroke-opacity="0.4"/>
<path d="M704 19C704 17.8954 704.895 17 706 17C707.105 17 708 17.8954 708 19C708 20.1046 707.105 21 706 21C704.895 21 704 20.1046 704 19Z" fill="#9067FF" stroke="#1D0E46" stroke-opacity="0.4"/>
<rect width="7" height="7" rx="2" transform="matrix(1 0 0 -1 667 15)" fill="#9067FF" stroke="#1D0E46" stroke-opacity="0.4"/>
<rect width="4" height="4" rx="2" transform="matrix(1 0 0 -1 680 19)" fill="#9067FF" stroke="#1D0E46" stroke-opacity="0.4"/>
<path d="M796 15L798 15C799.105 15 800 14.1046 800 13L800 11C800 9.89543 799.105 9 798 9L796 9C794.895 9 794 9.89543 794 11L794 13C794 14.1046 794.895 15 796 15Z" fill="#9067FF" stroke="#1D0E46" stroke-opacity="0.4"/>
<path d="M878 9L876 9C874.895 9 874 9.89543 874 11L874 13C874 14.1046 874.895 15 876 15L878 15C879.105 15 880 14.1046 880 13L880 11C880 9.89543 879.105 9 878 9Z" fill="#9067FF" stroke="#1D0E46" stroke-opacity="0.4"/>
<path d="M776 8.5C776 7.67157 775.328 7 774.5 7C773.672 7 773 7.67157 773 8.5C773 9.32843 773.672 10 774.5 10C775.328 10 776 9.32843 776 8.5Z" fill="#9067FF" stroke="#1D0E46" stroke-opacity="0.4"/>
<path d="M791 5C789.895 5 789 4.10457 789 3C789 1.89543 789.895 1 791 1C792.105 1 793 1.89543 793 3C793 4.10457 792.105 5 791 5Z" fill="#9067FF" stroke="#1D0E46" stroke-opacity="0.4"/>
<path d="M791 16L791 26C791 27.1046 790.105 28 789 28L779 28C777.895 28 777 27.1046 777 26L777 16C777 14.8954 777.895 14 779 14L789 14C790.105 14 791 14.8954 791 16Z" fill="#9067FF" stroke="#1D0E46" stroke-opacity="0.4"/>
<path d="M883 19C884.105 19 885 19.8954 885 21C885 22.1046 884.105 23 883 23C881.895 23 881 22.1046 881 21C881 19.8954 881.895 19 883 19Z" fill="#9067FF" stroke="#1D0E46" stroke-opacity="0.4"/>
<path d="M823 29L815 29C813.895 29 813 28.1046 813 27L813 19C813 17.8954 813.895 17 815 17L823 17C824.105 17 825 17.8954 825 19L825 27C825 28.1046 824.105 29 823 29Z" fill="#9067FF" stroke="#1D0E46" stroke-opacity="0.4"/>
<path d="M763 13L763 17C763 18.1046 763.895 19 765 19L769 19C770.105 19 771 18.1046 771 17L771 13C771 11.8954 770.105 11 769 11L765 11C763.895 11 763 11.8954 763 13Z" fill="#9067FF" stroke="#1D0E46" stroke-opacity="0.4"/>
<path d="M809 5C809 6.10457 808.105 7 807 7C805.895 7 805 6.10457 805 5C805 3.89543 805.895 3 807 3C808.105 3 809 3.89543 809 5Z" fill="#9067FF" stroke="#1D0E46" stroke-opacity="0.4"/>
<path d="M743 13L743 17C743 18.1046 742.105 19 741 19L737 19C735.895 19 735 18.1046 735 17L735 13C735 11.8954 735.895 11 737 11L741 11C742.105 11 743 11.8954 743 13Z" fill="#9067FF" stroke="#1D0E46" stroke-opacity="0.4"/>
<path d="M731 23C729.895 23 729 22.1046 729 21C729 19.8954 729.895 19 731 19C732.105 19 733 19.8954 733 21C733 22.1046 732.105 23 731 23Z" fill="#9067FF" stroke="#1D0E46" stroke-opacity="0.4"/>
<path d="M865 19C865 17.8954 865.895 17 867 17C868.105 17 869 17.8954 869 19C869 20.1046 868.105 21 867 21C865.895 21 865 20.1046 865 19Z" fill="#9067FF" stroke="#1D0E46" stroke-opacity="0.4"/>
<rect width="7" height="7" rx="2" transform="matrix(1 0 0 -1 828 15)" fill="#9067FF" stroke="#1D0E46" stroke-opacity="0.4"/>
<rect width="4" height="4" rx="2" transform="matrix(1 0 0 -1 841 19)" fill="#9067FF" stroke="#1D0E46" stroke-opacity="0.4"/>
<rect width="6" height="6" rx="2" transform="matrix(1 0 0 -1 852 24)" fill="#9067FF" stroke="#1D0E46" stroke-opacity="0.4"/>
<rect width="9" height="9" rx="2" transform="matrix(1 0 0 -1 890 25)" fill="#9067FF" stroke="#1D0E46" stroke-opacity="0.4"/>
<rect width="4" height="4" rx="2" transform="matrix(1 0 0 -1 908 18)" fill="#9067FF" stroke="#1D0E46" stroke-opacity="0.4"/>
<rect width="4" height="4" rx="2" transform="matrix(1 0 0 -1 916 23)" fill="#9067FF" stroke="#1D0E46" stroke-opacity="0.4"/>
<rect width="8" height="8" rx="2" transform="matrix(1 0 0 -1 922 16)" fill="#9067FF" stroke="#1D0E46" stroke-opacity="0.4"/>
<rect width="4" height="4" rx="2" transform="matrix(1 0 0 -1 929 7)" fill="#9067FF" stroke="#1D0E46" stroke-opacity="0.4"/>
<rect width="4" height="4" rx="2" transform="matrix(-1 8.74228e-08 8.74228e-08 1 941 16)" fill="#9067FF" stroke="#1D0E46" stroke-opacity="0.4"/>
<rect width="2" height="2" rx="1" transform="matrix(1 0 0 -1 925 4)" fill="#9067FF" stroke="#1D0E46" stroke-opacity="0.4"/>
<rect width="2" height="2" rx="1" transform="matrix(-1 8.74228e-08 8.74228e-08 1 945 19)" fill="#9067FF" stroke="#1D0E46" stroke-opacity="0.4"/>
<path d="M999 15L1001 15C1002.1 15 1003 14.1046 1003 13L1003 11C1003 9.89543 1002.1 9 1001 9L999 9C997.895 9 997 9.89543 997 11L997 13C997 14.1046 997.895 15 999 15Z" fill="#9067FF" stroke="#1D0E46" stroke-opacity="0.4"/>
<path d="M1081 9L1079 9C1077.9 9 1077 9.89543 1077 11L1077 13C1077 14.1046 1077.9 15 1079 15L1081 15C1082.1 15 1083 14.1046 1083 13L1083 11C1083 9.89543 1082.1 9 1081 9Z" fill="#9067FF" stroke="#1D0E46" stroke-opacity="0.4"/>
<path d="M979 8.5C979 7.67157 978.328 7 977.5 7C976.672 7 976 7.67157 976 8.5C976 9.32843 976.672 10 977.5 10C978.328 10 979 9.32843 979 8.5Z" fill="#9067FF" stroke="#1D0E46" stroke-opacity="0.4"/>
<path d="M994 5C992.895 5 992 4.10457 992 3C992 1.89543 992.895 1 994 1C995.105 1 996 1.89543 996 3C996 4.10457 995.105 5 994 5Z" fill="#9067FF" stroke="#1D0E46" stroke-opacity="0.4"/>
<path d="M994 16L994 26C994 27.1046 993.105 28 992 28L982 28C980.895 28 980 27.1046 980 26L980 16C980 14.8954 980.895 14 982 14L992 14C993.105 14 994 14.8954 994 16Z" fill="#9067FF" stroke="#1D0E46" stroke-opacity="0.4"/>
<path d="M1026 29L1018 29C1016.9 29 1016 28.1046 1016 27L1016 19C1016 17.8954 1016.9 17 1018 17L1026 17C1027.1 17 1028 17.8954 1028 19L1028 27C1028 28.1046 1027.1 29 1026 29Z" fill="#9067FF" stroke="#1D0E46" stroke-opacity="0.4"/>
<path d="M966 13L966 17C966 18.1046 966.895 19 968 19L972 19C973.105 19 974 18.1046 974 17L974 13C974 11.8954 973.105 11 972 11L968 11C966.895 11 966 11.8954 966 13Z" fill="#9067FF" stroke="#1D0E46" stroke-opacity="0.4"/>
<path d="M1012 5C1012 6.10457 1011.1 7 1010 7C1008.9 7 1008 6.10457 1008 5C1008 3.89543 1008.9 3 1010 3C1011.1 3 1012 3.89543 1012 5Z" fill="#9067FF" stroke="#1D0E46" stroke-opacity="0.4"/>
<path d="M957 20L957 24C957 25.1046 956.105 26 955 26L951 26C949.895 26 949 25.1046 949 24L949 20C949 18.8954 949.895 18 951 18L955 18C956.105 18 957 18.8954 957 20Z" fill="#9067FF" stroke="#1D0E46" stroke-opacity="0.4"/>
<path d="M1068 19C1068 17.8954 1068.9 17 1070 17C1071.1 17 1072 17.8954 1072 19C1072 20.1046 1071.1 21 1070 21C1068.9 21 1068 20.1046 1068 19Z" fill="#9067FF" stroke="#1D0E46" stroke-opacity="0.4"/>
<rect width="7" height="7" rx="2" transform="matrix(1 0 0 -1 1031 15)" fill="#9067FF" stroke="#1D0E46" stroke-opacity="0.4"/>
<rect width="4" height="4" rx="2" transform="matrix(1 0 0 -1 1044 19)" fill="#9067FF" stroke="#1D0E46" stroke-opacity="0.4"/>
</svg>
