<svg width="312" height="28" viewBox="0 0 312 28" fill="none" xmlns="http://www.w3.org/2000/svg">
<path d="M32.2253 13.6496L34.073 13.6496C35.1776 13.6496 36.073 12.7541 36.073 11.6496L36.073 9.8019C36.073 8.69733 35.1776 7.8019 34.073 7.8019L32.2253 7.8019C31.1208 7.8019 30.2253 8.69733 30.2253 9.8019L30.2253 11.6496C30.2253 12.7541 31.1208 13.6496 32.2253 13.6496Z" fill="#1D0E46"/>
<path d="M112.072 7.79944L110.224 7.79944C109.12 7.79944 108.224 8.69487 108.224 9.79944L108.224 11.6471C108.224 12.7517 109.12 13.6471 110.224 13.6471L112.072 13.6471C113.176 13.6471 114.072 12.7517 114.072 11.6471L114.072 9.79944C114.072 8.69487 113.176 7.79944 112.072 7.79944Z" fill="#1D0E46"/>
<path d="M12.6726 7.31264C12.6726 6.50531 12.0181 5.85084 11.2108 5.85084C10.4035 5.85084 9.74901 6.50531 9.74901 7.31264C9.74901 8.11997 10.4035 8.77444 11.2108 8.77444C12.0181 8.77444 12.6726 8.11997 12.6726 7.31264Z" fill="#1D0E46"/>
<path d="M27.2981 3.89938C26.2213 3.89938 25.3484 3.02648 25.3484 1.94969C25.3484 0.872907 26.2213 3.7071e-07 27.2981 3.23642e-07C28.3749 2.76575e-07 29.2478 0.872907 29.2478 1.94969C29.2478 3.02648 28.3749 3.89938 27.2981 3.89938Z" fill="#1D0E46"/>
<path d="M27.2979 14.6767L27.2979 24.3247C27.2979 25.4293 26.4024 26.3247 25.2978 26.3247L15.6498 26.3247C14.5453 26.3247 13.6498 25.4293 13.6498 24.3247L13.6498 14.6767C13.6498 13.5721 14.5453 12.6767 15.6498 12.6767L25.2979 12.6767C26.4024 12.6767 27.2979 13.5721 27.2979 14.6767Z" fill="#1D0E46"/>
<path d="M116.999 17.5496C118.076 17.5496 118.949 18.4225 118.949 19.4993C118.949 20.5761 118.076 21.449 116.999 21.449C115.922 21.449 115.049 20.5761 115.049 19.4993C115.049 18.4225 115.922 17.5496 116.999 17.5496Z" fill="#1D0E46"/>
<path d="M58.4484 27.2998L50.7521 27.2998C49.6475 27.2998 48.7521 26.4044 48.7521 25.2998L48.7521 17.6035C48.7521 16.499 49.6475 15.6035 50.7521 15.6035L58.4484 15.6035C59.5529 15.6035 60.4484 16.499 60.4484 17.6035L60.4484 25.2998C60.4484 26.4044 59.5529 27.2998 58.4484 27.2998Z" fill="#1D0E46"/>
<path d="M-2.60026e-05 11.7521L-2.58366e-05 15.5496C-2.57883e-05 16.6542 0.895404 17.5496 1.99997 17.5496L5.79749 17.5496C6.90205 17.5496 7.79749 16.6542 7.79749 15.5496L7.79749 11.7521C7.79749 10.6475 6.90206 9.75211 5.79749 9.75211L1.99997 9.75211C0.895404 9.75211 -2.60509e-05 10.6475 -2.60026e-05 11.7521Z" fill="#1D0E46"/>
<path d="M44.848 3.89975C44.848 4.97653 43.9751 5.84944 42.8983 5.84944C41.8215 5.84944 40.9486 4.97653 40.9486 3.89975C40.9486 2.82296 41.8215 1.95006 42.8983 1.95006C43.9751 1.95006 44.848 2.82296 44.848 3.89975Z" fill="#1D0E46"/>
<path d="M99.449 17.5493C99.449 16.4725 100.322 15.5996 101.399 15.5996C102.475 15.5996 103.348 16.4725 103.348 17.5493C103.348 18.6261 102.475 19.499 101.399 19.499C100.322 19.499 99.449 18.6261 99.449 17.5493Z" fill="#1D0E46"/>
<rect width="6.82227" height="6.82227" rx="2" transform="matrix(1 0 0 -1 63.3734 13.6496)" fill="#1D0E46"/>
<rect width="3.89938" height="3.89938" rx="1.94969" transform="matrix(1 0 0 -1 76.0487 17.5496)" fill="#1D0E46"/>
<rect width="5.84766" height="5.84766" rx="2" transform="matrix(1 0 0 -1 86.7738 22.4247)" fill="#1D0E46"/>
<rect width="8.7722" height="8.7722" rx="2" transform="matrix(1 0 0 -1 123.824 23.3997)" fill="#1D0E46"/>
<rect width="3.89938" height="3.89938" rx="1.94969" transform="matrix(1 0 0 -1 141.375 16.5746)" fill="#1D0E46"/>
<rect width="3.89938" height="3.89938" rx="1.94969" transform="matrix(1 0 0 -1 149.175 21.4497)" fill="#1D0E46"/>
<rect width="7.79751" height="7.79751" rx="2" transform="matrix(1 0 0 -1 155.025 14.6246)" fill="#1D0E46"/>
<rect width="3.89938" height="3.89938" rx="1.94969" transform="matrix(1 0 0 -1 161.85 5.84944)" fill="#1D0E46"/>
<rect width="3.89938" height="3.89938" rx="1.94969" transform="matrix(-1 8.74228e-08 8.74228e-08 1 173.55 14.6246)" fill="#1D0E46"/>
<rect width="1.94875" height="1.94875" rx="0.974375" transform="matrix(1 0 0 -1 157.95 2.92439)" fill="#1D0E46"/>
<rect width="1.94875" height="1.94875" rx="0.974375" transform="matrix(-1 8.74228e-08 8.74228e-08 1 177.45 17.5496)" fill="#1D0E46"/>
<path d="M230.154 13.6496L232.001 13.6496C233.106 13.6496 234.001 12.7541 234.001 11.6496L234.001 9.8019C234.001 8.69733 233.106 7.8019 232.001 7.8019L230.154 7.8019C229.049 7.8019 228.154 8.69733 228.154 9.8019L228.154 11.6496C228.154 12.7541 229.049 13.6496 230.154 13.6496Z" fill="#1D0E46"/>
<path d="M310 7.79944L308.152 7.79944C307.048 7.79944 306.152 8.69487 306.152 9.79944L306.152 11.6471C306.152 12.7517 307.048 13.6471 308.152 13.6471L310 13.6471C311.105 13.6471 312 12.7517 312 11.6471L312 9.79944C312 8.69487 311.105 7.79944 310 7.79944Z" fill="#1D0E46"/>
<path d="M210.601 7.31264C210.601 6.50531 209.947 5.85084 209.139 5.85084C208.332 5.85084 207.677 6.50531 207.677 7.31264C207.677 8.11997 208.332 8.77444 209.139 8.77444C209.947 8.77444 210.601 8.11997 210.601 7.31264Z" fill="#1D0E46"/>
<path d="M225.227 3.89938C224.15 3.89938 223.277 3.02648 223.277 1.94969C223.277 0.872907 224.15 3.7071e-07 225.227 3.23642e-07C226.303 2.76575e-07 227.176 0.872907 227.176 1.94969C227.176 3.02648 226.303 3.89938 225.227 3.89938Z" fill="#1D0E46"/>
<path d="M225.226 14.6767L225.226 24.3247C225.226 25.4293 224.331 26.3247 223.226 26.3247L213.578 26.3247C212.473 26.3247 211.578 25.4293 211.578 24.3247L211.578 14.6767C211.578 13.5721 212.473 12.6767 213.578 12.6767L223.226 12.6767C224.331 12.6767 225.226 13.5721 225.226 14.6767Z" fill="#1D0E46"/>
<path d="M256.377 27.2998L248.68 27.2998C247.576 27.2998 246.68 26.4044 246.68 25.2998L246.68 17.6035C246.68 16.499 247.576 15.6035 248.68 15.6035L256.377 15.6035C257.481 15.6035 258.377 16.499 258.377 17.6035L258.377 25.2998C258.377 26.4044 257.481 27.2998 256.377 27.2998Z" fill="#1D0E46"/>
<path d="M197.928 11.7521L197.928 15.5496C197.928 16.6542 198.824 17.5496 199.928 17.5496L203.726 17.5496C204.83 17.5496 205.726 16.6542 205.726 15.5496L205.726 11.7521C205.726 10.6475 204.83 9.75211 203.726 9.75211L199.928 9.75211C198.824 9.75211 197.928 10.6475 197.928 11.7521Z" fill="#1D0E46"/>
<path d="M242.776 3.89975C242.776 4.97653 241.903 5.84944 240.827 5.84944C239.75 5.84944 238.877 4.97653 238.877 3.89975C238.877 2.82296 239.75 1.95006 240.827 1.95006C241.903 1.95006 242.776 2.82296 242.776 3.89975Z" fill="#1D0E46"/>
<path d="M189.15 18.5772L189.15 22.3747C189.15 23.4793 188.255 24.3747 187.15 24.3747L183.353 24.3747C182.248 24.3747 181.353 23.4793 181.353 22.3747L181.353 18.5772C181.353 17.4727 182.248 16.5772 183.353 16.5772L187.15 16.5772C188.255 16.5772 189.15 17.4727 189.15 18.5772Z" fill="#1D0E46"/>
<path d="M297.377 17.5493C297.377 16.4725 298.25 15.5996 299.327 15.5996C300.404 15.5996 301.277 16.4725 301.277 17.5493C301.277 18.6261 300.404 19.499 299.327 19.499C298.25 19.499 297.377 18.6261 297.377 17.5493Z" fill="#1D0E46"/>
<rect width="6.82227" height="6.82227" rx="2" transform="matrix(1 0 0 -1 261.302 13.6496)" fill="#1D0E46"/>
<rect width="3.89938" height="3.89938" rx="1.94969" transform="matrix(1 0 0 -1 273.977 17.5496)" fill="#1D0E46"/>
</svg>
