<svg width="16" height="17" viewBox="0 0 16 17" fill="none" xmlns="http://www.w3.org/2000/svg">
<g filter="url(#filter0_d_124_6789)">
<mask id="path-1-outside-1_124_6789" maskUnits="userSpaceOnUse" x="0" y="0" width="16" height="16" fill="black">
<rect fill="white" width="16" height="16"/>
<path d="M3.15385 12.8461H2.07693V13.9231H3.15385V12.8461Z"/>
<path d="M4.23077 11.7692H3.15385L3.15385 12.8461L4.23077 12.8462V11.7692Z"/>
<path d="M8.53848 7.46153H7.46155V8.53846H8.53848V7.46153Z"/>
<path d="M9.61539 6.38462H8.53847L8.53848 7.46153L9.61539 7.46154V6.38462Z"/>
<path d="M13.9231 2.07692H12.8462V3.15384H13.9231V2.07692Z"/>
<path d="M12.8462 3.15384L11.7693 3.15385V4.23077H12.8462L12.8462 3.15384Z"/>
<path d="M10.6923 5.30769H9.61539L9.61539 6.38462L10.6923 6.38461V5.30769Z"/>
<path d="M5.30768 10.6923H4.23076L4.23077 11.7692L5.30768 11.7692V10.6923Z"/>
<path d="M6.38464 9.61538H5.30772L5.30768 10.6923L6.38464 10.6923V9.61538Z"/>
<path d="M7.46155 8.53846L6.38464 8.53846L6.38464 9.61538L7.46156 9.61538L7.46155 8.53846Z"/>
<path d="M4.23077 12.8462L3.15385 12.8461V13.9231H4.23076L4.23077 12.8462Z"/>
<path d="M5.30768 11.7692L4.23077 11.7692V12.8462H5.30767L5.30768 11.7692Z"/>
<path d="M10.6923 6.38461L9.61539 6.38462V7.46154H10.6923L10.6923 6.38461Z"/>
<path d="M9.61539 7.46154L8.53848 7.46153V8.53846H9.61538L9.61539 7.46154Z"/>
<path d="M11.7692 5.30769H10.6923V6.38461H11.7692V5.30769Z"/>
<path d="M2.07693 13.9231V12.8461H1V15H3.15385L3.15385 13.9231H2.07693Z"/>
<path d="M3.15385 11.7692H2.07692L2.07693 12.8461H3.15385L3.15385 11.7692Z"/>
<path d="M4.23076 10.6923H3.15383L3.15385 11.7692H4.23077L4.23076 10.6923Z"/>
<path d="M8.53847 6.38462H7.46154L7.46155 7.46153H8.53848L8.53847 6.38462Z"/>
<path d="M9.61539 5.30769H8.53846L8.53847 6.38462H9.61539L9.61539 5.30769Z"/>
<path d="M10.6923 4.23076H9.61537L9.61539 5.30769H10.6923L10.6923 4.23076Z"/>
<path d="M12.8462 2.07692H11.7693L11.7693 3.15385L12.8462 3.15384V2.07692Z"/>
<path d="M13.9231 3.15384H12.8462L12.8462 4.23077H13.9231L13.9231 3.15384Z"/>
<path d="M7.46156 9.61538L6.38464 9.61538V10.6923H7.46155L7.46156 9.61538Z"/>
<path d="M6.38464 10.6923L5.30768 10.6923V11.7692H6.38463L6.38464 10.6923Z"/>
<path d="M8.53848 8.53846H7.46155L7.46156 9.61538H8.53846L8.53848 8.53846Z"/>
<path d="M5.30772 9.61538H4.23075L4.23076 10.6923H5.30768L5.30772 9.61538Z"/>
<path d="M6.38464 8.53846H5.30771L5.30772 9.61538H6.38464L6.38464 8.53846Z"/>
<path d="M7.46155 7.46153H6.38463L6.38464 8.53846L7.46155 8.53846V7.46153Z"/>
<path d="M9.61544 3.15384H5.30775V4.23077L9.61537 4.23076L9.61544 3.15384Z"/>
<path d="M5.30771 2.07693H4.23079V3.15385L5.30775 3.15384L5.30771 2.07693Z"/>
<path d="M10.6924 1H5.30775L5.30771 2.07693L10.6924 2.07692V1Z"/>
<path d="M11.7693 2.07692L10.6924 2.07692L10.6923 3.15385L11.7693 3.15385L11.7693 2.07692Z"/>
<path d="M13.9231 4.23077H12.8462L12.8462 5.30769H13.9231L13.9231 4.23077Z"/>
<path d="M12.8462 6.38461L11.7692 6.38461L11.7693 10.6923H12.8462V6.38461Z"/>
<path d="M15 5.30769L13.9231 5.30769L13.9231 10.6923H15V5.30769Z"/>
<path d="M13.9231 10.6923L12.8462 10.6923L12.8462 11.7692H13.9231L13.9231 10.6923Z"/>
<path d="M5.30771 2.07693L5.30775 3.15384H9.61544L9.61537 4.23076H10.6923L10.6923 5.30769H11.7692V6.38461L12.8462 6.38461V10.6923L13.9231 10.6923L13.9231 5.30769H12.8462L12.8462 4.23077H11.7693V3.15385L10.6923 3.15385L10.6924 2.07692L5.30771 2.07693Z"/>
</mask>
<path d="M3.15385 12.8461H2.07693V13.9231H3.15385V12.8461Z" fill="#B76648"/>
<path d="M4.23077 11.7692H3.15385L3.15385 12.8461L4.23077 12.8462V11.7692Z" fill="#B76648"/>
<path d="M8.53848 7.46153H7.46155V8.53846H8.53848V7.46153Z" fill="#B76648"/>
<path d="M9.61539 6.38462H8.53847L8.53848 7.46153L9.61539 7.46154V6.38462Z" fill="#B76648"/>
<path d="M13.9231 2.07692H12.8462V3.15384H13.9231V2.07692Z" fill="#B76648"/>
<path d="M12.8462 3.15384L11.7693 3.15385V4.23077H12.8462L12.8462 3.15384Z" fill="#B76648"/>
<path d="M10.6923 5.30769H9.61539L9.61539 6.38462L10.6923 6.38461V5.30769Z" fill="#B76648"/>
<path d="M5.30768 10.6923H4.23076L4.23077 11.7692L5.30768 11.7692V10.6923Z" fill="#B76648"/>
<path d="M6.38464 9.61538H5.30772L5.30768 10.6923L6.38464 10.6923V9.61538Z" fill="#B76648"/>
<path d="M7.46155 8.53846L6.38464 8.53846L6.38464 9.61538L7.46156 9.61538L7.46155 8.53846Z" fill="#B76648"/>
<path d="M4.23077 12.8462L3.15385 12.8461V13.9231H4.23076L4.23077 12.8462Z" fill="#37474F"/>
<path d="M5.30768 11.7692L4.23077 11.7692V12.8462H5.30767L5.30768 11.7692Z" fill="#37474F"/>
<path d="M10.6923 6.38461L9.61539 6.38462V7.46154H10.6923L10.6923 6.38461Z" fill="#37474F"/>
<path d="M9.61539 7.46154L8.53848 7.46153V8.53846H9.61538L9.61539 7.46154Z" fill="#37474F"/>
<path d="M11.7692 5.30769H10.6923V6.38461H11.7692V5.30769Z" fill="#37474F"/>
<path d="M2.07693 13.9231V12.8461H1V15H3.15385L3.15385 13.9231H2.07693Z" fill="#37474F"/>
<path d="M3.15385 11.7692H2.07692L2.07693 12.8461H3.15385L3.15385 11.7692Z" fill="#37474F"/>
<path d="M4.23076 10.6923H3.15383L3.15385 11.7692H4.23077L4.23076 10.6923Z" fill="#37474F"/>
<path d="M8.53847 6.38462H7.46154L7.46155 7.46153H8.53848L8.53847 6.38462Z" fill="#37474F"/>
<path d="M9.61539 5.30769H8.53846L8.53847 6.38462H9.61539L9.61539 5.30769Z" fill="#37474F"/>
<path d="M10.6923 4.23076H9.61537L9.61539 5.30769H10.6923L10.6923 4.23076Z" fill="#37474F"/>
<path d="M12.8462 2.07692H11.7693L11.7693 3.15385L12.8462 3.15384V2.07692Z" fill="#37474F"/>
<path d="M13.9231 3.15384H12.8462L12.8462 4.23077H13.9231L13.9231 3.15384Z" fill="#37474F"/>
<path d="M7.46156 9.61538L6.38464 9.61538V10.6923H7.46155L7.46156 9.61538Z" fill="#37474F"/>
<path d="M6.38464 10.6923L5.30768 10.6923V11.7692H6.38463L6.38464 10.6923Z" fill="#37474F"/>
<path d="M8.53848 8.53846H7.46155L7.46156 9.61538H8.53846L8.53848 8.53846Z" fill="#37474F"/>
<path d="M5.30772 9.61538H4.23075L4.23076 10.6923H5.30768L5.30772 9.61538Z" fill="#37474F"/>
<path d="M6.38464 8.53846H5.30771L5.30772 9.61538H6.38464L6.38464 8.53846Z" fill="#37474F"/>
<path d="M7.46155 7.46153H6.38463L6.38464 8.53846L7.46155 8.53846V7.46153Z" fill="#37474F"/>
<path d="M9.61544 3.15384H5.30775V4.23077L9.61537 4.23076L9.61544 3.15384Z" fill="#00BCD4"/>
<path d="M5.30771 2.07693H4.23079V3.15385L5.30775 3.15384L5.30771 2.07693Z" fill="#00BCD4"/>
<path d="M10.6924 1H5.30775L5.30771 2.07693L10.6924 2.07692V1Z" fill="#00BCD4"/>
<path d="M11.7693 2.07692L10.6924 2.07692L10.6923 3.15385L11.7693 3.15385L11.7693 2.07692Z" fill="#00BCD4"/>
<path d="M13.9231 4.23077H12.8462L12.8462 5.30769H13.9231L13.9231 4.23077Z" fill="#00BCD4"/>
<path d="M12.8462 6.38461L11.7692 6.38461L11.7693 10.6923H12.8462V6.38461Z" fill="#00BCD4"/>
<path d="M15 5.30769L13.9231 5.30769L13.9231 10.6923H15V5.30769Z" fill="#00BCD4"/>
<path d="M13.9231 10.6923L12.8462 10.6923L12.8462 11.7692H13.9231L13.9231 10.6923Z" fill="#00BCD4"/>
<path d="M5.30771 2.07693L5.30775 3.15384H9.61544L9.61537 4.23076H10.6923L10.6923 5.30769H11.7692V6.38461L12.8462 6.38461V10.6923L13.9231 10.6923L13.9231 5.30769H12.8462L12.8462 4.23077H11.7693V3.15385L10.6923 3.15385L10.6924 2.07692L5.30771 2.07693Z" fill="#4DD0E1"/>
<path d="M2.07693 12.8461V12.5961H1.82693V12.8461H2.07693ZM3.15385 13.9231V14.1731H3.40385V13.9231H3.15385ZM2.07693 13.9231H1.82693V14.1731H2.07693V13.9231ZM3.15385 11.7692V11.5192H2.90384L2.90385 11.7692L3.15385 11.7692ZM4.23077 12.8462L4.23077 13.0962L4.48077 13.0962V12.8462H4.23077ZM7.46155 7.46153V7.21153H7.21155V7.46153H7.46155ZM8.53848 8.53846V8.78846H8.78848V8.53846H8.53848ZM8.53847 6.38462V6.13462H8.28847L8.28847 6.38462L8.53847 6.38462ZM9.61539 7.46154L9.61539 7.71154L9.86539 7.71154V7.46154H9.61539ZM11.7693 4.23077H11.5193V4.48077H11.7693V4.23077ZM9.61539 5.30769V5.05769H9.36539L9.36539 5.30769L9.61539 5.30769ZM10.6923 6.38461L10.6923 6.63461L10.9423 6.63461V6.38461H10.6923ZM4.23076 10.6923V10.4423H3.98076L3.98076 10.6923L4.23076 10.6923ZM5.30768 11.7692L5.30769 12.0192L5.55768 12.0192V11.7692H5.30768ZM5.30772 9.61538V9.36538H5.05773L5.05772 9.61537L5.30772 9.61538ZM6.38464 10.6923L6.38464 10.9423L6.63464 10.9423V10.6923H6.38464ZM6.38464 8.53846L6.38464 8.28846L6.13464 8.28846L6.13464 8.53846L6.38464 8.53846ZM7.46156 9.61538L7.46156 9.86538L7.71156 9.86539L7.71156 9.61538L7.46156 9.61538ZM11.7692 5.30769H12.0192V5.05769H11.7692V5.30769ZM11.7692 6.38461H11.5192V6.63461H11.7692V6.38461ZM9.61537 4.23076L9.36537 4.23075L9.36536 4.48076H9.61537V4.23076ZM10.6923 4.23076L10.9423 4.23076L10.9423 3.98076H10.6923V4.23076ZM5.30775 3.15384L5.05775 3.15385L5.05775 3.40384H5.30775V3.15384ZM9.61544 3.15384L9.86544 3.15386L9.86545 2.90384H9.61544V3.15384ZM5.30771 2.07693V1.82693L5.0577 1.82693L5.05771 2.07694L5.30771 2.07693ZM10.6924 2.07692L10.9424 2.07693L10.9424 1.82692L10.6924 1.82692V2.07692ZM10.6923 3.15385L10.4423 3.15384L10.4423 3.40385L10.6923 3.40385L10.6923 3.15385ZM13.9231 5.30769L14.1731 5.30769V5.05769H13.9231V5.30769ZM12.8462 5.30769L12.5962 5.3077L12.5962 5.55769H12.8462V5.30769ZM12.8462 6.38461H13.0962V6.13461H12.8462V6.38461ZM12.8462 10.6923H12.5962V10.9423L12.8462 10.9423L12.8462 10.6923ZM13.9231 10.6923L13.9231 10.9423L14.1731 10.9423V10.6923H13.9231ZM2.07693 13.0961H3.15385V12.5961H2.07693V13.0961ZM2.90385 12.8461V13.9231H3.40385V12.8461H2.90385ZM3.15385 13.6731H2.07693V14.1731H3.15385V13.6731ZM2.32693 13.9231V12.8461H1.82693V13.9231H2.32693ZM3.15385 12.0192H4.23077V11.5192H3.15385V12.0192ZM3.98077 11.7692V12.8462H4.48077V11.7692H3.98077ZM4.23077 12.5962L3.15385 12.5961L3.15385 13.0961L4.23077 13.0962L4.23077 12.5962ZM3.40385 12.8461L3.40385 11.7692L2.90385 11.7692L2.90385 12.8462L3.40385 12.8461ZM7.46155 7.71153H8.53848V7.21153H7.46155V7.71153ZM8.28848 7.46153V8.53846H8.78848V7.46153H8.28848ZM8.53848 8.28846H7.46155V8.78846H8.53848V8.28846ZM7.71155 8.53846V7.46153H7.21155V8.53846H7.71155ZM8.53847 6.63462H9.61539V6.13462H8.53847V6.63462ZM9.36539 6.38462V7.46154H9.86539V6.38462H9.36539ZM9.6154 7.21154L8.53848 7.21153L8.53848 7.71153L9.61539 7.71154L9.6154 7.21154ZM8.78848 7.46153L8.78847 6.38462L8.28847 6.38462L8.28848 7.46154L8.78848 7.46153ZM13.9231 2.90384H12.8462V3.40384H13.9231V2.90384ZM13.0962 3.15384V2.07692H12.5962V3.15384H13.0962ZM11.7693 3.40385L12.8462 3.40384L12.8462 2.90384L11.7693 2.90385L11.7693 3.40385ZM12.5962 3.15384L12.5962 4.23077L13.0962 4.23077L13.0962 3.15384L12.5962 3.15384ZM12.8462 3.98077H11.7693V4.48077H12.8462V3.98077ZM12.0193 4.23077V3.15385H11.5193V4.23077H12.0193ZM9.61539 5.55769H10.6923V5.05769H9.61539V5.55769ZM10.4423 5.30769V6.38461H10.9423V5.30769H10.4423ZM10.6923 6.13461L9.61539 6.13462L9.61539 6.63462L10.6923 6.63461L10.6923 6.13461ZM9.86539 6.38462L9.86539 5.30769L9.36539 5.30769L9.36539 6.38462L9.86539 6.38462ZM4.23076 10.9423H5.30768V10.4423H4.23076V10.9423ZM5.05768 10.6923V11.7692H5.55768V10.6923H5.05768ZM5.30768 11.5192L4.23077 11.5192L4.23077 12.0192L5.30769 12.0192L5.30768 11.5192ZM4.48077 11.7692L4.48076 10.6923L3.98076 10.6923L3.98077 11.7692L4.48077 11.7692ZM5.30772 9.86538H6.38464V9.36538H5.30772V9.86538ZM6.13464 9.61538V10.6923H6.63464V9.61538H6.13464ZM6.38464 10.4423L5.30768 10.4423L5.30769 10.9423L6.38464 10.9423L6.38464 10.4423ZM5.55768 10.6923L5.55772 9.61539L5.05772 9.61537L5.05768 10.6923L5.55768 10.6923ZM6.38464 8.78846L7.46155 8.78846L7.46155 8.28846L6.38464 8.28846L6.38464 8.78846ZM7.21155 8.53846L7.21156 9.61539L7.71156 9.61538L7.71155 8.53846L7.21155 8.53846ZM7.46156 9.36538L6.38465 9.36538L6.38464 9.86538L7.46156 9.86538L7.46156 9.36538ZM6.63464 9.61538L6.63464 8.53846L6.13464 8.53846L6.13464 9.61538L6.63464 9.61538ZM10.6923 5.55769H11.7692V5.05769H10.6923V5.55769ZM11.5192 5.30769V6.38461H12.0192V5.30769H11.5192ZM9.61537 4.48076H10.6923V3.98076H9.61537V4.48076ZM10.4423 4.23077L10.4423 5.30769L10.9423 5.30769L10.9423 4.23076L10.4423 4.23077ZM12.0193 3.15384L12.0193 2.07692L11.5193 2.07692L11.5193 3.15385L12.0193 3.15384ZM13.9231 3.98077H12.8462V4.48077H13.9231V3.98077ZM5.30775 3.40384H9.61544V2.90384H5.30775V3.40384ZM9.36544 3.15383L9.36537 4.23075L9.86537 4.23078L9.86544 3.15386L9.36544 3.15383ZM5.05771 2.07694L5.05775 3.15385L5.55775 3.15384L5.55771 2.07692L5.05771 2.07694ZM10.6924 1.82692L5.30771 1.82693V2.32693L10.6924 2.32692V1.82692ZM11.7693 2.90385L10.6923 2.90385L10.6923 3.40385L11.7693 3.40385L11.7693 2.90385ZM10.9423 3.15386L10.9424 2.07693L10.4424 2.07692L10.4423 3.15384L10.9423 3.15386ZM13.9231 5.05769H12.8462V5.55769H13.9231V5.05769ZM13.0962 5.30769L13.0962 4.23077L12.5962 4.23077L12.5962 5.3077L13.0962 5.30769ZM11.7692 6.63461L12.8462 6.63461V6.13461L11.7692 6.13461V6.63461ZM12.5962 6.38461V10.6923H13.0962V6.38461H12.5962ZM14.1731 10.6923L14.1731 5.30769L13.6731 5.30769L13.6731 10.6923H14.1731ZM12.8462 10.9423L13.9231 10.9423L13.9231 10.4423L12.8462 10.4423L12.8462 10.9423ZM2.07693 12.8461V13.3461H2.57693L2.57693 12.8461L2.07693 12.8461ZM3.15385 13.9231V13.4231H2.65385L2.65385 13.9231L3.15385 13.9231ZM3.15385 11.7692V12.2692H3.65385L3.65385 11.7692L3.15385 11.7692ZM4.23077 12.8462V12.3462H3.73077L3.73077 12.8461L4.23077 12.8462ZM7.46155 7.46153V7.96153H7.96156L7.96155 7.46153L7.46155 7.46153ZM8.53848 8.53846V8.03846H8.03848L8.03848 8.53845L8.53848 8.53846ZM8.53847 6.38462V6.88462H9.03848L9.03847 6.38461L8.53847 6.38462ZM9.61539 7.46154V6.96154H9.1154L9.11539 7.46154L9.61539 7.46154ZM13.9231 2.07692H14.4231V1.57692H13.9231V2.07692ZM13.9231 3.15384L14.4231 3.15385V3.15384H13.9231ZM9.61539 5.30769V5.80769H10.1154L10.1154 5.30768L9.61539 5.30769ZM10.6923 6.38461V5.88461H10.1923L10.1923 6.38461L10.6923 6.38461ZM4.23076 10.6923V11.1923H4.73077L4.73076 10.6923L4.23076 10.6923ZM5.30768 11.7692V11.2692H4.80769L4.80768 11.7692L5.30768 11.7692ZM5.30772 9.61538V10.1154H5.80773L5.80772 9.61537L5.30772 9.61538ZM6.38464 10.6923V10.1923H5.88465L5.88464 10.6923L6.38464 10.6923ZM6.38464 8.53846V9.03846H6.88464L6.88464 8.53846L6.38464 8.53846ZM7.46156 9.61538V9.11538H6.96157L6.96156 9.61538L7.46156 9.61538ZM4.23076 13.9231V14.4231H4.73075L4.73076 13.9231L4.23076 13.9231ZM5.30767 12.8462V13.3462H5.80767L5.80767 12.8462L5.30767 12.8462ZM10.6923 7.46154V7.96154H11.1923L11.1923 7.46155L10.6923 7.46154ZM9.61538 8.53846V9.03846H10.1154L10.1154 8.53846L9.61538 8.53846ZM11.7692 6.38461L12.2692 6.3846L12.2692 5.88461H11.7692V6.38461ZM1 12.8461V12.3461H0.5V12.8461H1ZM1 15H0.5V15.5H1V15ZM3.15385 15V15.5H3.65384L3.65385 15L3.15385 15ZM2.07692 11.7692V11.2692H1.57691L1.57692 11.7692L2.07692 11.7692ZM3.15383 10.6923V10.1923H2.65383L2.65383 10.6923L3.15383 10.6923ZM7.46154 6.38462V5.88462H6.96154L6.96154 6.38462L7.46154 6.38462ZM8.53846 5.30769V4.80769H8.03845L8.03846 5.3077L8.53846 5.30769ZM9.61537 4.23076L10.1154 4.23076L10.1154 3.73076L9.61537 3.73076V4.23076ZM11.7693 2.07692V1.57692H11.7692L11.7693 2.07692ZM13.9231 4.23077L13.4231 4.23076V4.23079L13.9231 4.23077ZM7.46155 10.6923V11.1923H7.96154L7.96155 10.6923L7.46155 10.6923ZM6.38463 11.7692V12.2692H6.88463L6.88463 11.7692L6.38463 11.7692ZM8.53846 9.61538V10.1154H9.03846L9.03846 9.61539L8.53846 9.61538ZM4.23075 9.61538V9.11538H3.73074L3.73075 9.61538L4.23075 9.61538ZM5.30771 8.53846V8.03846H4.8077L4.80771 8.53847L5.30771 8.53846ZM6.38463 7.46153V6.96153H5.88462L5.88463 7.46154L6.38463 7.46153ZM5.30775 3.15384H5.80775V2.65384L5.30774 2.65384L5.30775 3.15384ZM5.30775 4.23077H4.80775V4.73077L5.30775 4.73077L5.30775 4.23077ZM4.23079 2.07693V1.57693H3.73079V2.07693H4.23079ZM5.30771 2.07693V2.57693H5.80769L5.80771 2.07694L5.30771 2.07693ZM4.23079 3.15385H3.73079V3.65385L4.23079 3.65385L4.23079 3.15385ZM5.30775 1V0.5H4.80776L4.80775 0.999983L5.30775 1ZM10.6924 1H11.1924V0.5H10.6924V1ZM10.6924 2.07692H10.1924V2.57692L10.6924 2.57692L10.6924 2.07692ZM13.9231 5.30769L13.4231 5.30771L13.4231 5.8077L13.9231 5.80769L13.9231 5.30769ZM12.8462 10.6923L13.3462 10.6923L13.3462 10.1923H12.8462V10.6923ZM11.7693 10.6923L11.2693 10.6923L11.2693 11.1923H11.7693V10.6923ZM15 5.30769H15.5V4.80768L15 4.80769L15 5.30769ZM15 10.6923V11.1923H15.5V10.6923H15ZM13.9231 10.6923V10.1923H13.4231L13.4231 10.6923L13.9231 10.6923ZM13.9231 11.7692V12.2692H14.4231L14.4231 11.7692L13.9231 11.7692ZM12.8462 11.7692L12.3462 11.7692L12.3462 12.2692H12.8462V11.7692ZM12.8462 2.57692H13.9231V1.57692H12.8462V2.57692ZM13.4231 2.07692V3.15384H14.4231V2.07692H13.4231ZM3.73077 12.8461L3.73076 13.9231L4.73076 13.9231L4.73077 12.8462L3.73077 12.8461ZM4.23076 13.4231H3.15385V14.4231H4.23076V13.4231ZM4.80768 11.7692L4.80767 12.8461L5.80767 12.8462L5.80768 11.7692L4.80768 11.7692ZM5.30767 12.3462H4.23077V13.3462H5.30767V12.3462ZM10.1923 6.38461L10.1923 7.46154L11.1923 7.46155L11.1923 6.38462L10.1923 6.38461ZM10.6923 6.96154H9.61539V7.96154H10.6923V6.96154ZM9.11539 7.46154L9.11538 8.53845L10.1154 8.53846L10.1154 7.46155L9.11539 7.46154ZM9.61538 8.03846H8.53848V9.03846H9.61538V8.03846ZM11.7692 5.88461H10.6923V6.88461H11.7692V5.88461ZM2.07693 12.3461H1V13.3461H2.07693V12.3461ZM0.5 12.8461V15H1.5V12.8461H0.5ZM1 15.5H3.15385V14.5H1V15.5ZM3.65385 15L3.65385 13.9231L2.65385 13.9231L2.65385 15L3.65385 15ZM2.07692 12.2692H3.15385V11.2692H2.07692V12.2692ZM2.57693 12.8461L2.57692 11.7692L1.57692 11.7692L1.57693 12.8462L2.57693 12.8461ZM3.15383 11.1923H4.23076V10.1923H3.15383V11.1923ZM3.65385 11.7692L3.65383 10.6923L2.65383 10.6923L2.65385 11.7692L3.65385 11.7692ZM7.46154 6.88462H8.53847V5.88462H7.46154V6.88462ZM7.96155 7.46153L7.96154 6.38461L6.96154 6.38462L6.96155 7.46154L7.96155 7.46153ZM8.53846 5.80769H9.61539V4.80769H8.53846V5.80769ZM9.03847 6.38461L9.03846 5.30768L8.03846 5.3077L8.03847 6.38462L9.03847 6.38461ZM10.1154 5.30768L10.1154 4.23076L9.11537 4.23077L9.11539 5.3077L10.1154 5.30768ZM11.7693 2.57692H12.8462V1.57692H11.7693V2.57692ZM13.4231 3.15384L13.4231 4.23076L14.4231 4.23078L14.4231 3.15385L13.4231 3.15384ZM6.96156 9.61538L6.96155 10.6923L7.96155 10.6923L7.96156 9.61539L6.96156 9.61538ZM7.46155 10.1923H6.38464V11.1923H7.46155V10.1923ZM5.88464 10.6923L5.88463 11.7692L6.88463 11.7692L6.88464 10.6923L5.88464 10.6923ZM6.38463 11.2692H5.30768V12.2692H6.38463V11.2692ZM8.03848 8.53845L8.03846 9.61538L9.03846 9.61539L9.03848 8.53846L8.03848 8.53845ZM8.53846 9.11538H7.46156V10.1154H8.53846V9.11538ZM4.23075 10.1154H5.30772V9.11538H4.23075V10.1154ZM4.73076 10.6923L4.73075 9.61537L3.73075 9.61538L3.73076 10.6923L4.73076 10.6923ZM5.30771 9.03846H6.38464V8.03846H5.30771V9.03846ZM5.80772 9.61537L5.80771 8.53846L4.80771 8.53847L4.80772 9.61538L5.80772 9.61537ZM6.38463 7.96153H7.46155V6.96153H6.38463V7.96153ZM6.88464 8.53846L6.88463 7.46153L5.88463 7.46154L5.88464 8.53847L6.88464 8.53846ZM9.61537 3.73076L5.30774 3.73077L5.30775 4.73077L9.61537 4.73076V3.73076ZM5.80775 4.23077V3.15384H4.80775V4.23077H5.80775ZM4.23079 2.57693H5.30771V1.57693H4.23079V2.57693ZM5.30774 2.65384L4.23078 2.65385L4.23079 3.65385L5.30775 3.65384L5.30774 2.65384ZM4.73079 3.15385V2.07693H3.73079V3.15385H4.73079ZM5.30775 1.5H10.6924V0.5H5.30775V1.5ZM10.1924 1V2.07692H11.1924V1H10.1924ZM5.80771 2.07694L5.80775 1.00002L4.80775 0.999983L4.80771 2.07691L5.80771 2.07694ZM10.6924 2.57692L11.7693 2.57692L11.7692 1.57692L10.6924 1.57692L10.6924 2.57692ZM13.4231 4.23079L13.4231 5.30771L14.4231 5.30768L14.4231 4.23075L13.4231 4.23079ZM12.8462 10.1923H11.7693V11.1923H12.8462V10.1923ZM12.2693 10.6923L12.2692 6.3846L11.2692 6.38462L11.2693 10.6923L12.2693 10.6923ZM13.9231 5.80769L15 5.80769L15 4.80769L13.9231 4.80769L13.9231 5.80769ZM14.5 5.30769V10.6923H15.5V5.30769H14.5ZM15 10.1923H13.9231V11.1923H15V10.1923ZM13.4231 10.6923L13.4231 11.7692L14.4231 11.7692L14.4231 10.6923L13.4231 10.6923ZM13.9231 11.2692H12.8462V12.2692H13.9231V11.2692ZM13.3462 11.7692L13.3462 10.6923L12.3462 10.6923L12.3462 11.7692L13.3462 11.7692Z" fill="#1D0E46" mask="url(#path-1-outside-1_124_6789)"/>
</g>
<defs>
<filter id="filter0_d_124_6789" x="0.5" y="0.5" width="15.0001" height="16" filterUnits="userSpaceOnUse" color-interpolation-filters="sRGB">
<feFlood flood-opacity="0" result="BackgroundImageFix"/>
<feColorMatrix in="SourceAlpha" type="matrix" values="0 0 0 0 0 0 0 0 0 0 0 0 0 0 0 0 0 0 127 0" result="hardAlpha"/>
<feOffset dy="1"/>
<feComposite in2="hardAlpha" operator="out"/>
<feColorMatrix type="matrix" values="0 0 0 0 0 0 0 0 0 0 0 0 0 0 0 0 0 0 1 0"/>
<feBlend mode="normal" in2="BackgroundImageFix" result="effect1_dropShadow_124_6789"/>
<feBlend mode="normal" in="SourceGraphic" in2="effect1_dropShadow_124_6789" result="shape"/>
</filter>
</defs>
</svg>
